<?xml version="1.0" encoding="UTF-8"?>
<svg width="25px" height="46px" viewBox="0 0 25 46" version="1.1" xmlns="http://www.w3.org/2000/svg" xmlns:xlink="http://www.w3.org/1999/xlink">
    <!-- Generator: Sketch 53.2 (72643) - https://sketchapp.com -->
    <title>barber-sign</title>
    <desc>Created with Sketch.</desc>
    <g id="Page-1" stroke="none" stroke-width="1" fill="none" fill-rule="evenodd">
        <g id="Desktop-HD" transform="translate(-720.000000, -196.000000)" fill="#000000" fill-rule="nonzero">
            <g id="barber-sign" transform="translate(720.000000, 196.000000)">
                <path d="M24.1691843,12.6657501 C24.1691843,11.265917 23.1889773,10.0914163 21.8783321,9.78877777 L21.8783321,9.78149783 C21.8783321,4.38808471 17.4847555,0 12.0845921,0 C6.68442883,0 2.29085214,4.38808471 2.29085214,9.78149783 L2.29085214,9.78877777 C0.980207037,10.0914163 0,11.265917 0,12.6657501 C0,14.0655831 0.980207037,15.2400839 2.29085214,15.5427224 L2.29085214,29.895344 C0.980207037,30.1979826 0,31.3724833 0,32.7723164 C0,34.1721494 0.980207037,35.3466501 2.29085214,35.6492887 L2.29085214,35.6565686 C2.29085214,41.0499818 6.68442883,45.4380665 12.0845921,45.4380665 C17.4847555,45.4380665 21.8783321,41.0499818 21.8783321,35.6565686 L21.8783321,35.6492887 C23.1889773,35.3466501 24.1691843,34.1721494 24.1691843,32.7723164 C24.1691843,31.37283 23.1889773,30.1983292 21.8783321,29.895344 L21.8783321,15.5427224 C23.1889773,15.2400839 24.1691843,14.0655831 24.1691843,12.6657501 Z M20.5454727,29.8187311 L18.2251172,29.8187311 L20.5454727,27.501276 L20.5454727,29.8187311 Z M20.5454727,25.6188854 L16.3403706,29.8187311 L12.0648075,29.8187311 L20.5454727,21.3486668 L20.5454727,25.6188854 Z M20.5454727,19.4659295 L10.1797139,29.8187311 L5.90345655,29.8187311 L20.1206238,15.6193353 L20.5454727,15.6193353 L20.5454727,19.4659295 Z M4.01836289,29.8187311 L3.62371157,29.8187311 L3.62371157,25.9426705 L13.959967,15.6193353 L18.2355301,15.6193353 L4.01836289,29.8187311 Z M3.62371157,24.0602798 L3.62371157,19.7900612 L7.79965737,15.6193353 L12.0752205,15.6193353 L3.62371157,24.0602798 Z M3.62371157,17.9073239 L3.62371157,15.6193353 L5.91456371,15.6193353 L3.62371157,17.9073239 Z M22.8363249,32.7723164 C22.8363249,33.6667119 22.1077644,34.3947083 21.2119024,34.3947083 L17.5659765,34.3947083 C17.1980518,34.3947083 16.8995468,34.6928401 16.8995468,35.0603049 C16.8995468,35.4277698 17.1980518,35.7259016 17.5659765,35.7259016 L20.5451256,35.7259016 C20.507986,40.3538786 16.7266917,44.1068731 12.0845921,44.1068731 C7.44249262,44.1068731 3.66119824,40.3538786 3.62405865,35.7259016 L14.9044229,35.7259016 C15.2726947,35.7259016 15.5708526,35.4277698 15.5708526,35.0603049 C15.5708526,34.6928401 15.2726947,34.3947083 14.9044229,34.3947083 L2.95728186,34.3947083 C2.06141985,34.3947083 1.33285943,33.6667119 1.33285943,32.7723164 C1.33285943,31.8775742 2.06141985,31.1499245 2.95728186,31.1499245 L21.2119024,31.1499245 C22.1077644,31.1499245 22.8363249,31.8775742 22.8363249,32.7723164 Z M21.2119024,14.288142 L2.95728186,14.288142 C2.06141985,14.288142 1.33285943,13.5604923 1.33285943,12.6657501 C1.33285943,11.7713546 2.06141985,11.0433582 2.95728186,11.0433582 L5.67541265,11.0433582 C6.04333739,11.0433582 6.34184237,10.7452264 6.34184237,10.3777615 C6.34184237,10.0102967 6.04333739,9.71216484 5.67541265,9.71216484 L3.62405865,9.71216484 C3.66119824,5.0841879 7.44249262,1.33119335 12.0845921,1.33119335 C16.7266917,1.33119335 20.507986,5.0841879 20.5451256,9.71216484 L8.29462022,9.71216484 C7.92669549,9.71216484 7.62819051,10.0102967 7.62819051,10.3777615 C7.62819051,10.7452264 7.92669549,11.0433582 8.29462022,11.0433582 L21.2119024,11.0433582 C22.1077644,11.0433582 22.8363249,11.7713546 22.8363249,12.6657501 C22.8363249,13.5604923 22.1077644,14.288142 21.2119024,14.288142 Z" id="Shape"></path>
            </g>
        </g>
    </g>
</svg>