<?xml version="1.0" encoding="UTF-8"?>
<svg width="80px" height="80px" viewBox="0 0 80 80" version="1.1" xmlns="http://www.w3.org/2000/svg" xmlns:xlink="http://www.w3.org/1999/xlink">
    <!-- Generator: Sketch 53.2 (72643) - https://sketchapp.com -->
    <title>barber-shop</title>
    <desc>Created with Sketch.</desc>
    <g id="Page-1" stroke="none" stroke-width="1" fill="none" fill-rule="evenodd">
        <g id="Desktop-HD" transform="translate(-596.000000, -41.000000)">
            <g id="barber-shop" transform="translate(596.000000, 41.000000)">
                <circle id="main" fill="#000000" cx="37.7039275" cy="37.7039275" r="37.7039275"></circle>
                <circle id="inner" stroke="#FADCAA" stroke-width="2" cx="37.8247734" cy="37.8247734" r="33.4743202"></circle>
                <circle id="shadow" fill-opacity="0.1" fill="#000000" cx="42.2960725" cy="42.2960725" r="37.7039275"></circle>
                <g transform="translate(25.619335, 16.435045)" fill-rule="nonzero">
                    <path d="M8.21752266,7.06526725 L8.21752266,6.22778411 C8.21752266,5.85816283 7.89274915,5.55891239 7.49244713,5.55891239 C7.0917673,5.55891239 6.7673716,5.85816283 6.7673716,6.22778411 L6.7673716,7.06526725 C6.7673716,7.43454018 7.0917673,7.73413897 7.49244713,7.73413897 C7.89274915,7.73413897 8.21752266,7.43454018 8.21752266,7.06526725 Z" id="Path" fill="#FAB645"></path>
                    <path d="M16.6767372,7.73413897 C17.077417,7.73413897 17.4018127,7.43454018 17.4018127,7.06526725 L17.4018127,6.22778411 C17.4018127,5.85816283 17.077417,5.55891239 16.6767372,5.55891239 C16.2764351,5.55891239 15.9516616,5.85816283 15.9516616,6.22778411 L15.9516616,7.06526725 C15.9516616,7.43454018 16.2764351,7.73413897 16.6767372,7.73413897 Z" id="Path" fill="#FAB645"></path>
                    <path d="M12.2054381,8.21752266 C12.8442635,8.21752266 13.4447314,7.93685011 13.852715,7.44750043 C14.0961103,7.15586417 14.0675165,6.71256228 13.7892509,6.45747191 C13.5106365,6.20238145 13.0880075,6.23198371 12.8442635,6.52398541 C12.6904851,6.70817677 12.457551,6.81415994 12.2054381,6.81415994 C11.9533252,6.81415994 11.7200423,6.7085423 11.566264,6.52398541 C11.3228686,6.23234914 10.9002396,6.20238145 10.6216252,6.45747191 C10.3433596,6.71256228 10.3147659,7.15586417 10.5581612,7.44750043 C10.9661447,7.93685011 11.5666126,8.21752266 12.2054381,8.21752266 Z" id="Path" fill="#FAB645"></path>
                    <path d="M24.1691843,12.6657501 C24.1691843,11.265917 23.1889773,10.0914163 21.8783321,9.78877777 L21.8783321,9.78149783 C21.8783321,4.38808471 17.4847555,0 12.0845921,0 C6.68442883,0 2.29085214,4.38808471 2.29085214,9.78149783 L2.29085214,9.78877777 C0.980207037,10.0914163 0,11.265917 0,12.6657501 C0,14.0655831 0.980207037,15.2400839 2.29085214,15.5427224 L2.29085214,29.895344 C0.980207037,30.1979826 0,31.3724833 0,32.7723164 C0,34.1721494 0.980207037,35.3466501 2.29085214,35.6492887 L2.29085214,35.6565686 C2.29085214,41.0499818 6.68442883,45.4380665 12.0845921,45.4380665 C17.4847555,45.4380665 21.8783321,41.0499818 21.8783321,35.6565686 L21.8783321,35.6492887 C23.1889773,35.3466501 24.1691843,34.1721494 24.1691843,32.7723164 C24.1691843,31.37283 23.1889773,30.1983292 21.8783321,29.895344 L21.8783321,15.5427224 C23.1889773,15.2400839 24.1691843,14.0655831 24.1691843,12.6657501 Z M20.5454727,29.8187311 L18.2251172,29.8187311 L20.5454727,27.501276 L20.5454727,29.8187311 Z M20.5454727,25.6188854 L16.3403706,29.8187311 L12.0648075,29.8187311 L20.5454727,21.3486668 L20.5454727,25.6188854 Z M20.5454727,19.4659295 L10.1797139,29.8187311 L5.90345655,29.8187311 L20.1206238,15.6193353 L20.5454727,15.6193353 L20.5454727,19.4659295 Z M4.01836289,29.8187311 L3.62371157,29.8187311 L3.62371157,25.9426705 L13.959967,15.6193353 L18.2355301,15.6193353 L4.01836289,29.8187311 Z M3.62371157,24.0602798 L3.62371157,19.7900612 L7.79965737,15.6193353 L12.0752205,15.6193353 L3.62371157,24.0602798 Z M3.62371157,17.9073239 L3.62371157,15.6193353 L5.91456371,15.6193353 L3.62371157,17.9073239 Z M22.8363249,32.7723164 C22.8363249,33.6667119 22.1077644,34.3947083 21.2119024,34.3947083 L17.5659765,34.3947083 C17.1980518,34.3947083 16.8995468,34.6928401 16.8995468,35.0603049 C16.8995468,35.4277698 17.1980518,35.7259016 17.5659765,35.7259016 L20.5451256,35.7259016 C20.507986,40.3538786 16.7266917,44.1068731 12.0845921,44.1068731 C7.44249262,44.1068731 3.66119824,40.3538786 3.62405865,35.7259016 L14.9044229,35.7259016 C15.2726947,35.7259016 15.5708526,35.4277698 15.5708526,35.0603049 C15.5708526,34.6928401 15.2726947,34.3947083 14.9044229,34.3947083 L2.95728186,34.3947083 C2.06141985,34.3947083 1.33285943,33.6667119 1.33285943,32.7723164 C1.33285943,31.8775742 2.06141985,31.1499245 2.95728186,31.1499245 L21.2119024,31.1499245 C22.1077644,31.1499245 22.8363249,31.8775742 22.8363249,32.7723164 Z M21.2119024,14.288142 L2.95728186,14.288142 C2.06141985,14.288142 1.33285943,13.5604923 1.33285943,12.6657501 C1.33285943,11.7713546 2.06141985,11.0433582 2.95728186,11.0433582 L5.67541265,11.0433582 C6.04333739,11.0433582 6.34184237,10.7452264 6.34184237,10.3777615 C6.34184237,10.0102967 6.04333739,9.71216484 5.67541265,9.71216484 L3.62405865,9.71216484 C3.66119824,5.0841879 7.44249262,1.33119335 12.0845921,1.33119335 C16.7266917,1.33119335 20.507986,5.0841879 20.5451256,9.71216484 L8.29462022,9.71216484 C7.92669549,9.71216484 7.62819051,10.0102967 7.62819051,10.3777615 C7.62819051,10.7452264 7.92669549,11.0433582 8.29462022,11.0433582 L21.2119024,11.0433582 C22.1077644,11.0433582 22.8363249,11.7713546 22.8363249,12.6657501 C22.8363249,13.5604923 22.1077644,14.288142 21.2119024,14.288142 Z" id="Shape" fill="#FFFFFF"></path>
                </g>
            </g>
        </g>
    </g>
</svg>