<?xml version="1.0" encoding="UTF-8"?>
<svg width="53px" height="55px" viewBox="0 0 53 55" version="1.1" xmlns="http://www.w3.org/2000/svg" xmlns:xlink="http://www.w3.org/1999/xlink">
    <!-- Generator: Sketch 53.2 (72643) - https://sketchapp.com -->
    <title>blade</title>
    <desc>Created with Sketch.</desc>
    <g id="Page-1" stroke="none" stroke-width="1" fill="none" fill-rule="evenodd">
        <g id="Desktop-HD" transform="translate(-551.000000, -196.000000)">
            <g id="blade" transform="translate(577.500000, 224.500000) rotate(-45.000000) translate(-577.500000, -224.500000) translate(542.000000, 219.000000)">
                <path d="M35,7.43945334 C35.0903363,7.41487552 35.1840815,7.40385787 35.2735656,7.41148547 C36.2033477,7.48352393 37.1433566,7.65387368 38.0680254,7.68692661 C41.8476622,7.81913836 45.6375257,8.02254105 49.3975612,7.99796323 C56.3645355,7.95304513 63.313613,7.76405013 70.2712127,7.6479411 C70.6112522,7.64200852 70.7646534,7.41826556 70.8047082,7.10553393 C70.8993057,6.35802905 70.9870853,5.60204905 70.9990165,4.83335639 C71.0245834,3.1391815 70.5533006,1.58399844 69.3959732,0.288153809 C69.2579121,0.13390677 69.0278102,0 68.8590688,0 C61.1199748,0.0279678697 53.3817331,0.0737334747 45.6426391,0.107633923 C45.3349843,0.109328945 45.1483461,0.238998159 45.1057347,0.576307618 C45.0324429,1.16193786 44.9421066,1.74841561 44.9404022,2.35014857 C44.9386977,3.16291181 45.0145461,3.99008275 45.058862,4.82911884 C44.9139831,4.82996635 44.7529117,4.84267902 44.5892837,4.82996635 C42.6402354,4.68588944 40.691187,4.54350756 38.7421387,4.38332794 L35.9468267,6.66737064 C35.8820573,6.66143806 35.8172879,6.65550548 35.7533707,6.65042041 C35.7576318,6.70127108 35.761893,6.75127425 35.7661541,6.80212492 C35.7704153,6.80297243 35.7746764,6.80297243 35.7789376,6.80381994 L35,7.43945334 Z" id="Fill-59" fill="#FFFFFF"></path>
                <path d="M35.7789376,6.80381994 L35,7.43945334 C35.0903363,7.41487552 35.1840815,7.40385787 35.2727134,7.41148547 C36.2033477,7.48352393 37.1425044,7.65387368 38.0680254,7.68692661 C41.8476622,7.81913836 45.6375257,8.02254105 49.396709,7.99796323 C56.3645355,7.95304513 63.3127607,7.76405013 70.2703605,7.6479411 C70.6103999,7.64200852 70.7646534,7.41826556 70.8047082,7.10553393 C70.8993057,6.35802905 70.9870853,5.60204905 70.9990165,4.83335639 C71.0245834,3.14002901 70.5533006,1.58399844 69.3959732,0.288153809 C69.2579121,0.13390677 69.026958,0 68.8590688,0 C61.1191226,0.0279678697 53.3817331,0.0737334747 45.6426391,0.107633923 C45.3341321,0.109328945 45.1474939,0.239845671 45.1057347,0.576307618 C45.0324429,1.16193786 44.9421066,1.74841561 44.9404022,2.35014857 C44.9386977,3.16291181 45.0145461,3.99008275 45.0580098,4.82911884 C44.9131308,4.82996635 44.7529117,4.84267902 44.5884315,4.82996635 C42.6402354,4.68588944 40.691187,4.54350756 38.7421387,4.38332794 L35.9459745,6.66737064 C36.7138331,6.72923895 37.4816916,6.79703985 38.248698,6.85043306 C42.7586953,7.16824976 47.2328989,7.16909727 51.7028414,7.12672171 C57.2116514,7.07417601 62.7187569,7.00552761 68.2267147,6.94365929 C68.4960191,6.94111676 68.7644713,6.94026924 69.0388892,6.98518734 C58.0084858,7.38097507 47.013876,8.07593426 35.7789376,6.80381994 M46.8877461,6.4529503 C46.4624836,6.45634035 46.0321079,6.43176252 45.6025843,6.38345438 C45.3767436,6.35802905 45.1474939,6.25039512 44.9190964,6.18089921 L44.8867117,5.938511 C45.069941,5.87833771 45.2480569,5.79528161 45.4381041,5.76138116 C45.8122327,5.69103773 45.8522875,5.62747439 45.6835461,5.18507354 C45.2949296,4.17145014 45.3392455,3.16630186 45.3452111,2.16793366 C45.3562901,0.615293134 45.3699257,0.609360555 46.6661664,0.601732954 C54.0140872,0.557662372 61.3620079,0.52121939 68.7099287,0.474606274 C68.9596318,0.473758763 69.1564968,0.524609435 69.3209771,0.948365037 L50.8659523,1.04921887 L50.8812924,1.1653279 C55.3299292,1.14075008 59.7760093,1.10345959 64.2263505,1.09837452 C65.9077988,1.09583199 67.5977695,1.16278537 69.2851834,1.21109351 C69.4198357,1.21448355 69.5638624,1.30770979 69.7044802,1.35940797 C69.7027758,1.41195366 69.7002191,1.46534687 69.6985146,1.51789257 C68.6954408,1.56704821 67.6923669,1.61535635 66.6892931,1.66366449 C66.6901453,1.67637716 66.6901453,1.68739481 66.6918498,1.69925996 C67.6744701,1.73485543 68.6545338,1.76621335 69.6371541,1.81367398 C69.7683974,1.82045406 69.908163,1.91791785 70.0445197,1.97300608 C70.0411108,2.02639929 70.0377019,2.07979249 70.0351452,2.1331857 C69.4343235,2.17556126 68.8326497,2.21963184 68.2309758,2.2620074 C68.2326803,2.27641509 68.2343847,2.29082278 68.2360892,2.30438296 C68.8062306,2.3374359 69.3772242,2.36116621 69.9482178,2.41116937 C70.0632687,2.42133951 70.1851375,2.52897343 70.3027452,2.59168926 C70.2967796,2.64084491 70.2916662,2.69000056 70.2857006,2.74000372 C69.9047541,2.77898924 69.5229554,2.81882226 69.1428611,2.85865529 C69.1445656,2.87984307 69.1445656,2.90103085 69.1462701,2.92137112 C69.4709694,2.94849148 69.7948165,2.96120414 70.1203681,3.01120731 C70.2243401,3.02815753 70.3308687,3.1468091 70.4365452,3.21800004 C70.3453566,3.2680032 70.2601337,3.3510593 70.1612751,3.36207694 C69.7308993,3.40784255 69.2988191,3.43326788 68.8701478,3.53666425 C69.4104611,3.57564977 69.9507745,3.61378777 70.5729019,3.65870586 C70.6027299,4.34095238 70.6572725,4.97997583 70.647898,5.60628661 C70.6410802,6.0139395 70.4169439,6.20632454 70.053042,6.20971459 C62.3301404,6.28768562 54.6097954,6.37328425 46.8877461,6.4529503" id="Fill-61" fill="#000000"></path>
                <path d="M51.2914128,7.53868069 C56.9191971,7.47914735 62.5434994,7.40136993 68.1704132,7.33127422 C68.4446208,7.32839358 68.7196989,7.32743336 69,7.37832476 C57.7331149,7.82674523 46.5027907,8.61412165 35.026115,7.17283873 C35.0217625,7.17187851 35.01741,7.17187851 35.0130575,7.17091829 C35.008705,7.11330539 35.0043525,7.05761291 35,7 C35.066158,7.00576129 35.1314455,7.01152258 35.1976036,7.01824409 C35.9810538,7.08833979 36.7653746,7.165157 37.5488248,7.22565056" id="Fill-63" fill="#FFFFFF"></path>
                <path d="M47.9570475,2.72673198 C47.4747682,2.76696991 46.9901439,2.79671099 46.5109911,2.85444367 C46.4054681,2.86756473 46.3187047,2.98040588 46.2233431,3.04688593 C46.3273029,3.10374388 46.4320443,3.19471659 46.5352223,3.21046186 C46.8635162,3.2603219 47.1918101,3.28131561 47.5279205,3.35741777 C47.2090065,3.39328202 46.8885291,3.41777467 46.5735233,3.47288314 C46.4765984,3.48950315 46.3960883,3.58922323 46.3085432,3.6513296 C46.4070314,3.71256123 46.5094278,3.82015395 46.6047894,3.82802659 C47.1519459,3.87788663 47.6967574,3.90325402 48.2493854,3.97935619 C47.6373518,4.03271519 47.0260999,4.08694892 46.4148479,4.14118265 C46.410158,4.19804059 46.4062497,4.25489853 46.4015598,4.31175647 C46.5094278,4.3589923 46.6212041,4.4473408 46.7236005,4.44821554 C47.5701297,4.4543387 48.4150957,4.44384185 49.2608432,4.43859342 C49.2678781,4.49457663 49.274913,4.55143457 49.2827295,4.60741777 C48.3728865,4.66340098 47.4630434,4.71938418 46.5532003,4.77536739 C46.5508554,4.83397481 46.5485104,4.89258223 46.5461655,4.95118964 C46.6587234,4.99492652 46.7736262,5.07190343 46.8822759,5.07540238 C47.8843539,5.11126662 48.8856502,5.1340098 49.8877282,5.16025192 C49.9955962,5.16287614 50.1034642,5.15937719 50.2113322,5.15850245 C50.2183671,5.20923723 50.225402,5.25997201 50.2316552,5.31070679 C49.061522,5.31770469 47.8913888,5.32470259 46.7212555,5.33170049 C46.7290721,5.4086774 46.7368886,5.48477957 46.7454868,5.56088174 C49.1607918,5.65710287 51.5753152,5.753324 53.9906202,5.84954514 C53.9937468,5.88453464 53.9968734,5.91952414 54,5.95451365 C51.5276344,5.96938418 49.0560504,5.98425472 46.589938,6 C46.0537246,4.58554934 45.8325171,2.25874738 46.1397064,1 C46.1467412,1.55545836 46.1522128,2.01819454 46.158466,2.55003499 C46.7814428,2.59989503 47.3653369,2.64625612 47.949231,2.69349195 C47.951576,2.7039888 47.9539209,2.71536039 47.9570475,2.72673198" id="Fill-65" fill="#000000"></path>
                <path d="M47.5946188,9.85874037 C47.3698245,9.8006546 47.135556,9.8006546 46.9176519,9.82139952 C45.2381537,9.98072049 43.6551191,9.45296976 42.1892186,8.02488958 C42.1099808,7.94771848 42.0221301,7.88133474 41.9385858,7.80997223 C41.9256666,7.83818531 41.9127474,7.8663984 41.9006894,7.8937817 C43.1357665,9.26958469 44.574106,9.96163516 46.2114014,10.1275945 C46.1407763,10.1889995 46.1287184,10.2097444 46.112354,10.2105742 C46.0598159,10.2130636 46.0046939,10.211404 45.9504332,10.207255 C44.4647233,10.0861047 43.1245699,9.42807586 41.9704532,8.11118844 C41.8137001,7.93278214 41.6862305,7.86224942 41.5079453,7.94190991 C41.3167409,8.02737897 41.1152011,8.09210312 40.9179677,8.16595503 C40.9024646,8.12031621 40.885239,8.07384759 40.869736,8.02820877 C41.4149269,7.80250405 41.9721758,7.59754426 42.5044475,7.34528605 C42.9996841,7.10962378 43.3777865,6.72127891 43.5939681,6.17361306 C43.7550277,5.76618286 43.6482288,5.40854047 43.2727102,5.06749401 C42.7998669,4.6376593 42.2753467,4.46340199 41.7422137,4.45012524 C40.7904981,4.42689093 39.8456727,4.44182727 38.8930958,4.41444398 C38.7966323,4.41195459 38.6898335,4.38955008 38.5856185,4.35220922 L37.6149547,4.38125211 L37.5279653,4.3837415 L34.5668808,4.47252975 C34.6926279,4.5098706 34.8218201,4.52231755 34.9604863,4.50738121 C35.4247168,4.459253 35.9018666,4.4609126 36.3738486,4.44099747 C36.3221717,4.52895593 36.2549918,4.54555186 36.1843668,4.54970085 C34.0061868,4.68578751 31.8314521,4.83929991 29.6481045,4.95298206 C24.8490461,5.20358068 19.9991723,5.15711206 15.0399157,4.46423178 C11.7015901,3.99788602 8.36154197,3.51411452 5.02666154,3.09423737 C4.03532699,2.96893806 3.05346653,2.99549156 2.08194144,3.02287485 C1.51177335,3.03864099 1.01223031,3.27015428 0.608289474,3.64937139 C-0.529462865,4.7140006 -0.00235882908,6.79513082 1.61684965,7.64401288 C2.41956364,8.06471982 3.23433556,8.22818978 4.0482462,8.34270173 C13.1614616,9.6230781 22.1782134,10.3018518 30.970171,9.56665192 C34.0165222,9.31107452 37.0473704,9.00736892 39.9447201,8.27133921 C40.0515189,8.24395592 40.2031044,8.27050941 40.3176548,8.33108458 C41.0084022,8.69536534 41.6896756,9.09449757 42.3830069,9.44882078 C43.6111937,10.0753173 44.8497159,10.6976649 46.1269958,10.9565615 C46.6050068,11.0536477 47.086463,10.966519 47.5489709,10.9034545 C47.7117531,10.8810499 47.8624772,10.7126012 47.9451602,10.5549398 C48.0941619,10.2736387 47.9270733,9.94337964 47.5946188,9.85874037" id="Fill-67" fill="#FFFFFF"></path>
                <path d="M42.1892186,8.02491259 C42.1099808,7.9477421 42.0221301,7.88135887 41.9385858,7.8099969 C41.9256666,7.83820977 41.9127474,7.86642264 41.9006894,7.89380572 C43.1357665,9.26959807 44.5732447,9.9616432 46.2114014,10.1276013 C46.139915,10.1890057 46.1287184,10.2097505 46.112354,10.2105803 C46.0589546,10.2130697 46.0046939,10.2114101 45.9504332,10.2072611 C44.4647233,10.0861117 43.1237086,9.42808802 41.9704532,8.11121079 C41.8137001,7.93280587 41.6862305,7.86227369 41.5079453,7.94193356 C41.3167409,8.02740197 41.1152011,8.09212561 40.9179677,8.16597695 C40.9016034,8.12033848 40.885239,8.07387022 40.869736,8.02823176 C41.4149269,7.80252879 41.9721758,7.59757058 42.5035862,7.34531432 C42.9996841,7.10965387 43.3769253,6.72131201 43.5939681,6.1736504 C43.7550277,5.76622335 43.6482288,5.40858372 43.2727102,5.0675399 C42.7998669,4.63770852 42.2753467,4.46345255 41.7422137,4.45017591 C40.7904981,4.42694178 39.8448115,4.441878 38.8930958,4.41449492 C38.7966323,4.41200555 38.6898335,4.38960121 38.5847572,4.35226065 L37.6149547,4.38130331 C37.6072031,4.39789912 37.5994516,4.41366513 37.5925614,4.43026094 C37.5710293,4.41449492 37.5494973,4.3995587 37.5279653,4.38379268 L34.5660196,4.47258025 C34.6926279,4.50992081 34.8209588,4.52236766 34.9604863,4.50743144 C35.4247168,4.4593036 35.9018666,4.46096318 36.3738486,4.44104821 C36.3221717,4.52900599 36.2541305,4.54560179 36.1843668,4.54975075 C34.0053256,4.68583636 31.8314521,4.83934757 29.6481045,4.95302884 C24.8490461,5.20362552 19.998311,5.15715726 15.0390544,4.46428234 C11.7007288,3.99794018 8.36068069,3.51417243 5.02666154,3.09346874 C4.03532699,2.96900019 3.05260525,2.99555348 2.08194144,3.02293656 C1.51177335,3.03870258 1.01223031,3.27021408 0.608289474,3.64942825 C-0.529462865,4.71404923 -0.00235882908,6.79516334 1.61684965,7.64403884 C2.41870235,8.06474253 3.23433556,8.22821122 4.0482462,8.34272229 C13.1606003,9.62308875 22.1782134,10.3018572 30.970171,9.566663 C34.0165222,9.31108759 37.0465091,9.00738433 39.9447201,8.27136032 C40.0515189,8.24397724 40.2022431,8.27053053 40.3176548,8.33110522 C41.0084022,8.69538317 41.6896756,9.09451231 42.3830069,9.44883278 C43.6111937,10.0753245 44.8497159,10.6976672 46.1269958,10.9565618 C46.6050068,11.0536473 47.086463,10.9665193 47.5481096,10.9034552 C47.7117531,10.8810509 47.8624772,10.7126034 47.9451602,10.5549433 C48.0941619,10.2736444 47.9270733,9.94338781 47.5946188,9.8587492 C47.3698245,9.80066387 47.1346947,9.80066387 46.9176519,9.82140863 M2.39803161,5.77618083 C2.11983781,5.59279717 1.98031027,5.21026384 2.09572194,4.94887989 C2.21457873,4.68085762 2.53755915,4.62277229 2.81403038,4.8194326 C3.0775824,5.00696521 3.19643919,5.36128568 3.08361137,5.62101005 C2.9725061,5.87658546 2.6581385,5.94877722 2.39803161,5.77618083 M39.0472651,6.77026963 C38.7819906,6.61094989 38.6260987,6.24584215 38.709643,5.98030925 C38.7992162,5.69735075 39.1127225,5.60524403 39.3978066,5.77784042 C39.6915034,5.95624533 39.8301697,6.30475727 39.7199257,6.58937535 C39.616572,6.85490825 39.3220138,6.93456812 39.0472651,6.77026963 M34.1560498,5.63428669 C29.913379,6.0193094 25.6517601,6.31637433 21.2798973,6.1305013 C18.4014958,6.00852212 15.4929495,5.61769088 12.5835419,5.21690216 C9.75164967,4.82690071 6.92147997,4.4593036 4.09044898,4.08506817 C3.90441226,4.06017446 3.71923682,4.05353614 3.53578395,4.05104676 C2.37736086,4.03611054 1.26027927,4.11494062 0.516993677,5.04679515 C0.490293962,5.01858227 0.462732967,4.9903694 0.436033253,4.96132674 C0.607428193,4.71902797 0.748678294,4.44270779 0.954524478,4.23940917 C1.52383129,3.68013049 2.29037147,3.48429998 3.11203364,3.53657677 C4.75449671,3.63947077 6.4047113,3.79215219 8.05923231,3.99959976 C11.6774742,4.45349507 15.3094966,5.03683766 18.9191257,5.41605184 C23.230699,5.86828756 27.4251379,5.66664851 31.595461,5.37290274 C34.4790302,5.16877432 37.3660444,4.97626297 40.2573651,4.80283679 C40.9050485,4.76383665 41.5751252,4.82524113 42.2348665,4.84100715 C42.5785177,4.84930505 42.8903014,4.99119919 43.1917498,5.33639197 C40.0661607,5.03019934 37.1179955,5.36626442 34.1560498,5.63428669" id="Fill-69" fill="#000000"></path>
                <path d="M43,5.03970865 C39.8566162,4.69515732 36.8916665,5.07341476 33.9128578,5.37676973 C29.6460327,5.81120401 25.3592853,6.14545625 20.9625325,5.93572935 C18.0677437,5.79809608 15.1435046,5.35710783 12.2175332,4.90488422 C9.36951836,4.46483225 6.5232359,4.05005987 3.67608726,3.62779724 C3.4889914,3.60064509 3.30276172,3.59221857 3.11826441,3.59034601 C1.95324618,3.57255667 0.828938622,3.66243963 0.082287533,4.71388294 C0.0545696271,4.68111311 0.0277179058,4.64927956 0,4.61650974 C0.172370727,4.34311575 0.315291179,4.03133425 0.521443104,3.80288174 C1.0939911,3.1718285 1.86576154,2.95086623 2.69210161,3.00891564 C4.34304937,3.12501446 6.00352517,3.2982264 7.66659952,3.5322966 C11.3054408,4.04444218 14.9581411,4.70171129 18.5883206,5.1295916 C22.9244405,5.63986463 27.1427593,5.41328468 31.3376911,5.080905 C34.237677,4.85057993 37.1411277,4.63429907 40.0489092,4.43861639 C40.6994138,4.39461119 41.3741716,4.46295969 42.037669,4.48074902 C42.3832766,4.49104811 42.6959692,4.65021585 43,5.03970865" id="Fill-71" fill="#FFFFFF"></path>
                <path d="M37.55,3.4705 C37.541,3.4905 37.533,3.5095 37.525,3.5295 C37.499,3.5105 37.475,3.4925 37.45,3.4735 L37.55,3.4705 Z" id="Fill-73" fill="#FFFFFF"></path>
                <path d="M38.663751,6.07485428 C38.3973491,5.92661912 38.1043875,6.00572538 38.021489,6.24874551 C37.9426147,6.47608693 38.0882907,6.79037396 38.3369861,6.92649374 C38.5929251,7.0676022 38.8681803,6.99989865 38.964761,6.77184457 C39.0677805,6.52668643 38.9382013,6.22736544 38.663751,6.07485428 M38.2194796,6.56018187 C38.1913102,6.53024977 38.1631408,6.50031767 38.1357762,6.47038558 C38.217065,6.37417526 38.2742087,6.22950345 38.3860814,6.19101933 C38.5623412,6.12901712 38.7120414,6.25801021 38.8375964,6.52027241 C38.5261235,6.26870025 38.3643507,6.39056665 38.2194796,6.56018187" id="Fill-77" fill="#FFFFFF"></path>
                <path d="M38.9365,5.71406108 C38.5485,5.36006108 38.3475,5.53106108 38.1675,5.77006108 C38.1325,5.72806108 38.0985,5.68606108 38.0635,5.64406108 C38.1655,5.50806108 38.2355,5.30606108 38.3745,5.25106108 C38.5945,5.16506108 38.7795,5.34606108 38.9365,5.71406108" id="Fill-81" fill="#000000"></path>
            </g>
        </g>
    </g>
</svg>