<?xml version="1.0" encoding="UTF-8"?>
<svg width="80px" height="80px" viewBox="0 0 80 80" version="1.1" xmlns="http://www.w3.org/2000/svg" xmlns:xlink="http://www.w3.org/1999/xlink">
    <!-- Generator: Sketch 53.2 (72643) - https://sketchapp.com -->
    <title>clock</title>
    <desc>Created with Sketch.</desc>
    <g id="Page-1" stroke="none" stroke-width="1" fill="none" fill-rule="evenodd">
        <g id="Desktop-HD" transform="translate(-429.000000, -41.000000)">
            <g id="clock" transform="translate(429.000000, 41.000000)">
                <circle id="main" fill="#000000" cx="37.7039275" cy="37.7039275" r="37.7039275"></circle>
                <circle id="inner" stroke="#FADCAA" stroke-width="2" cx="37.8247734" cy="37.8247734" r="33.4743202"></circle>
                <circle id="shadow" fill-opacity="0.1" fill="#000000" cx="42.2960725" cy="42.2960725" r="37.7039275"></circle>
                <g transform="translate(19.000000, 19.000000)" fill-rule="nonzero">
                    <path d="M19,0 C8.5234,0 0,8.5234 0,19 C0,29.4766 8.5234,38 19,38 C29.4766,38 38,29.4766 38,19 C38,8.5234 29.4766,0 19,0 Z M19,36.7333333 C9.22196667,36.7333333 1.26666667,28.7780333 1.26666667,19 C1.26666667,9.22196667 9.22196667,1.26666667 19,1.26666667 C28.7780333,1.26666667 36.7333333,9.22196667 36.7333333,19 C36.7333333,28.7780333 28.7780333,36.7333333 19,36.7333333 Z" id="Shape" fill="#FFFFFF"></path>
                    <path d="M19.6333333,16.4799667 L19.6333333,10.0567 C19.6333333,9.70646667 19.3496,9.42336667 19,9.42336667 C18.6504,9.42336667 18.3666667,9.70646667 18.3666667,10.0567 L18.3666667,16.4799667 C17.4806333,16.7105 16.7871333,17.404 16.5566,18.2900333 L12.0333333,18.2900333 C11.6837333,18.2900333 11.4,18.5731333 11.4,18.9233667 C11.4,19.2736 11.6837333,19.5567 12.0333333,19.5567 L16.5566,19.5567 C16.8397,20.6460333 17.8232667,21.4567 19,21.4567 C20.3971333,21.4567 21.5333333,20.3205 21.5333333,18.9233667 C21.5333333,17.746 20.7226667,16.7630667 19.6333333,16.4799667 Z M19,20.1900333 C18.3014333,20.1900333 17.7333333,19.6219333 17.7333333,18.9233667 C17.7333333,18.2248 18.3014333,17.6567 19,17.6567 C19.6985667,17.6567 20.2666667,18.2248 20.2666667,18.9233667 C20.2666667,19.6219333 19.6985667,20.1900333 19,20.1900333 Z" id="Shape" fill="#FAB645"></path>
                    <path d="M19,6.2567 C19.3496,6.2567 19.6333333,5.9736 19.6333333,5.62336667 L19.6333333,4.99003333 C19.6333333,4.6398 19.3496,4.3567 19,4.3567 C18.6504,4.3567 18.3666667,4.6398 18.3666667,4.99003333 L18.3666667,5.62336667 C18.3666667,5.9736 18.6504,6.2567 19,6.2567 Z" id="Path" fill="#FFFFFF"></path>
                    <path d="M19,31.5900333 C18.6504,31.5900333 18.3666667,31.8731333 18.3666667,32.2233667 L18.3666667,32.8567 C18.3666667,33.2069333 18.6504,33.4900333 19,33.4900333 C19.3496,33.4900333 19.6333333,33.2069333 19.6333333,32.8567 L19.6333333,32.2233667 C19.6333333,31.8731333 19.3496,31.5900333 19,31.5900333 Z" id="Path" fill="#FFFFFF"></path>
                    <path d="M32.9333333,18.2900333 L32.3,18.2900333 C31.9504,18.2900333 31.6666667,18.5731333 31.6666667,18.9233667 C31.6666667,19.2736 31.9504,19.5567 32.3,19.5567 L32.9333333,19.5567 C33.2829333,19.5567 33.5666667,19.2736 33.5666667,18.9233667 C33.5666667,18.5731333 33.2829333,18.2900333 32.9333333,18.2900333 Z" id="Path" fill="#FFFFFF"></path>
                    <path d="M5.7,18.2900333 L5.06666667,18.2900333 C4.71706667,18.2900333 4.43333333,18.5731333 4.43333333,18.9233667 C4.43333333,19.2736 4.71706667,19.5567 5.06666667,19.5567 L5.7,19.5567 C6.0496,19.5567 6.33333333,19.2736 6.33333333,18.9233667 C6.33333333,18.5731333 6.0496,18.2900333 5.7,18.2900333 Z" id="Path" fill="#FFFFFF"></path>
                    <path d="M28.4043667,8.62283333 L27.9566,9.0706 C27.7089667,9.31823333 27.7089667,9.7185 27.9566,9.96613333 C28.0801,10.0896333 28.2422333,10.1517 28.4043667,10.1517 C28.5665,10.1517 28.7286333,10.0896333 28.8521333,9.96613333 L29.2999,9.51836667 C29.5475333,9.27073333 29.5475333,8.87046667 29.2999,8.62283333 C29.0522667,8.3752 28.652,8.37583333 28.4043667,8.62283333 Z" id="Path" fill="#FFFFFF"></path>
                    <path d="M9.14786667,27.8799667 L8.7001,28.3277333 C8.45246667,28.5753667 8.45246667,28.9756333 8.7001,29.2232667 C8.8236,29.3467667 8.98573333,29.4088333 9.14786667,29.4088333 C9.31,29.4088333 9.47213333,29.3467667 9.59563333,29.2232667 L10.0434,28.7755 C10.2910333,28.5278667 10.2910333,28.1276 10.0434,27.8799667 C9.79576667,27.6323333 9.39486667,27.6329667 9.14786667,27.8799667 Z" id="Path" fill="#FFFFFF"></path>
                    <path d="M28.8521333,27.8799667 C28.6045,27.6323333 28.2042333,27.6323333 27.9566,27.8799667 C27.7089667,28.1276 27.7089667,28.5278667 27.9566,28.7755 L28.4043667,29.2232667 C28.5278667,29.3467667 28.69,29.4088333 28.8521333,29.4088333 C29.0142667,29.4088333 29.1764,29.3467667 29.2999,29.2232667 C29.5475333,28.9756333 29.5475333,28.5753667 29.2999,28.3277333 L28.8521333,27.8799667 Z" id="Path" fill="#FFFFFF"></path>
                    <path d="M9.59563333,8.62283333 C9.348,8.3752 8.94773333,8.3752 8.7001,8.62283333 C8.45246667,8.87046667 8.45246667,9.27073333 8.7001,9.51836667 L9.14786667,9.96613333 C9.27136667,10.0896333 9.4335,10.1517 9.59563333,10.1517 C9.75776667,10.1517 9.9199,10.0896333 10.0434,9.96613333 C10.2910333,9.7185 10.2910333,9.31823333 10.0434,9.0706 L9.59563333,8.62283333 Z" id="Path" fill="#FFFFFF"></path>
                </g>
            </g>
        </g>
    </g>
</svg>