<?xml version="1.0" encoding="UTF-8"?>
<svg width="27px" height="27px" viewBox="0 0 27 27" version="1.1" xmlns="http://www.w3.org/2000/svg" xmlns:xlink="http://www.w3.org/1999/xlink">
    <!-- Generator: Sketch 53.2 (72643) - https://sketchapp.com -->
    <title>close</title>
    <desc>Created with Sketch.</desc>
    <g id="Page-1" stroke="none" stroke-width="1" fill="none" fill-rule="evenodd">
        <g id="Desktop-HD" transform="translate(-553.000000, -318.000000)" fill="#FFBF00" fill-rule="nonzero">
            <g id="close" transform="translate(553.000000, 318.000000)">
                <path d="M16.3362704,13.3228282 L25.7480563,3.91104225 C26.6144225,3.04467606 26.6144225,1.64002254 25.7480563,0.773780282 C24.8816901,-0.0925859155 23.4771606,-0.0925859155 22.6107944,0.773780282 L13.1988845,10.1856901 L3.78697465,0.773656338 C2.92060845,-0.0927098592 1.51607887,-0.0927098592 0.649712676,0.773656338 C-0.216529577,1.64002254 -0.216529577,3.04467606 0.649712676,3.91091831 L10.0616225,13.3227042 L0.649712676,22.7346141 C-0.216529577,23.6009803 -0.216529577,25.0056338 0.649712676,25.8718761 C1.51607887,26.7382423 2.92060845,26.7382423 3.78697465,25.8718761 L13.1988845,16.4599662 L22.6107944,25.8718761 C23.4770366,26.7382423 24.8816901,26.7382423 25.7480563,25.8718761 C26.6144225,25.0055099 26.6144225,23.6009803 25.7480563,22.7346141 L16.3362704,13.3228282 Z" id="Path"></path>
            </g>
        </g>
    </g>
</svg>