<?xml version="1.0" encoding="UTF-8"?>
<svg width="68px" height="68px" viewBox="0 0 68 68" version="1.1" xmlns="http://www.w3.org/2000/svg" xmlns:xlink="http://www.w3.org/1999/xlink">
    <!-- Generator: Sketch 54 (76480) - https://sketchapp.com -->
    <title>efficient</title>
    <desc>Created with Sketch.</desc>
    <g id="Page-1" stroke="none" stroke-width="1" fill="none" fill-rule="evenodd">
        <g id="Desktop-HD" transform="translate(-44.000000, -378.000000)">
            <g id="efficient" transform="translate(38.000000, 372.000000)">
                <path d="M26.826087,11.826087 L53.173913,11.826087 C61.4581843,11.826087 68.173913,18.5418157 68.173913,26.826087 L68.173913,53.173913 C68.173913,61.4581843 61.4581843,68.173913 53.173913,68.173913 L26.826087,68.173913 C18.5418157,68.173913 11.826087,61.4581843 11.826087,53.173913 L11.826087,26.826087 C11.826087,18.5418157 18.5418157,11.826087 26.826087,11.826087 Z" id="Rectangle-Copy-5" fill="#FFBF00" transform="translate(40.000000, 40.000000) rotate(-45.000000) translate(-40.000000, -40.000000) "></path>
                <rect id="Rectangle" fill="#3F3733" fill-rule="nonzero" x="22.8878864" y="34.3863636" width="4.00909091" height="2.04545455"></rect>
                <rect id="Rectangle" fill="#3F3733" fill-rule="nonzero" x="22.8878864" y="42.5681818" width="4.00909091" height="2.04545455"></rect>
                <rect id="Rectangle" fill="#3F3733" fill-rule="nonzero" x="21" y="38.4772727" width="5.89704545" height="2.04545455"></rect>
                <path d="M42.4257273,26.0167045 C34.9910455,26.0167045 28.9424318,32.0653182 28.9424318,39.5 C28.9424318,46.9346818 34.9909773,52.9832955 42.4257273,52.9832955 C49.8604773,52.9832955 55.9090909,46.9346818 55.9090909,39.5 C55.9090909,32.0653182 49.8604773,26.0167045 42.4257273,26.0167045 Z M42.4257273,50.9378409 C36.1189091,50.9378409 30.9878864,45.8068182 30.9878864,39.5 C30.9878864,33.1931818 36.1189091,28.0621591 42.4257273,28.0621591 C48.7326136,28.0621591 53.8636364,33.1931818 53.8636364,39.5 C53.8636364,45.8068182 48.7326136,50.9378409 42.4257273,50.9378409 Z" id="Shape" fill="#3F3733" fill-rule="nonzero"></path>
                <polygon id="Path" fill="#3F3733" fill-rule="nonzero" points="43.0861364 40.0082273 43.0861364 33.4016136 41.0406818 33.4016136 41.0406818 41.0895227 46.3116818 44.6815455 47.4636136 42.99125"></polygon>
            </g>
        </g>
    </g>
</svg>