<?xml version="1.0" encoding="UTF-8"?>
<svg width="68px" height="68px" viewBox="0 0 68 68" version="1.1" xmlns="http://www.w3.org/2000/svg" xmlns:xlink="http://www.w3.org/1999/xlink">
    <!-- Generator: Sketch 53.2 (72643) - https://sketchapp.com -->
    <title>facebook</title>
    <desc>Created with Sketch.</desc>
    <g id="Page-1" stroke="none" stroke-width="1" fill="none" fill-rule="evenodd">
        <g id="Desktop-HD" transform="translate(-125.000000, -526.000000)">
            <g id="facebook" transform="translate(119.000000, 520.000000)">
                <path d="M26.826087,11.826087 L53.173913,11.826087 C61.4581843,11.826087 68.173913,18.5418157 68.173913,26.826087 L68.173913,53.173913 C68.173913,61.4581843 61.4581843,68.173913 53.173913,68.173913 L26.826087,68.173913 C18.5418157,68.173913 11.826087,61.4581843 11.826087,53.173913 L11.826087,26.826087 C11.826087,18.5418157 18.5418157,11.826087 26.826087,11.826087 Z" id="Rectangle-Copy-5" fill="#FDE9C7" transform="translate(40.000000, 40.000000) rotate(-45.000000) translate(-40.000000, -40.000000) "></path>
                <g id="001-facebook-logo" transform="translate(26.434783, 25.043478)" fill="#3F3733" fill-rule="nonzero">
                    <path d="M27.826087,4.63799034 C27.826087,2.20104348 25.625971,0 23.1884058,0 L4.63768116,0 C2.20011594,0 0,2.20104348 0,4.63799034 L0,23.1880966 C0,25.6250435 2.20011594,27.826087 4.63799034,27.826087 L13.9130435,27.826087 L13.9130435,17.3140097 L10.5120773,17.3140097 L10.5120773,12.6763285 L13.9130435,12.6763285 L13.9130435,10.8694879 C13.9130435,7.75327536 16.2529082,4.9468599 19.1304348,4.9468599 L22.8792271,4.9468599 L22.8792271,9.58454106 L19.1304348,9.58454106 C18.7201546,9.58454106 18.2415459,10.082628 18.2415459,10.8286763 L18.2415459,12.6763285 L22.8792271,12.6763285 L22.8792271,17.3140097 L18.2415459,17.3140097 L18.2415459,27.826087 L23.1884058,27.826087 C25.625971,27.826087 27.826087,25.6250435 27.826087,23.1880966 L27.826087,4.63799034 Z" id="Facebook__x28_alt_x29_"></path>
                </g>
            </g>
        </g>
    </g>
</svg>