<?xml version="1.0" encoding="UTF-8"?>
<svg width="68px" height="68px" viewBox="0 0 68 68" version="1.1" xmlns="http://www.w3.org/2000/svg" xmlns:xlink="http://www.w3.org/1999/xlink">
    <!-- Generator: Sketch 53.2 (72643) - https://sketchapp.com -->
    <title>friendly</title>
    <desc>Created with Sketch.</desc>
    <g id="Page-1" stroke="none" stroke-width="1" fill="none" fill-rule="evenodd">
        <g id="Desktop-HD" transform="translate(-261.000000, -378.000000)">
            <g id="friendly" transform="translate(255.000000, 372.000000)">
                <path d="M26.826087,11.826087 L53.173913,11.826087 C61.4581843,11.826087 68.173913,18.5418157 68.173913,26.826087 L68.173913,53.173913 C68.173913,61.4581843 61.4581843,68.173913 53.173913,68.173913 L26.826087,68.173913 C18.5418157,68.173913 11.826087,61.4581843 11.826087,53.173913 L11.826087,26.826087 C11.826087,18.5418157 18.5418157,11.826087 26.826087,11.826087 Z" id="Rectangle-Copy-5" fill="#FDE9C7" transform="translate(40.000000, 40.000000) rotate(-45.000000) translate(-40.000000, -40.000000) "></path>
                <g id="002-smiling-emoticon-square-face" transform="translate(26.000000, 26.000000)" fill="#3F3733" fill-rule="nonzero">
                    <path d="M22.8480561,3.91575701 C17.6277196,-1.30508411 9.1343271,-1.30508411 3.915,3.91449533 C-1.30533645,9.13407477 -1.30483178,17.6277196 3.91550467,22.8483084 C9.1343271,28.0676355 17.6277196,28.0676355 22.8475514,22.8472991 C28.0673832,17.6277196 28.0671308,9.13457944 22.8480561,3.91575701 Z M21.3872804,21.3875327 C16.9729065,25.8019065 9.7898972,25.8024112 5.37527103,21.3880374 C0.95988785,16.9729065 0.960392523,9.78914019 5.37527103,5.37476636 C9.78964486,0.96064486 16.9724019,0.960140187 21.387785,5.37527103 C25.8021589,9.78964486 25.8016542,16.9734112 21.3872804,21.3875327 Z M8.38766355,9.7581028 C8.38766355,8.8941028 9.08840187,8.19336449 9.95240187,8.19336449 C10.8161495,8.19336449 11.5168879,8.89385047 11.5168879,9.7581028 C11.5168879,10.6226075 10.8161495,11.3230935 9.95240187,11.3230935 C9.08840187,11.3230935 8.38766355,10.6226075 8.38766355,9.7581028 Z M15.4826075,9.7581028 C15.4826075,8.8941028 16.1838505,8.19336449 17.0478505,8.19336449 C17.9115981,8.19336449 18.6123364,8.89385047 18.6123364,9.7581028 C18.6123364,10.6226075 17.9118505,11.3230935 17.0478505,11.3230935 C16.1838505,11.3230935 15.4826075,10.6226075 15.4826075,9.7581028 Z M19.1818598,16.1666916 C18.2121308,18.4092056 15.9411028,19.8581215 13.3965421,19.8581215 C10.7972243,19.8581215 8.51282243,18.4018879 7.57665421,16.1480187 C7.41616822,15.7621963 7.59911215,15.3190935 7.98543925,15.1586075 C8.08031776,15.1194953 8.17872897,15.1008224 8.27562617,15.1008224 C8.57237383,15.1008224 8.85398131,15.2761963 8.97485047,15.5676449 C9.67558879,17.2547664 11.4111589,18.3443551 13.3965421,18.3443551 C15.3370093,18.3443551 17.062486,17.2540093 17.792243,15.5658785 C17.9582804,15.1820748 18.4039065,15.0051869 18.7874579,15.1714766 C19.1710093,15.3377664 19.3478972,15.7831402 19.1818598,16.1666916 Z" id="Shape"></path>
                </g>
            </g>
        </g>
    </g>
</svg>