<?xml version="1.0" encoding="UTF-8"?>
<svg width="68px" height="68px" viewBox="0 0 68 68" version="1.1" xmlns="http://www.w3.org/2000/svg" xmlns:xlink="http://www.w3.org/1999/xlink">
    <!-- Generator: Sketch 53.2 (72643) - https://sketchapp.com -->
    <title>instagram</title>
    <desc>Created with Sketch.</desc>
    <g id="Page-1" stroke="none" stroke-width="1" fill="none" fill-rule="evenodd">
        <g id="Desktop-HD" transform="translate(-263.000000, -526.000000)">
            <g id="instagram" transform="translate(257.000000, 520.000000)">
                <path d="M26.826087,11.826087 L53.173913,11.826087 C61.4581843,11.826087 68.173913,18.5418157 68.173913,26.826087 L68.173913,53.173913 C68.173913,61.4581843 61.4581843,68.173913 53.173913,68.173913 L26.826087,68.173913 C18.5418157,68.173913 11.826087,61.4581843 11.826087,53.173913 L11.826087,26.826087 C11.826087,18.5418157 18.5418157,11.826087 26.826087,11.826087 Z" id="Rectangle" fill-opacity="0.3" fill="#FAB645" transform="translate(40.000000, 40.000000) rotate(-45.000000) translate(-40.000000, -40.000000) "></path>
                <g id="002-instagram" transform="translate(26.434783, 27.826087)" fill="#3F3733" fill-rule="nonzero">
                    <path d="M19.1304348,0 L8.69565217,0 C3.89391304,0 0,3.89391304 0,8.69565217 L0,19.1304348 C0,23.9321739 3.89391304,27.826087 8.69565217,27.826087 L19.1304348,27.826087 C23.9321739,27.826087 27.826087,23.9321739 27.826087,19.1304348 L27.826087,8.69565217 C27.826087,3.89391304 23.9321739,0 19.1304348,0 Z M25.2173913,19.1304348 C25.2173913,22.4869565 22.4869565,25.2173913 19.1304348,25.2173913 L8.69565217,25.2173913 C5.33913043,25.2173913 2.60869565,22.4869565 2.60869565,19.1304348 L2.60869565,8.69565217 C2.60869565,5.33913043 5.33913043,2.60869565 8.69565217,2.60869565 L19.1304348,2.60869565 C22.4869565,2.60869565 25.2173913,5.33913043 25.2173913,8.69565217 L25.2173913,19.1304348 Z" id="Shape"></path>
                    <path d="M14.0676329,6.80193237 C10.2258937,6.80193237 7.11111111,9.91671498 7.11111111,13.7584541 C7.11111111,17.6001932 10.2258937,20.7149758 14.0676329,20.7149758 C17.909372,20.7149758 21.0241546,17.6001932 21.0241546,13.7584541 C21.0241546,9.91671498 17.909372,6.80193237 14.0676329,6.80193237 Z M14.0676329,18.1062802 C11.6711111,18.1062802 9.71980676,16.1549758 9.71980676,13.7584541 C9.71980676,11.3601932 11.6711111,9.41062802 14.0676329,9.41062802 C16.4641546,9.41062802 18.4154589,11.3601932 18.4154589,13.7584541 C18.4154589,16.1549758 16.4641546,18.1062802 14.0676329,18.1062802 Z" id="Shape"></path>
                    <circle id="Oval" cx="21.3333333" cy="6.49275362" r="1"></circle>
                </g>
            </g>
        </g>
    </g>
</svg>