<?xml version="1.0" encoding="UTF-8"?>
<svg width="277px" height="200px" viewBox="0 0 277 200" version="1.1" xmlns="http://www.w3.org/2000/svg" xmlns:xlink="http://www.w3.org/1999/xlink">
    <!-- Generator: Sketch 53.2 (72643) - https://sketchapp.com -->
    <title>Logo</title>
    <desc>Created with Sketch.</desc>
    <g id="Page-1" stroke="none" stroke-width="1" fill="none" fill-rule="evenodd">
        <g id="Desktop-HD" transform="translate(-593.000000, -412.000000)">
            <g id="Logo" transform="translate(593.000000, 412.000000)">
                <path d="M16.431644,149.604638 L15.9848331,148.011595 C15.2954179,145.423329 12.3745665,143.233323 9.2905243,143.233323 C5.72127347,143.233323 3.40867818,146.140198 3.77345736,148.767862 C4.13823654,151.516289 7.26329455,152.391607 9.33154014,153.068221 C11.7654376,153.824489 18.3794601,154.979873 18.9467005,160.116151 C19.5950998,165.571038 14.2002077,168 9.69631932,168 C5.23344676,168 4.62606325,165.809994 2.10926144,166.645914 L0,160.394505 L0.852605884,160.195803 C1.41984624,159.996245 1.74448225,160.116151 2.06999095,160.713114 C2.35361113,161.231281 2.67824714,161.78799 2.96186732,162.346411 C4.13823654,164.655467 6.61314984,166.407814 9.81849417,166.407814 C12.4155823,166.407814 16.107008,165.451132 15.620054,161.231281 C15.2544021,157.688046 11.6851513,156.930922 8.68226811,155.975096 C5.76141663,155.020127 1.54202108,154.064301 0.893621725,149.68429 C0.365651858,146.419409 3.28650334,142 9.2905243,142 C14.4838279,142 15.2544021,144.387851 17.7293154,144.866621 L18.2572853,149.923247 L17.4046794,150.082551 C16.8784549,150.161347 16.5538189,150.043153 16.431644,149.604638" id="Fill-1" fill="#000000"></path>
                <path d="M56,142 L56,142.758539 C54.369976,143.037729 53.8523043,143.477562 53.2952725,145.035015 L45.61833,167 L45.4985383,167 C44.9021463,167 44.5042664,166.719951 44.2261783,166.041303 L37.9807477,149.906673 L32.5704371,167 L32.451501,167 C31.855109,167 31.4572291,166.719951 31.1782854,166.041303 L23.4217669,146.033228 C22.4274951,143.437186 21.7113113,143.037729 20,142.758539 L20,142 L26.8426782,142 L26.8426782,142.758539 C26.0469185,143.037729 25.4496708,143.317779 25.6892544,143.996426 L32.6106529,162.008075 L37.184988,147.790839 L36.4688042,146.033228 C35.4745324,143.437186 34.7583486,143.037729 33.0470373,142.758539 L33.0470373,142 L39.8905712,142 L39.8905712,142.758539 C39.0948114,143.037729 38.6567157,143.717236 38.7362917,143.996426 L45.697906,162.008075 L51.703753,144.395883 C52.0220569,143.437186 51.2262972,143.037729 49.7160649,142.758539 L49.7160649,142 L56,142 Z" id="Fill-3" fill="#000000"></path>
                <path d="M76.6882356,166.074299 C76.5251466,166.677866 75.9918015,167 75.4593379,167 L58,167 L58,166.114132 C59.3928682,165.630932 60.0081985,165.671631 60.0081985,164.101663 L60.0081985,144.777104 C60.0081985,143.167302 59.3928682,143.247835 58,142.724801 L58,142 L75.4593379,142 C75.9918015,142 76.155772,142.121233 76.155772,142.724801 L76.155772,146.629373 L75.253934,146.629373 L74.6394852,145.301005 C74.1061401,144.173537 73.1231983,143.448736 71.3609556,143.448736 L63.1633094,143.448736 L63.1633094,153.554382 L70.8276105,153.554382 C72.1799268,153.554382 72.3853308,152.465882 72.9177943,151.178213 L73.5331247,151.178213 L73.5331247,157.337721 L72.9177943,157.337721 C72.3853308,156.089886 72.1799268,154.922584 70.8276105,154.922584 L63.1633094,154.922584 L63.1633094,165.671631 L72.9583462,165.591098 C74.9674263,165.591098 74.885441,164.825598 75.7052938,163.819363 L76.7702208,162.490994 L78,162.490994 C77.3449993,163.779529 77.0161767,164.785764 76.6882356,166.074299" id="Fill-5" fill="#000000"></path>
                <path d="M99.6882356,166.074299 C99.5251466,166.677866 98.9918015,167 98.4593379,167 L81,167 L81,166.114132 C82.3928682,165.630932 83.0081985,165.671631 83.0081985,164.101663 L83.0081985,144.777104 C83.0081985,143.167302 82.3928682,143.247835 81,142.724801 L81,142 L98.4593379,142 C98.9918015,142 99.155772,142.121233 99.155772,142.724801 L99.155772,146.629373 L98.253934,146.629373 L97.6394852,145.301005 C97.1061401,144.173537 96.1231983,143.448736 94.3609556,143.448736 L86.1633094,143.448736 L86.1633094,153.554382 L93.8276105,153.554382 C95.1799268,153.554382 95.3853308,152.465882 95.9177943,151.178213 L96.5331247,151.178213 L96.5331247,157.337721 L95.9177943,157.337721 C95.3853308,156.089886 95.1799268,154.922584 93.8276105,154.922584 L86.1633094,154.922584 L86.1633094,165.671631 L95.9592278,165.591098 C97.9674263,165.591098 97.885441,164.825598 98.7052938,163.819363 L99.7702208,162.490994 L101,162.490994 C100.344999,163.779529 100.016177,164.785764 99.6882356,166.074299" id="Fill-7" fill="#000000"></path>
                <path d="M126,142.516791 C124.481511,143.034439 123.820207,143.630802 123.820207,144.54631 L123.820207,166.701604 C123.820207,167.099465 123.85955,167.099465 123.548151,166.701604 L106.658102,145.620107 L106.658102,164.076578 C106.658102,164.992086 107.358749,165.587594 108.760045,166.105241 L108.760045,166.701604 L103,166.701604 L103,166.105241 C104.479145,165.587594 105.178956,164.992086 105.178956,164.076578 L105.178956,144.54631 C105.178956,143.630802 104.479145,143.034439 103,142.516791 L103,142 L107.747998,142 L122.030499,160.496684 L122.030499,144.54631 C122.030499,143.630802 121.407701,143.034439 119.850706,142.516791 L119.850706,142 L126,142 L126,142.516791 Z" id="Fill-9" fill="#000000"></path>
                <path d="M147.688236,166.074299 C147.525147,166.677866 146.991801,167 146.459338,167 L129,167 L129,166.114132 C130.392868,165.630932 131.008199,165.671631 131.008199,164.101663 L131.008199,144.777104 C131.008199,143.167302 130.392868,143.247835 129,142.724801 L129,142 L146.459338,142 C146.991801,142 147.155772,142.121233 147.155772,142.724801 L147.155772,146.629373 L146.253934,146.629373 L145.639485,145.301005 C145.10614,144.173537 144.123198,143.448736 142.360956,143.448736 L134.163309,143.448736 L134.163309,153.554382 L141.827611,153.554382 C143.179927,153.554382 143.385331,152.465882 143.917794,151.178213 L144.533125,151.178213 L144.533125,157.337721 L143.917794,157.337721 C143.385331,156.089886 143.179927,154.922584 141.827611,154.922584 L134.163309,154.922584 L134.163309,165.671631 L143.959228,165.591098 C145.967426,165.591098 145.885441,164.825598 146.705294,163.819363 L147.770221,162.490994 L149,162.490994 C148.344999,163.779529 148.016177,164.785764 147.688236,166.074299" id="Fill-11" fill="#000000"></path>
                <path d="M173,142 L173,142.724801 C171.346372,142.925701 170.677127,143.649636 169.692744,145.100104 L162.957937,154.88275 L162.957937,164.825598 C162.957937,165.751299 164.41418,165.953065 165.832302,166.153966 L165.832302,167 L157.404899,167 L157.404899,166.153966 C158.82302,165.953065 160.319079,165.751299 160.319079,164.825598 L160.319079,155.928819 L153.663057,146.106339 C152.127182,143.770869 151.734107,142.925701 150,142.724801 L150,142 L157.326114,142 L157.326114,142.724801 C156.184162,142.925701 155.435285,143.408902 155.869024,144.052303 L162.209061,153.473848 L168.35256,144.454971 C168.983683,143.530135 167.998453,142.925701 166.463425,142.724801 L166.463425,142 L173,142 Z" id="Fill-13" fill="#000000"></path>
                <path d="M204,146.251341 L203.48201,146.251341 L203.043509,144.976278 C202.76486,144.279864 202.167381,143.777464 201.250198,143.777464 L194.953954,143.777464 L194.953954,163.52697 C194.953954,165.034171 195.711285,164.995199 197.066969,165.4976 L197.066969,166 L190.013394,166 L190.013394,165.4976 C191.328023,164.995199 192.085354,165.034171 192.085354,163.52697 L192.085354,143.777464 L185.749802,143.777464 C184.833493,143.777464 184.236013,144.279864 183.957365,144.976278 L183.518864,146.251341 L183,146.251341 L183.240215,142.850607 C183.278649,142.270263 183.559045,142 184.076162,142 L202.924712,142 C203.441829,142 203.720478,142.270263 203.760659,142.850607 L204,146.251341 Z" id="Fill-15" fill="#000000"></path>
                <path d="M216.999581,167 C210.468658,167 206,161.018358 206,154.308766 C206,147.444504 210.468658,142 216.999581,142 C223.56902,142 228,147.214182 228,154.308766 C228,161.555496 223.56902,167 216.999581,167 M224.906185,155.457853 C224.906185,148.057295 220.589914,143.226421 216.999581,143.226421 C212.530923,143.226421 209.093815,144.721832 209.093815,153.157997 C209.093815,161.172187 213.14215,165.696244 216.732483,165.696244 C221.736175,165.696244 224.906185,163.396389 224.906185,155.457853" id="Fill-17" fill="#000000"></path>
                <path d="M252,153.980514 C252,162.522169 247.623943,166.309235 238.560225,165.961028 C234.377755,165.651793 232.905484,165.690765 230.039057,166 L230.039057,164.918102 C231.821234,164.530923 232.55652,163.952273 232.55652,163.062694 L232.55652,144.860209 C232.55652,143.97063 231.898499,143.391132 230,142.888732 L230,142 L237.902204,142 C247.042337,142 252,144.976278 252,153.980514 M249.211686,153.980514 C249.211686,147.681446 246.423372,143.35216 239.722589,143.35216 L235.269268,143.35216 L235.269268,162.985597 C235.269268,163.913301 235.578326,163.990398 236.701633,164.10562 L238.986454,164.299633 C246.655166,164.956227 249.211686,160.78283 249.211686,153.980514" id="Fill-19" fill="#000000"></path>
                <path d="M277,153.980514 C277,162.522169 272.623943,166.309235 263.560225,165.961028 C259.377755,165.651793 257.905484,165.690765 255.039057,166 L255.039057,164.918102 C256.821234,164.530923 257.55652,163.952273 257.55652,163.062694 L257.55652,144.860209 C257.55652,143.97063 256.898499,143.391132 255,142.888732 L255,142 L262.902204,142 C272.042337,142 277,144.976278 277,153.980514 M274.211686,153.980514 C274.211686,147.681446 271.422523,143.35216 264.722589,143.35216 L260.268419,143.35216 L260.268419,162.985597 C260.268419,163.913301 260.578326,163.990398 261.701633,164.10562 L263.986454,164.299633 C271.655166,164.956227 274.211686,160.78283 274.211686,153.980514" id="Fill-21" fill="#000000"></path>
                <path d="M99,195.438512 C99,198.478402 96.7629141,200.0501 92.9737276,199.998782 L90.6584592,199.946596 C87.8954182,199.76655 86.9216906,199.792644 85,199.998782 L85,199.276863 C86.2118289,199.019407 86.7111309,198.633224 86.7111309,198.040902 L86.7111309,185.906564 C86.7111309,185.314242 86.0794517,184.927188 85.0275416,184.773237 L85.0275416,184 L92.5259551,184 C95.8949105,184 98.1053433,185.15942 98.1053433,187.787034 C98.1053433,189.20391 97.0791979,190.749514 95.1050895,191.342705 C97.526082,191.806299 99,193.40322 99,195.438512 L99,195.438512 Z M88.552862,190.903465 L94.3952278,190.903465 C94.9469476,190.903465 96.0788171,189.616187 96.0788171,187.710493 C96.0788171,185.854377 95.0793248,184.902834 92.9213098,184.902834 L88.552862,184.902834 L88.552862,190.903465 Z M96.9734738,195.438512 C96.9734738,193.170988 95.4737911,191.728019 90.5527351,191.728019 L88.552862,191.728019 L88.552862,198.014808 C88.552862,198.581906 88.7634218,199.070724 89.31603,199.070724 L92.8955451,199.070724 C95.631933,199.070724 96.9734738,198.040902 96.9734738,195.438512 L96.9734738,195.438512 Z" id="Fill-23" fill="#000000"></path>
                <path d="M117,199.465808 L117,200 L111.59904,200 L111.59904,199.490714 C113.142047,199.211594 113.063898,198.804509 112.782562,198.142351 L111.212637,194.505207 L104.34595,194.505207 L102.931454,198.016103 C102.59715,198.85518 103.163296,199.211594 104.397181,199.490714 L104.397181,200 L100,200 L100,199.490714 C101.080192,199.262265 101.490908,199.057864 101.980642,197.888996 L107.793186,184 L108.435744,184.152013 C108.718817,184.254214 108.97584,184.406227 109.129533,184.839077 L114.633824,197.226838 C115.430075,199.032958 115.944989,199.2365 117,199.465808 L117,199.465808 Z M110.878333,193.716801 L107.688988,186.314546 L104.680253,193.716801 L110.878333,193.716801 Z" id="Fill-25" fill="#000000"></path>
                <path d="M134,200 L131.499813,200 C130.75115,199.484152 129.178958,198.480291 128.740206,195.851465 C128.250964,193.377481 127.786096,192.398847 125.207561,192.398847 L123.067778,192.398847 L123.067778,198.350677 C123.067778,199.356277 123.583136,199.33018 124.383161,199.66509 L124.383161,200 L120,200 L120,199.66509 C120.876632,199.33018 121.263151,199.356277 121.263151,198.350677 L121.263151,186.061654 C121.263151,185.056054 120.876632,184.66982 120,184.33491 L120,184 L126.213904,184 C129.79704,184 131.860216,185.829392 131.860216,188.379057 C131.860216,190.338063 130.390747,191.806448 127.88882,192.477138 C130.132197,192.785081 130.339386,194.074267 130.75115,195.671397 C131.137669,197.191105 132.144012,199.277986 133.407163,199.407601 L134,199.407601 L134,200 Z M129.719562,188.379057 C129.719562,186.627086 128.869046,184.799435 126.80674,184.799435 L123.067778,184.799435 L123.067778,191.857772 L126.574307,191.857772 C129.204203,191.857772 129.719562,190.054477 129.719562,188.379057 L129.719562,188.379057 Z" id="Fill-27" fill="#000000"></path>
                <path d="M149,195.438512 C149,198.478402 146.763803,200.0501 142.973728,199.998782 L140.657571,199.946596 C137.895418,199.76655 136.921691,199.792644 135,199.998782 L135,199.276863 C136.211829,199.019407 136.711131,198.633224 136.711131,198.040902 L136.711131,185.906564 C136.711131,185.314242 136.079452,184.927188 135.027542,184.773237 L135.027542,184 L142.526844,184 C145.894911,184 148.105343,185.15942 148.105343,187.787034 C148.105343,189.20391 147.079198,190.749514 145.105089,191.342705 C147.526082,191.806299 149,193.40322 149,195.438512 L149,195.438512 Z M138.552862,190.903465 L144.395228,190.903465 C144.946948,190.903465 146.078817,189.616187 146.078817,187.710493 C146.078817,185.854377 145.079325,184.902834 142.92131,184.902834 L138.552862,184.902834 L138.552862,190.903465 Z M146.973474,195.438512 C146.973474,193.170988 145.473791,191.728019 140.552735,191.728019 L138.552862,191.728019 L138.552862,198.014808 C138.552862,198.581906 138.763422,199.070724 139.31603,199.070724 L142.895545,199.070724 C145.631933,199.070724 146.973474,198.040902 146.973474,195.438512 L146.973474,195.438512 Z" id="Fill-29" fill="#000000"></path>
                <path d="M163.212951,199.407601 C163.114985,199.793835 162.795351,200 162.474886,200 L152,200 L152,199.432828 C152.836032,199.124015 153.204649,199.149242 153.204649,198.145381 L153.204649,185.778068 C153.204649,184.747241 152.836032,184.799435 152,184.463655 L152,184 L162.474886,184 C162.795351,184 162.893317,184.077421 162.893317,184.463655 L162.893317,186.962866 L162.352013,186.962866 L161.982565,186.112978 C161.662931,185.390964 161.074305,184.927309 160.016604,184.927309 L155.098381,184.927309 L155.098381,191.394987 L159.69697,191.394987 C160.507264,191.394987 160.630967,190.6982 160.950602,189.874409 L161.31922,189.874409 L161.31922,193.815908 L160.950602,193.815908 C160.630967,193.017344 160.507264,192.270973 159.69697,192.270973 L155.098381,192.270973 L155.098381,199.149242 L160.975509,199.097918 C162.180158,199.097918 162.130345,198.608166 162.622665,197.964443 L163.261934,197.113685 L164,197.113685 C163.605645,197.939216 163.409714,198.582939 163.212951,199.407601" id="Fill-31" fill="#000000"></path>
                <path d="M181,200 L178.499813,200 C177.75115,199.484152 176.178958,198.480291 175.740206,195.851465 C175.250964,193.377481 174.786096,192.398847 172.207561,192.398847 L170.067778,192.398847 L170.067778,198.350677 C170.067778,199.356277 170.583136,199.33018 171.383161,199.66509 L171.383161,200 L167,200 L167,199.66509 C167.876632,199.33018 168.263151,199.356277 168.263151,198.350677 L168.263151,186.061654 C168.263151,185.056054 167.876632,184.66982 167,184.33491 L167,184 L173.213904,184 C176.79704,184 178.860216,185.829392 178.860216,188.379057 C178.860216,190.338063 177.390747,191.806448 174.88882,192.477138 C177.132197,192.785081 177.339386,194.074267 177.75115,195.671397 C178.137669,197.191105 179.144012,199.277986 180.407163,199.407601 L181,199.407601 L181,200 Z M176.720433,188.379057 C176.720433,186.627086 175.868176,184.799435 173.80674,184.799435 L170.067778,184.799435 L170.067778,191.857772 L173.574307,191.857772 C176.204203,191.857772 176.720433,190.054477 176.720433,188.379057 L176.720433,188.379057 Z" id="Fill-33" fill="#000000"></path>
                <path d="M194.377158,188.680627 L194.095127,187.699498 C193.65997,186.107854 191.814662,184.76025 189.866403,184.76025 C187.612756,184.76025 186.151562,186.547955 186.38255,188.165245 C186.613538,189.85616 188.58602,190.395533 189.893222,190.812471 C191.430547,191.27739 195.606498,191.988005 195.96639,195.148958 C196.375593,198.505972 192.967871,200 190.12421,200 C187.304772,200 186.920657,198.652396 185.331425,199.166951 L184,195.319373 L184.538107,195.197766 C184.896268,195.074505 185.100437,195.148958 185.306337,195.516261 C185.485417,195.835582 185.690452,196.17724 185.869532,196.521379 C186.613538,197.941782 188.175952,199.020526 190.200341,199.020526 C191.83975,199.020526 194.172123,198.432346 193.864139,195.835582 C193.633151,193.653275 191.379504,193.188356 189.482288,192.601003 C187.637845,192.012823 184.973264,191.424642 184.563195,188.729435 C184.229258,186.720025 186.075432,184 189.866403,184 C193.146952,184 193.633151,185.470865 195.197295,185.763714 L195.530367,188.876687 L194.991395,188.974303 C194.659188,189.023112 194.453289,188.949486 194.377158,188.680627" id="Fill-35" fill="#000000"></path>
                <path d="M119,30 C119.638313,31.0240137 120.310796,32.0243568 121,33 C120.310796,32.0243568 119.647037,31.0240137 119,30" id="Fill-37" fill="#FFFFFF"></path>
                <path d="M119,30 C119.638313,31.0240137 120.310796,32.0243568 121,33 C120.310796,32.0243568 119.647037,31.0240137 119,30" id="Fill-39" fill="#000000"></path>
                <path d="M121,33 C120.310796,32.0243568 119.638313,31.0240137 119,30 C119.647037,31.0240137 120.310796,32.0243568 121,33" id="Fill-41" fill="#FFFFFF"></path>
                <path d="M106,8.63450373 L106,11 C105.923335,10.950235 105.84723,10.9046171 105.770565,10.8548521 C105.568551,10.7238043 105.367096,10.591927 105.171237,10.4608792 C105.113039,10.4243848 105.0554,10.3878905 105,10.3472491 L105,8 C105.327364,8.20818358 105.660325,8.42134365 106,8.63450373" id="Fill-43" fill="#FFFFFF"></path>
                <path d="M106,32.4978292 L106,33 C105.66648,32.8299566 105.33352,32.6678726 105,32.5057887 L105,32 C105.256855,32.1259045 105.51371,32.2568741 105.770565,32.3835022 C105.84723,32.418958 105.923335,32.4580318 106,32.4978292" id="Fill-45" fill="#FFFFFF"></path>
                <path d="M148.6885,25.418 C148.5625,25.473 148.4375,25.527 148.3115,25.582 C148.4915,25.489 148.6285,25.434 148.6885,25.418" id="Fill-47" fill="#000000"></path>
                <path d="M146.210835,59.3545677 C146.470193,59.4343548 146.739789,59.5234786 147,59.6126025 L147,116 L139,116 L139,57 C140.088621,57.3573443 141.177242,57.7053517 142.265863,58.0533592 C142.645516,58.1823766 143.025168,58.3012085 143.40482,58.4302259 C144.343287,58.729003 145.272369,59.0464537 146.210835,59.3545677" id="Fill-49" fill="#000000"></path>
                <path d="M168.997418,24.7824617 L168.997418,24.8521834 C168.916351,25.6182714 168.674014,26.3750065 168.310939,27.0416136 C166.746527,30.2369064 164.374037,31.1424377 160.941644,32.1576531 C159.961946,32.4263366 158.962412,32.2868933 158.185381,31.7699327 C157.478204,31.2920842 157.034063,30.5557554 156.953859,29.7088923 C156.842608,28.9623604 157.115129,28.1665131 157.680871,27.6095901 L157.811957,27.499906 C157.932694,27.4199812 158.569153,27.0220576 159.215098,27.1615009 C159.790326,27.2405754 160.052499,27.7286271 160.153401,27.8978296 L160.16375,27.9275889 L160.375903,28.146957 L160.375903,28.8237673 L160.356067,28.9428043 C160.294836,29.1919317 160.315534,29.2710063 160.315534,29.2710063 C160.406087,29.3211719 160.44662,29.3305248 160.880413,29.1621725 C160.991663,29.12221 161.102914,29.0822476 161.214165,29.0422852 C161.315067,29.012526 161.45564,28.9530075 161.617773,28.9028419 C164.252437,27.6487022 163.677209,25.3699943 163.647025,25.2705134 L163.606491,25.1013108 C163.263252,24.1158546 162.506056,23.3293603 161.324554,22.7018653 C160.143914,22.0752206 158.740773,22.0752206 156.902976,22.7018653 C156.246682,22.9509927 155.489486,23.2698418 154.691757,23.5980437 C153.399866,24.1252075 151.936356,24.7322961 150.50303,25.2399039 C149.917453,25.459272 149.402594,25.6582338 148.91792,25.8571956 C148.91792,25.8571956 148.907571,25.8571956 148.897222,25.8673988 C148.836853,25.877602 148.725602,25.9269173 148.564332,26.0068421 L148.553983,26.0068421 C147.908037,26.3350441 146.616147,27.271185 146.616147,29.5396898 L146.616147,55 C145.394112,54.6122795 144.172939,54.233912 142.951766,53.8555444 C142.587829,53.7365074 142.214405,53.6268234 141.850468,53.5171393 C140.740546,53.168531 139.629761,52.8309761 138.529326,52.4917207 L138.529326,33.6014017 C138.518977,33.5214769 138.518977,33.4219959 138.518977,33.3123119 C138.518977,30.963032 136.540608,31.4510836 136.147349,31.5803238 C136.137,31.5803238 136.116302,31.5803238 136.116302,31.5905269 C135.924847,31.6704518 135.742878,31.7495263 135.551423,31.8294512 C133.976662,32.5062614 132.351019,33.2026278 130.634822,33.5809953 C130.190681,33.6804763 129.736191,33.7901603 129.281701,33.9091973 C128.534853,34.0988062 127.768171,34.297768 127.020461,34.416805 C124.981723,34.7254509 123.093907,34.4567674 121.26646,34.1982871 L120.59033,34.0988062 C118.348926,33.8003635 117.712467,32.9841099 117.046686,32.1176907 L117.006153,32.0683754 C116.84402,31.9391352 116.753467,31.7996919 116.693098,31.700211 L116.662914,31.6500454 L116.562012,31.5607677 L116.531828,31.4808429 C115.905718,30.4163121 115.824651,28.9028419 116.330024,27.3502595 C116.925087,25.4992344 118.197142,23.9364489 119.671001,23.2698418 C120.327295,22.980752 120.963754,22.980752 121.468264,23.2791947 C121.942589,23.5580813 122.245295,24.0554859 122.296178,24.6829808 L122.296178,24.7527025 C122.296178,25.459272 122.22546,26.2950817 122.165091,26.9421327 C122.013307,29.0023228 122.629068,29.8185764 124.688504,30.2964249 C125.940723,30.5948676 127.343865,30.5455523 129.241167,30.1076662 C133.573054,29.1817285 137.792828,27.4301844 142.092805,25.5689561 C147.575147,23.1303985 153.925074,20.4826758 159.356534,19.2489425 C161.092565,18.8799279 162.859644,18.9198903 164.898382,19.3773324 C167.240688,19.9249025 169.078484,22.3439041 168.997418,24.7824617" id="Fill-51" fill="#000000"></path>
                <path d="M143,54 C142.669279,53.8816425 142.329937,53.7725845 142,53.6635266 C142.009404,52.2778986 142.018025,50.9421498 142.027429,49.6452899 C142.091693,39.9374396 142.165361,33 142.165361,33 C142.605016,35.7907005 142.844044,42.0949275 142.963166,49.9327295 C142.981191,51.2490338 142.990596,52.6042271 143,54" id="Fill-53" fill="#FFFFFF"></path>
                <path d="M143,63.5105062 C143,84.8926054 142.55036,109 142.55036,109 C142.025306,102.647254 141.959141,81.5459016 142.01748,63.1501578 C142.01748,61.4066192 142.025306,59.6827672 142.033844,58 C142.350441,58.130102 142.667039,58.2507888 142.983637,58.3808908 C143,60.063658 143,61.7772389 143,63.5105062" id="Fill-55" fill="#FFFFFF"></path>
                <path d="M184.392544,64.8099412 C180.500357,62.0170116 175.825791,60.0428755 171.302045,57.9579765 C171.291761,57.9477522 171.281478,57.9477522 171.272052,57.93838 C165.594018,55.6941528 159.836289,54.3275088 146.704658,50.7566826 C146.053389,50.5769059 145.371271,50.3877569 144.668586,50.1986079 C144.116722,50.0486519 143.565714,49.8893237 143.023276,49.7393678 C142.813328,49.6797262 142.602522,49.6200846 142.391717,49.5604431 C142.261463,49.520398 142.130353,49.4897252 142.000099,49.4505322 C141.950397,49.4300836 141.889555,49.4207114 141.839853,49.4002628 C140.736124,49.0909787 139.682954,48.7816945 138.67006,48.4630381 C137.316106,48.0634396 136.031565,47.6544688 134.828432,47.2557223 C134.517365,47.1560356 134.196016,47.0461247 133.884949,46.9464381 C133.854957,46.9370659 133.824964,46.9268416 133.794971,46.9166173 C132.0494,46.3287218 130.474358,45.7697951 129.039854,45.2313169 C129.009861,45.2210926 128.979868,45.2117204 128.959302,45.2014961 C128.73907,45.121406 128.517982,45.0413159 128.308033,44.9518535 C128.217199,44.9220327 128.127221,44.8922119 128.046669,44.8623912 C127.816154,44.7720768 127.585639,44.6826144 127.364551,44.593152 C127.294282,44.5633313 127.224014,44.5428827 127.164029,44.5130619 C126.94294,44.4338238 126.732992,44.3435095 126.522186,44.2634194 C126.471627,44.2438228 126.411642,44.2242263 126.36194,44.1944055 C124.866593,43.5954337 123.572625,43.037359 122.469753,42.5287016 C121.516844,42.08991 120.694189,41.7005358 120.001788,41.3418343 C119.891244,41.3810273 119.790982,41.4210724 119.680438,41.4611174 C117.774621,40.1643392 115.738549,38.9876962 113.992978,37.5315898 C105.727008,30.6395801 106.368851,21.2741491 115.497751,15.3099918 C117.012808,14.3224977 118.657261,13.424466 120.37284,12.7266596 C135.711072,6.46259044 150.95847,7.50035381 165.634294,14.0933037 C174.842889,18.2418011 178.745359,25.5828267 178.193495,34.6790186 C178.153219,35.3572285 178.193495,36.0354384 178.193495,36.7136482 C182.235645,36.6241859 185.174923,34.997675 186.178391,31.207879 C186.980479,28.1465623 187.361814,24.684795 186.539159,21.6933441 C185.75678,18.8305486 183.179127,16.3375309 181.382997,13.6647364 C187.582903,10.502029 189.086819,3.54100539 183.690716,0 C183.449918,0.459240111 183.188554,0.887807414 182.968322,1.32659899 C179.628,8.37793695 175.484732,10.0240444 167.339589,7.54039886 C166.597486,7.31120482 165.864809,7.08115875 165.132988,6.84174044 C152.322706,2.6429737 139.151656,1.69552472 125.810075,3.96957269 C118.82779,5.15643999 112.297966,7.17147313 106.6902,10.5625226 C106.439119,10.7116265 106.199178,10.8718067 105.95838,11.0209107 C102.808297,13.0257195 99.9795628,15.4897685 97.531307,18.5016679 C88.7640318,29.3232053 91.182295,41.71076 103.711503,49.0713822 C106.529954,50.7166375 109.599486,52.02364 112.669017,53.3297905 C115.387207,54.2772394 120.64363,56.1031236 126.36194,58.0380666 C126.411642,58.0576631 126.471627,58.0772597 126.522186,58.0874839 C126.732992,58.167574 126.953223,58.2374399 127.164029,58.3073057 C127.455386,58.4069924 127.756169,58.506679 128.046669,58.6063656 C128.127221,58.6361864 128.217199,58.6660072 128.308033,58.695828 C128.548831,58.7759181 128.789629,58.8551562 129.039854,58.9352463 C129.451181,59.0852022 129.872792,59.2147097 130.294403,59.3544413 C131.497536,59.7634121 132.701526,60.1621586 133.884949,60.5506809 C134.206299,60.6605918 134.517365,60.7602784 134.828432,60.8599651 C135.630521,61.1198319 136.4129,61.3788467 137.17557,61.6284893 L137.17557,61.4683091 C137.676875,61.6284893 138.17818,61.7878175 138.67006,61.9369215 C139.332468,62.147371 139.99402,62.3467443 140.656429,62.5554898 L140.686422,62.565714 L141.92983,62.944864 L142.391717,63.0845957 L143.114111,63.3035655 L146.704658,64.3907462 L154.418763,66.7150635 C154.418763,66.7150635 168.523013,71.3032045 174.923441,78.18499 C174.983426,78.2642281 175.043411,78.3340939 175.103397,78.4039597 C175.153956,78.4542291 175.194231,78.5036464 175.23365,78.5436914 C175.333911,78.6638266 175.435029,78.7831097 175.535291,78.9032449 C175.614985,79.0029315 175.695537,79.0923939 175.765805,79.1920805 C179.677702,84.0392364 180.97167,88.8863922 179.366635,94.2226089 C176.899527,102.390948 169.98751,106.839358 161.401048,109.12363 C158.31095,109.941571 155.231992,110.549916 152.152177,110.948662 C152.111901,110.948662 152.061342,110.948662 152.001357,110.958886 C150.236076,111.198305 148.470795,111.347409 146.704658,111.427499 C146.313896,111.457319 145.922278,111.467544 145.531517,111.477768 C143.344626,111.557006 141.157734,111.516961 138.991409,111.367857 C138.880865,111.357633 138.770321,111.357633 138.67006,111.347409 C137.316106,111.247722 135.981863,111.10799 134.647619,110.929066 C134.637336,110.918841 134.62791,110.918841 134.607343,110.918841 C134.346836,110.88902 134.085471,110.8592 133.824964,110.80893 C133.704137,110.798706 133.594449,110.77911 133.494188,110.768885 C128.107511,109.951796 122.78082,108.455644 117.554389,106.290655 C107.853914,102.271665 102.416678,95.0908198 101.012166,85.7748061 C100.581129,82.8924141 100.942755,79.929932 100.942755,76.8081217 C96.6092478,77.3372276 93.8602087,79.3215879 92.1352038,82.1639349 C88.002219,88.9366615 88.0622042,95.8380435 92.094928,102.740278 C87.1092954,104.874594 84.922404,108.435196 85.0020987,113.033561 C85.0329483,115.078415 85.3637242,117.202507 88.3629875,118 C88.6937634,117.311566 89.015113,116.703222 89.2661942,116.075281 C91.6536078,110.290901 95.6657652,108.246047 102.567499,109.602467 C105.707299,110.221035 108.79654,111.168484 111.825796,112.175574 C123.923967,116.164744 136.372624,118.289688 149.302877,117.750357 C161.170533,117.262149 172.334648,114.778503 181.894586,108.206002 C198.205437,96.9857178 199.579956,75.7311652 184.392544,64.8099412 M180.269842,9.27596863 C180.761721,8.82695279 181.212468,8.36771268 181.634078,7.87950381 C182.497009,6.9124583 183.219403,5.83464988 184.11147,4.62818606 C184.222014,5.38563403 184.081477,6.14393403 183.830396,6.84174044 C183.580172,7.55062313 183.198837,8.21860875 182.687248,8.79713201 C182.196226,9.37565526 181.56381,9.85449189 180.871408,10.1833726 C180.199573,10.5327018 179.417194,10.6715814 178.664808,10.6323884 C179.236381,10.123731 179.788246,9.73435672 180.269842,9.27596863 M181.142199,20.2670585 C181.824317,21.3942842 182.365899,22.600748 182.747233,23.8770777 C183.098576,25.1636316 183.288815,26.5106792 183.20912,27.8568747 C183.088293,29.1936979 182.676965,30.5202969 181.934862,31.5972533 C182.125101,30.2902508 182.196226,29.0735628 182.115674,27.8568747 C181.975137,26.6401866 181.744623,25.443095 181.403563,24.266452 C181.071931,23.0795847 180.621184,21.9225382 180.169581,20.7552674 C179.687985,19.5888486 179.186679,18.4318021 178.664808,17.2244863 C179.657992,18.0926972 180.460081,19.150057 181.142199,20.2670585 M92.1951891,107.807255 C91.7033099,108.246047 91.2619897,108.704435 90.840379,109.193496 C89.9680218,110.160541 89.2456278,111.237498 88.3629875,112.444813 C88.2524432,111.686513 88.3835539,110.938438 88.6337781,110.230407 C88.8848593,109.522376 89.2756205,108.854391 89.7777828,108.286092 C90.2688051,107.697344 90.9012212,107.218508 91.5936226,106.898999 C92.2748838,106.550522 93.05812,106.400566 93.8105066,106.440611 C93.2286495,106.959493 92.6767851,107.338643 92.1951891,107.807255 M96.5081297,95.0908198 C95.8260116,93.9738184 95.2844303,92.7562783 94.9039523,91.4799486 C94.5526101,90.2027669 94.3615141,88.8565714 94.4420658,87.5103759 C94.5620363,86.1633284 94.9733639,84.8469537 95.7257505,83.759773 C95.5252283,85.0667755 95.4549599,86.2834635 95.5457947,87.5103759 C95.6760484,88.727064 95.9065632,89.9139313 96.2476223,91.1007986 C96.5783982,92.2876659 97.0300016,93.4447124 97.4816049,94.6119832 C97.9632009,95.7681777 98.4645064,96.9354485 98.9863782,98.13254 C97.9931936,97.2643291 97.1911048,96.2171935 96.5081297,95.0908198 M184.011209,98.6309732 C187.321538,94.112698 188.043932,88.2184066 186.258085,83.2715641 C185.455997,80.7776943 183.991499,78.4440048 182.436167,76.3991509 C180.841416,74.4446113 178.705083,72.8283247 176.417931,71.4327119 C171.823059,68.6593787 166.767158,66.4756452 161.611853,64.5500744 C156.726482,62.6756249 151.730566,60.9894725 146.704658,59.3842621 C146.44415,59.2939478 146.17336,59.2044854 145.912852,59.1243953 C144.96937,58.8159631 144.037027,58.4964547 143.093545,58.1973948 C142.71221,58.0678874 142.331732,57.9477522 141.950397,57.8182448 C140.856951,57.4689156 139.763505,57.1204384 138.67006,56.7608849 C130.484642,54.1375078 122.248665,51.5345791 114.1935,48.1137089 C111.565289,46.9566624 108.907084,45.5704218 106.679917,43.5860615 C104.443324,41.6511185 102.577782,39.1870695 101.544321,36.4145884 C100.501435,33.631883 100.229787,30.6498043 100.600839,27.8270539 C100.982174,25.0043034 101.855388,22.2718674 103.22905,19.8384912 C102.276142,22.4516441 101.794546,25.2036767 101.764553,27.906292 C101.744844,30.6097593 102.256432,33.2825538 103.430429,35.6068711 C104.563294,37.9507849 106.319149,39.9249209 108.416062,41.4611174 C110.501835,43.037359 112.889249,44.1637327 115.427483,45.0915852 C120.593928,46.9464381 125.88977,48.612142 131.226745,50.1986079 C133.704137,50.9560559 136.182385,51.7143559 138.67006,52.4726559 C139.763505,52.8117608 140.867234,53.1500137 141.970106,53.4993429 C142.331732,53.6092538 142.702783,53.7191647 143.063552,53.8384479 C144.277825,54.2175979 145.491241,54.5967479 146.704658,54.9852701 C146.875187,55.0355394 147.056,55.0858088 147.226529,55.1454503 C152.533512,56.9108409 157.84992,58.7256488 163.085777,60.8599651 C168.271932,63.0547749 173.488936,65.3782402 178.233771,68.7096481 C180.590335,70.3651277 182.908337,72.2404292 184.653051,74.7538955 C185.125221,75.3716118 185.445713,76.0208529 185.797056,76.6487934 C186.127832,77.2971825 186.539159,77.8953023 186.79024,78.5931087 L187.632605,80.6081419 L188.244455,82.7126374 C188.886297,85.5558364 188.986558,88.5575115 188.194753,91.3402169 C187.432083,94.112698 186.037854,96.6960302 184.011209,98.6309732" id="Fill-57" fill="#000000"></path>
                <path d="M241,193.439453 C241.090336,193.414876 241.184082,193.403858 241.273566,193.411485 C242.203348,193.483524 243.143357,193.653874 244.068025,193.686927 C247.847662,193.819138 251.637526,194.022541 255.397561,193.997963 C262.364536,193.953045 269.313613,193.76405 276.271213,193.647941 C276.611252,193.642009 276.764653,193.418266 276.804708,193.105534 C276.899306,192.358029 276.987085,191.602049 276.999016,190.833356 C277.024583,189.139181 276.553301,187.583998 275.395973,186.288154 C275.257912,186.133907 275.02781,186 274.859069,186 C267.119975,186.027968 259.381733,186.073733 251.642639,186.107634 C251.334984,186.109329 251.148346,186.238998 251.105735,186.576308 C251.032443,187.161938 250.942107,187.748416 250.940402,188.350149 C250.938698,189.162912 251.014546,189.990083 251.058862,190.829119 C250.913983,190.829966 250.752912,190.842679 250.589284,190.829966 C248.640235,190.685889 246.691187,190.543508 244.742139,190.383328 L241.946827,192.667371 C241.882057,192.661438 241.817288,192.655505 241.753371,192.65042 C241.757632,192.701271 241.761893,192.751274 241.766154,192.802125 C241.770415,192.802972 241.774676,192.802972 241.778938,192.80382 L241,193.439453 Z" id="Fill-59" fill="#FFFFFF"></path>
                <path d="M241.778938,192.80382 L241,193.439453 C241.090336,193.414876 241.184082,193.403858 241.272713,193.411485 C242.203348,193.483524 243.142504,193.653874 244.068025,193.686927 C247.847662,193.819138 251.637526,194.022541 255.396709,193.997963 C262.364536,193.953045 269.312761,193.76405 276.27036,193.647941 C276.6104,193.642009 276.764653,193.418266 276.804708,193.105534 C276.899306,192.358029 276.987085,191.602049 276.999016,190.833356 C277.024583,189.140029 276.553301,187.583998 275.395973,186.288154 C275.257912,186.133907 275.026958,186 274.859069,186 C267.119123,186.027968 259.381733,186.073733 251.642639,186.107634 C251.334132,186.109329 251.147494,186.239846 251.105735,186.576308 C251.032443,187.161938 250.942107,187.748416 250.940402,188.350149 C250.938698,189.162912 251.014546,189.990083 251.05801,190.829119 C250.913131,190.829966 250.752912,190.842679 250.588431,190.829966 C248.640235,190.685889 246.691187,190.543508 244.742139,190.383328 L241.945974,192.667371 C242.713833,192.729239 243.481692,192.79704 244.248698,192.850433 C248.758695,193.16825 253.232899,193.169097 257.702841,193.126722 C263.211651,193.074176 268.718757,193.005528 274.226715,192.943659 C274.496019,192.941117 274.764471,192.940269 275.038889,192.985187 C264.008486,193.380975 253.013876,194.075934 241.778938,192.80382 M252.887746,192.45295 C252.462484,192.45634 252.032108,192.431763 251.602584,192.383454 C251.376744,192.358029 251.147494,192.250395 250.919096,192.180899 L250.886712,191.938511 C251.069941,191.878338 251.248057,191.795282 251.438104,191.761381 C251.812233,191.691038 251.852287,191.627474 251.683546,191.185074 C251.29493,190.17145 251.339245,189.166302 251.345211,188.167934 C251.35629,186.615293 251.369926,186.609361 252.666166,186.601733 C260.014087,186.557662 267.362008,186.521219 274.709929,186.474606 C274.959632,186.473759 275.156497,186.524609 275.320977,186.948365 L256.865952,187.049219 L256.881292,187.165328 C261.329929,187.14075 265.776009,187.10346 270.22635,187.098375 C271.907799,187.095832 273.597769,187.162785 275.285183,187.211094 C275.419836,187.214484 275.563862,187.30771 275.70448,187.359408 C275.702776,187.411954 275.700219,187.465347 275.698515,187.517893 C274.695441,187.567048 273.692367,187.615356 272.689293,187.663664 C272.690145,187.676377 272.690145,187.687395 272.69185,187.69926 C273.67447,187.734855 274.654534,187.766213 275.637154,187.813674 C275.768397,187.820454 275.908163,187.917918 276.04452,187.973006 C276.041111,188.026399 276.037702,188.079792 276.035145,188.133186 C275.434324,188.175561 274.83265,188.219632 274.230976,188.262007 C274.23268,188.276415 274.234385,188.290823 274.236089,188.304383 C274.806231,188.337436 275.377224,188.361166 275.948218,188.411169 C276.063269,188.42134 276.185138,188.528973 276.302745,188.591689 C276.29678,188.640845 276.291666,188.690001 276.285701,188.740004 C275.904754,188.778989 275.522955,188.818822 275.142861,188.858655 C275.144566,188.879843 275.144566,188.901031 275.14627,188.921371 C275.470969,188.948491 275.794817,188.961204 276.120368,189.011207 C276.22434,189.028158 276.330869,189.146809 276.436545,189.218 C276.345357,189.268003 276.260134,189.351059 276.161275,189.362077 C275.730899,189.407843 275.298819,189.433268 274.870148,189.536664 C275.410461,189.57565 275.950774,189.613788 276.572902,189.658706 C276.60273,190.340952 276.657273,190.979976 276.647898,191.606287 C276.64108,192.013939 276.416944,192.206325 276.053042,192.209715 C268.33014,192.287686 260.609795,192.373284 252.887746,192.45295" id="Fill-61" fill="#000000"></path>
                <path d="M257.291413,193.538681 C262.919197,193.479147 268.543499,193.40137 274.170413,193.331274 C274.444621,193.328394 274.719699,193.327433 275,193.378325 C263.733115,193.826745 252.502791,194.614122 241.026115,193.172839 C241.021763,193.171879 241.01741,193.171879 241.013058,193.170918 C241.008705,193.113305 241.004353,193.057613 241,193 C241.066158,193.005761 241.131446,193.011523 241.197604,193.018244 C241.981054,193.08834 242.765375,193.165157 243.548825,193.225651" id="Fill-63" fill="#FFFFFF"></path>
                <path d="M253.957048,188.726732 C253.474768,188.76697 252.990144,188.796711 252.510991,188.854444 C252.405468,188.867565 252.318705,188.980406 252.223343,189.046886 C252.327303,189.103744 252.432044,189.194717 252.535222,189.210462 C252.863516,189.260322 253.19181,189.281316 253.527921,189.357418 C253.209006,189.393282 252.888529,189.417775 252.573523,189.472883 C252.476598,189.489503 252.396088,189.589223 252.308543,189.65133 C252.407031,189.712561 252.509428,189.820154 252.604789,189.828027 C253.151946,189.877887 253.696757,189.903254 254.249385,189.979356 C253.637352,190.032715 253.0261,190.086949 252.414848,190.141183 C252.410158,190.198041 252.40625,190.254899 252.40156,190.311756 C252.509428,190.358992 252.621204,190.447341 252.7236,190.448216 C253.57013,190.454339 254.415096,190.443842 255.260843,190.438593 C255.267878,190.494577 255.274913,190.551435 255.28273,190.607418 C254.372886,190.663401 253.463043,190.719384 252.5532,190.775367 C252.550855,190.833975 252.54851,190.892582 252.546165,190.95119 C252.658723,190.994927 252.773626,191.071903 252.882276,191.075402 C253.884354,191.111267 254.88565,191.13401 255.887728,191.160252 C255.995596,191.162876 256.103464,191.159377 256.211332,191.158502 C256.218367,191.209237 256.225402,191.259972 256.231655,191.310707 C255.061522,191.317705 253.891389,191.324703 252.721256,191.3317 C252.729072,191.408677 252.736889,191.48478 252.745487,191.560882 C255.160792,191.657103 257.575315,191.753324 259.99062,191.849545 C259.993747,191.884535 259.996873,191.919524 260,191.954514 C257.527634,191.969384 255.05605,191.984255 252.589938,192 C252.053725,190.585549 251.832517,188.258747 252.139706,187 C252.146741,187.555458 252.152213,188.018195 252.158466,188.550035 C252.781443,188.599895 253.365337,188.646256 253.949231,188.693492 C253.951576,188.703989 253.953921,188.71536 253.957048,188.726732" id="Fill-65" fill="#000000"></path>
                <path d="M253.594619,195.85874 C253.369824,195.800655 253.135556,195.800655 252.917652,195.8214 C251.238154,195.98072 249.655119,195.45297 248.189219,194.02489 C248.109981,193.947718 248.02213,193.881335 247.938586,193.809972 C247.925667,193.838185 247.912747,193.866398 247.900689,193.893782 C249.135767,195.269585 250.574106,195.961635 252.211401,196.127595 C252.140776,196.188999 252.128718,196.209744 252.112354,196.210574 C252.059816,196.213064 252.004694,196.211404 251.950433,196.207255 C250.464723,196.086105 249.12457,195.428076 247.970453,194.111188 C247.8137,193.932782 247.68623,193.862249 247.507945,193.94191 C247.316741,194.027379 247.115201,194.092103 246.917968,194.165955 C246.902465,194.120316 246.885239,194.073848 246.869736,194.028209 C247.414927,193.802504 247.972176,193.597544 248.504448,193.345286 C248.999684,193.109624 249.377787,192.721279 249.593968,192.173613 C249.755028,191.766183 249.648229,191.40854 249.27271,191.067494 C248.799867,190.637659 248.275347,190.463402 247.742214,190.450125 C246.790498,190.426891 245.845673,190.441827 244.893096,190.414444 C244.796632,190.411955 244.689833,190.38955 244.585618,190.352209 L243.614955,190.381252 L243.527965,190.383741 L240.566881,190.47253 C240.692628,190.509871 240.82182,190.522318 240.960486,190.507381 C241.424717,190.459253 241.901867,190.460913 242.373849,190.440997 C242.322172,190.528956 242.254992,190.545552 242.184367,190.549701 C240.006187,190.685788 237.831452,190.8393 235.648104,190.952982 C230.849046,191.203581 225.999172,191.157112 221.039916,190.464232 C217.70159,189.997886 214.361542,189.514115 211.026662,189.094237 C210.035327,188.968938 209.053467,188.995492 208.081941,189.022875 C207.511773,189.038641 207.01223,189.270154 206.608289,189.649371 C205.470537,190.714001 205.997641,192.795131 207.61685,193.644013 C208.419564,194.06472 209.234336,194.22819 210.048246,194.342702 C219.161462,195.623078 228.178213,196.301852 236.970171,195.566652 C240.016522,195.311075 243.04737,195.007369 245.94472,194.271339 C246.051519,194.243956 246.203104,194.270509 246.317655,194.331085 C247.008402,194.695365 247.689676,195.094498 248.383007,195.448821 C249.611194,196.075317 250.849716,196.697665 252.126996,196.956561 C252.605007,197.053648 253.086463,196.966519 253.548971,196.903454 C253.711753,196.88105 253.862477,196.712601 253.94516,196.55494 C254.094162,196.273639 253.927073,195.94338 253.594619,195.85874" id="Fill-67" fill="#FFFFFF"></path>
                <path d="M248.189219,194.024913 C248.109981,193.947742 248.02213,193.881359 247.938586,193.809997 C247.925667,193.83821 247.912747,193.866423 247.900689,193.893806 C249.135767,195.269598 250.573245,195.961643 252.211401,196.127601 C252.139915,196.189006 252.128718,196.209751 252.112354,196.21058 C252.058955,196.21307 252.004694,196.21141 251.950433,196.207261 C250.464723,196.086112 249.123709,195.428088 247.970453,194.111211 C247.8137,193.932806 247.68623,193.862274 247.507945,193.941934 C247.316741,194.027402 247.115201,194.092126 246.917968,194.165977 C246.901603,194.120338 246.885239,194.07387 246.869736,194.028232 C247.414927,193.802529 247.972176,193.597571 248.503586,193.345314 C248.999684,193.109654 249.376925,192.721312 249.593968,192.17365 C249.755028,191.766223 249.648229,191.408584 249.27271,191.06754 C248.799867,190.637709 248.275347,190.463453 247.742214,190.450176 C246.790498,190.426942 245.844811,190.441878 244.893096,190.414495 C244.796632,190.412006 244.689833,190.389601 244.584757,190.352261 L243.614955,190.381303 C243.607203,190.397899 243.599452,190.413665 243.592561,190.430261 C243.571029,190.414495 243.549497,190.399559 243.527965,190.383793 L240.56602,190.47258 C240.692628,190.509921 240.820959,190.522368 240.960486,190.507431 C241.424717,190.459304 241.901867,190.460963 242.373849,190.441048 C242.322172,190.529006 242.254131,190.545602 242.184367,190.549751 C240.005326,190.685836 237.831452,190.839348 235.648104,190.953029 C230.849046,191.203626 225.998311,191.157157 221.039054,190.464282 C217.700729,189.99794 214.360681,189.514172 211.026662,189.093469 C210.035327,188.969 209.052605,188.995553 208.081941,189.022937 C207.511773,189.038703 207.01223,189.270214 206.608289,189.649428 C205.470537,190.714049 205.997641,192.795163 207.61685,193.644039 C208.418702,194.064743 209.234336,194.228211 210.048246,194.342722 C219.1606,195.623089 228.178213,196.301857 236.970171,195.566663 C240.016522,195.311088 243.046509,195.007384 245.94472,194.27136 C246.051519,194.243977 246.202243,194.270531 246.317655,194.331105 C247.008402,194.695383 247.689676,195.094512 248.383007,195.448833 C249.611194,196.075324 250.849716,196.697667 252.126996,196.956562 C252.605007,197.053647 253.086463,196.966519 253.54811,196.903455 C253.711753,196.881051 253.862477,196.712603 253.94516,196.554943 C254.094162,196.273644 253.927073,195.943388 253.594619,195.858749 C253.369824,195.800664 253.134695,195.800664 252.917652,195.821409 M208.398032,191.776181 C208.119838,191.592797 207.98031,191.210264 208.095722,190.94888 C208.214579,190.680858 208.537559,190.622772 208.81403,190.819433 C209.077582,191.006965 209.196439,191.361286 209.083611,191.62101 C208.972506,191.876585 208.658139,191.948777 208.398032,191.776181 M245.047265,192.77027 C244.781991,192.61095 244.626099,192.245842 244.709643,191.980309 C244.799216,191.697351 245.112723,191.605244 245.397807,191.77784 C245.691503,191.956245 245.83017,192.304757 245.719926,192.589375 C245.616572,192.854908 245.322014,192.934568 245.047265,192.77027 M240.15605,191.634287 C235.913379,192.019309 231.65176,192.316374 227.279897,192.130501 C224.401496,192.008522 221.49295,191.617691 218.583542,191.216902 C215.75165,190.826901 212.92148,190.459304 210.090449,190.085068 C209.904412,190.060174 209.719237,190.053536 209.535784,190.051047 C208.377361,190.036111 207.260279,190.114941 206.516994,191.046795 C206.490294,191.018582 206.462733,190.990369 206.436033,190.961327 C206.607428,190.719028 206.748678,190.442708 206.954524,190.239409 C207.523831,189.68013 208.290371,189.4843 209.112034,189.536577 C210.754497,189.639471 212.404711,189.792152 214.059232,189.9996 C217.677474,190.453495 221.309497,191.036838 224.919126,191.416052 C229.230699,191.868288 233.425138,191.666649 237.595461,191.372903 C240.47903,191.168774 243.366044,190.976263 246.257365,190.802837 C246.905048,190.763837 247.575125,190.825241 248.234867,190.841007 C248.578518,190.849305 248.890301,190.991199 249.19175,191.336392 C246.066161,191.030199 243.117995,191.366264 240.15605,191.634287" id="Fill-69" fill="#000000"></path>
                <path d="M249,191.039709 C245.856616,190.695157 242.891666,191.073415 239.912858,191.37677 C235.646033,191.811204 231.359285,192.145456 226.962532,191.935729 C224.067744,191.798096 221.143505,191.357108 218.217533,190.904884 C215.369518,190.464832 212.523236,190.05006 209.676087,189.627797 C209.488991,189.600645 209.302762,189.592219 209.118264,189.590346 C207.953246,189.572557 206.828939,189.66244 206.082288,190.713883 C206.05457,190.681113 206.027718,190.64928 206,190.61651 C206.172371,190.343116 206.315291,190.031334 206.521443,189.802882 C207.093991,189.171828 207.865762,188.950866 208.692102,189.008916 C210.343049,189.125014 212.003525,189.298226 213.6666,189.532297 C217.305441,190.044442 220.958141,190.701711 224.588321,191.129592 C228.924441,191.639865 233.142759,191.413285 237.337691,191.080905 C240.237677,190.85058 243.141128,190.634299 246.048909,190.438616 C246.699414,190.394611 247.374172,190.46296 248.037669,190.480749 C248.383277,190.491048 248.695969,190.650216 249,191.039709" id="Fill-71" fill="#FFFFFF"></path>
                <path d="M243.55,189.4705 C243.541,189.4905 243.533,189.5095 243.525,189.5295 C243.499,189.5105 243.475,189.4925 243.45,189.4735 L243.55,189.4705 Z" id="Fill-73" fill="#FFFFFF"></path>
                <path d="M208.708579,191.100206 C208.45046,190.931054 208.148919,190.981516 208.037952,191.210368 C207.930202,191.434955 208.060467,191.762597 208.320194,191.919666 C208.563035,192.066785 208.856535,192.005664 208.960265,191.786762 C209.065603,191.563596 208.954636,191.260118 208.708579,191.100206 M208.228526,191.614767 C208.140878,191.385205 208.179475,191.238086 208.359596,191.189757 C208.5365,191.142849 208.68928,191.228136 208.811505,191.480441 C208.505139,191.295654 208.335472,191.37099 208.228526,191.614767" id="Fill-75" fill="#FFFFFF"></path>
                <path d="M244.663751,192.074854 C244.397349,191.926619 244.104388,192.005725 244.021489,192.248746 C243.942615,192.476087 244.088291,192.790374 244.336986,192.926494 C244.592925,193.067602 244.86818,192.999899 244.964761,192.771845 C245.06778,192.526686 244.938201,192.227365 244.663751,192.074854 M244.21948,192.560182 C244.19131,192.53025 244.163141,192.500318 244.135776,192.470386 C244.217065,192.374175 244.274209,192.229503 244.386081,192.191019 C244.562341,192.129017 244.712041,192.25801 244.837596,192.520272 C244.526123,192.2687 244.364351,192.390567 244.21948,192.560182" id="Fill-77" fill="#FFFFFF"></path>
                <path d="M208.890251,191.61819 C208.509251,191.35819 208.299251,191.46419 208.165251,191.80719 C208.057251,191.48419 208.104251,191.27719 208.329251,191.21019 C208.549251,191.14419 208.738251,191.26319 208.890251,191.61819" id="Fill-79" fill="#000000"></path>
                <path d="M244.9365,191.714061 C244.5485,191.360061 244.3475,191.531061 244.1675,191.770061 C244.1325,191.728061 244.0985,191.686061 244.0635,191.644061 C244.1655,191.508061 244.2355,191.306061 244.3745,191.251061 C244.5945,191.165061 244.7795,191.346061 244.9365,191.714061" id="Fill-81" fill="#000000"></path>
                <path d="M37.2210624,192.80382 C37.2253236,192.802972 37.2295847,192.802972 37.2338459,192.802125 C37.2389593,192.751274 37.2423682,192.702119 37.2474816,192.651268 C37.1827121,192.655505 37.1187949,192.661438 37.0540255,192.667371 L34.2578613,190.383328 C32.308813,190.543508 30.3597646,190.685889 28.4107163,190.829966 C28.2470883,190.842679 28.0860169,190.829966 27.9419902,190.829119 C27.9854539,189.990083 28.0613023,189.162912 28.0595978,188.350149 C28.0578934,187.748416 27.9675571,187.161938 27.8942653,186.576308 C27.8525061,186.239846 27.6650157,186.109329 27.3573609,186.107634 C19.6182669,186.073733 11.8808774,186.027968 4.14093121,186 C3.97304204,186 3.74208791,186.133907 3.60402677,186.288154 C2.44669942,187.583998 1.97541664,189.140029 2.00098352,190.833356 C2.01291473,191.602049 2.10069434,192.358029 2.19529179,193.105534 C2.23534656,193.418266 2.38960006,193.642009 2.72963954,193.647941 C9.68723928,193.76405 16.6354645,193.953045 23.603291,193.997963 C27.3624743,194.022541 31.1523378,193.819138 34.9319746,193.686927 C35.8574956,193.653874 36.7966523,193.483524 37.7272866,193.411485 C37.8159185,193.403858 37.9096637,193.414876 38,193.439453 L37.2210624,192.80382 Z" id="Fill-83" fill="#FFFFFF"></path>
                <path d="M3.96111083,192.985187 C4.23552866,192.940269 4.50398087,192.941117 4.77328532,192.943659 C10.2812431,193.005528 15.7883486,193.074176 21.2971586,193.126722 C25.7671011,193.169097 30.2413047,193.16825 34.751302,192.850433 C35.5183084,192.79704 36.2861669,192.729239 37.0540255,192.667371 L34.2578613,190.383328 C32.308813,190.543508 30.3597646,190.685889 28.4115685,190.829966 C28.2479405,190.842679 28.0868692,190.829966 27.9419902,190.829119 C27.9854539,189.990083 28.0613023,189.162912 28.0595978,188.350149 C28.0578934,187.748416 27.9675571,187.161938 27.8942653,186.576308 C27.8525061,186.238998 27.6658679,186.109329 27.3573609,186.107634 C19.6182669,186.073733 11.8808774,186.027968 4.14093121,186 C3.97304204,186 3.74294014,186.133907 3.60402677,186.288154 C2.44669942,187.583998 1.97541664,189.139181 2.00098352,190.833356 C2.01291473,191.602049 2.10069434,192.358029 2.19529179,193.105534 C2.23534656,193.418266 2.38960006,193.642009 2.72963954,193.647941 C9.68723928,193.76405 16.6354645,193.953045 23.603291,193.997963 C27.3624743,194.022541 31.1523378,193.819138 34.9319746,193.686927 C35.8574956,193.653874 36.7966523,193.483524 37.7272866,193.411485 C37.8159185,193.403858 37.9096637,193.414876 38,193.439453 L37.2210624,192.80382 C25.986124,194.075934 14.9915142,193.380975 3.96111083,192.985187 M2.94781023,192.209715 C2.58305611,192.206325 2.35891981,192.013939 2.35210197,191.606287 C2.34272745,190.979128 2.39727013,190.340105 2.42709815,189.658706 C3.04922551,189.613788 3.58953887,189.57565 4.12985223,189.536664 C3.7011809,189.433268 3.26910067,189.407843 2.83872489,189.361229 C2.73986629,189.351059 2.65464336,189.268003 2.56345483,189.218 C2.66913126,189.146809 2.77565992,189.028158 2.87963189,189.011207 C3.20518347,188.960357 3.52903059,188.948491 3.85372994,188.921371 C3.8554344,188.901031 3.8554344,188.879843 3.85713886,188.858655 C3.47704461,188.818822 3.0952459,188.778989 2.71515164,188.740004 C2.70833381,188.690001 2.70322043,188.640845 2.69725483,188.591689 C2.81486247,188.528973 2.93673125,188.42134 3.0517822,188.411169 C3.62362804,188.361166 4.19376942,188.337436 4.7639108,188.304383 C4.76561526,188.289975 4.76731972,188.276415 4.76902418,188.262007 C4.16735031,188.219632 3.56567645,188.175561 2.96485482,188.133186 C2.96229813,188.079792 2.95888921,188.026399 2.9554803,187.973006 C3.09098475,187.917918 3.23160258,187.820454 3.36284589,187.813674 C4.34546623,187.765366 5.32638212,187.734855 6.30815023,187.69926 C6.30900246,187.687395 6.30985469,187.67553 6.31070692,187.663664 C5.30763307,187.615356 4.30455923,187.567048 3.30148538,187.517893 C3.29978092,187.465347 3.29807646,187.411954 3.29551977,187.359408 C3.4361376,187.30771 3.58016435,187.214484 3.71481657,187.211094 C5.40223052,187.162785 7.09220116,187.095832 8.7736495,187.098375 C13.2239907,187.10346 17.6709231,187.14075 22.1187076,187.165328 L22.1340477,187.049219 L3.67987517,186.948365 C3.84350319,186.524609 4.04122038,186.473759 4.29007133,186.474606 C11.6379921,186.521219 18.9859128,186.557662 26.3338336,186.601733 C27.6300743,186.609361 27.6437099,186.615293 27.6547889,188.167934 C27.6607545,189.166302 27.7050704,190.17145 27.3173061,191.185074 C27.1477125,191.627474 27.1877673,191.691038 27.5618959,191.761381 C27.7519431,191.795282 27.930059,191.878338 28.1132883,191.938511 L28.0809036,192.180899 C27.8533583,192.250395 27.6232564,192.358029 27.3974157,192.383454 C26.9678921,192.431763 26.5375164,192.45634 26.1122539,192.452103 C18.3902046,192.373284 10.6698596,192.287686 2.94781023,192.209715" id="Fill-85" fill="#000000"></path>
                <path d="M20.7081701,193.538681 C15.0802417,193.479147 9.45579538,193.40137 3.82873749,193.331274 C3.55452288,193.328394 3.28030827,193.327433 3,193.378325 C14.2671736,193.826745 25.4969148,194.614122 36.9738843,193.172839 C36.9782369,193.171879 36.9825895,193.171879 36.9869422,193.170918 C36.9912948,193.113305 36.9956474,193.057613 37,193 C36.9347108,193.005761 36.8685511,193.011523 36.8023914,193.018244 C36.0189211,193.08834 35.2345802,193.165157 34.4511099,193.225651" id="Fill-87" fill="#FFFFFF"></path>
                <path d="M24.0429525,188.726732 C24.5252318,188.76697 25.0098561,188.796711 25.4890089,188.854444 C25.5945319,188.867565 25.6812953,188.980406 25.7766569,189.046886 C25.6726971,189.103744 25.5679557,189.194717 25.4647777,189.210462 C25.1364838,189.260322 24.8081899,189.281316 24.4720795,189.357418 C24.7909935,189.393282 25.1114709,189.417775 25.4264767,189.472883 C25.5234016,189.489503 25.6039117,189.589223 25.6914568,189.65133 C25.592187,189.712561 25.4905722,189.820154 25.3952106,189.828027 C24.8480541,189.877887 24.3032426,189.903254 23.7506146,189.979356 C24.3618665,190.032715 24.9739001,190.086949 25.5851521,190.141183 C25.589842,190.198041 25.5937503,190.254899 25.5976585,190.311756 C25.4905722,190.358992 25.3787959,190.447341 25.2763995,190.448216 C24.4298703,190.454339 23.5849043,190.443842 22.7391568,190.438593 C22.7321219,190.494577 22.7243054,190.551435 22.7172705,190.607418 C23.6271135,190.663401 24.5369566,190.719384 25.4467997,190.775367 C25.4491446,190.833975 25.4514896,190.892582 25.4530529,190.95119 C25.3412766,190.994927 25.2263738,191.071903 25.1177241,191.075402 C24.1148645,191.111267 23.1143498,191.13401 22.1122718,191.160252 C22.0044038,191.162876 21.8965358,191.159377 21.7886678,191.158502 C21.7816329,191.209237 21.774598,191.259972 21.7683448,191.310707 C22.938478,191.317705 24.1086112,191.324703 25.2787445,191.3317 C25.2709279,191.408677 25.2631114,191.48478 25.2545132,191.560882 C22.8392082,191.657103 20.4246848,191.753324 18.0093798,191.849545 C18.0062532,191.884535 18.0031266,191.919524 18,191.954514 C20.4723656,191.969384 22.9439496,191.984255 25.410062,192 C25.9462754,190.585549 26.1674829,188.258747 25.8602936,187 C25.8532588,187.555458 25.8477872,188.018195 25.841534,188.550035 C25.2185572,188.599895 24.6346631,188.646256 24.050769,188.693492 C24.048424,188.703989 24.0452974,188.71536 24.0429525,188.726732" id="Fill-89" fill="#000000"></path>
                <path d="M25.0548398,196.555117 C25.1375228,196.712778 25.2882469,196.881225 25.4518904,196.90363 C25.913537,196.965864 26.3949932,197.053822 26.8738655,196.956736 C28.1502841,196.697012 29.3888063,196.074668 30.6169931,195.449005 C31.3103244,195.094684 31.9915978,194.694724 32.6823452,194.330446 C32.7977569,194.270701 32.9484811,194.243318 33.0552799,194.270701 C35.9534909,195.007556 38.9834778,195.311259 42.029829,195.566006 C50.8226478,196.301201 59.8393997,195.623261 68.9517538,194.342063 C69.7656644,194.227552 70.5812976,194.064912 71.3831504,193.643378 C73.0023588,192.795331 73.5294629,190.713384 72.3917105,189.648761 C71.9877697,189.270376 71.4882266,189.038034 70.9180586,189.022268 C69.9473948,188.995715 68.964673,188.969162 67.9733385,189.09363 C64.6393193,189.514335 61.2992712,189.998103 57.9600843,190.464446 C53.001689,191.156493 48.1509539,191.203791 43.3518955,190.953194 C41.1685479,190.839512 38.9946744,190.686001 36.8164945,190.549915 C36.7450082,190.544936 36.6778283,190.52834 36.6261514,190.441212 C37.0981334,190.461127 37.5752832,190.458638 38.0395137,190.507595 C38.1790412,190.521702 38.3073721,190.510085 38.4339804,190.472744 L35.4720347,190.383957 L35.3850453,190.381467 L34.4152428,190.352424 C34.3101665,190.389765 34.2033677,190.41134 34.1069042,190.414659 C33.1551885,190.442042 32.2095019,190.427106 31.2577863,190.45034 C30.7246533,190.463617 30.2001331,190.637873 29.7272898,191.067705 C29.3517712,191.407919 29.2449723,191.766389 29.4060319,192.172987 C29.6230747,192.72148 30.0003159,193.109822 30.4964138,193.344653 C31.0278242,193.59774 31.5850731,193.801868 32.130264,194.028402 C32.114761,194.07404 32.0983966,194.119679 32.0820323,194.165317 C31.8847989,194.091466 31.6832591,194.026742 31.4920547,193.942103 C31.3137695,193.862443 31.1862999,193.932976 31.0295468,194.111381 C29.8762914,195.42826 28.5352767,196.086285 27.0495668,196.206605 C26.9953061,196.211583 26.9410454,196.213243 26.887646,196.210754 C26.8712816,196.209924 26.860085,196.189179 26.7894599,196.127775 C28.4267553,195.961816 29.8642335,195.26977 31.1001718,193.893975 C31.0872526,193.865762 31.0743334,193.837549 31.0614142,193.810166 C30.9778699,193.881528 30.8900192,193.947082 30.8107814,194.025082 C29.3448809,195.453154 27.7618463,195.980901 26.0823481,195.821581 C25.8653053,195.800837 25.6310368,195.800837 25.4053812,195.858922 C25.0729267,195.943561 24.9058381,196.273818 25.0548398,196.555117" id="Fill-91" fill="#FFFFFF"></path>
                <path d="M26.0823481,195.821633 C25.864444,195.800889 25.6301755,195.800889 25.4053812,195.858972 C25.0729267,195.943607 24.9058381,196.27385 25.0548398,196.555137 C25.1375228,196.71279 25.2882469,196.880401 25.4510291,196.903634 C25.913537,196.965866 26.3949932,197.05382 26.8730042,196.956738 C28.1502841,196.697025 29.3888063,196.074709 30.6169931,195.449073 C31.3103244,195.094768 31.9915978,194.694826 32.6823452,194.330563 C32.7968956,194.270821 32.9484811,194.243439 33.0552799,194.270821 C35.9526296,195.007643 38.9834778,195.311334 42.029829,195.566069 C50.8217866,196.301232 59.8385384,195.623322 68.9517538,194.34218 C69.7656644,194.227674 70.5804364,194.065042 71.3831504,193.643526 C73.0023588,192.795516 73.5294629,190.713661 72.3917105,189.649085 C71.9877697,189.270716 71.4882266,189.038385 70.9180586,189.02262 C69.9465335,188.995238 68.964673,188.969515 67.9733385,189.093978 C64.638458,189.513835 61.2984099,189.998412 57.9600843,190.463904 C53.0008277,191.15675 48.1509539,191.204046 43.3518955,190.95346 C41.1685479,190.839783 38.9938132,190.686279 36.8156332,190.549369 C36.7450082,190.54522 36.6778283,190.528625 36.6261514,190.441501 C37.0981334,190.461415 37.5752832,190.458926 38.0395137,190.507881 C38.1781799,190.521987 38.3073721,190.510371 38.4339804,190.473032 L35.4720347,190.384248 C35.4496414,190.400013 35.4289707,190.414949 35.4065774,190.430714 C35.3996871,190.414119 35.3927969,190.398354 35.3850453,190.381758 L34.4152428,190.352717 C34.3101665,190.390056 34.2033677,190.41163 34.1069042,190.414949 C33.1543273,190.441501 32.2095019,190.427395 31.2577863,190.450628 C30.7246533,190.463904 30.2001331,190.638153 29.7272898,191.067966 C29.3517712,191.408166 29.2449723,191.76662 29.4060319,192.1732 C29.6230747,192.721668 30.0003159,193.109993 30.4955525,193.344814 C31.0278242,193.597889 31.5850731,193.802009 32.130264,194.028532 C32.114761,194.074169 32.0975354,194.119805 32.0820323,194.165442 C31.8847989,194.091594 31.6832591,194.026873 31.4920547,193.941408 C31.3137695,193.862581 31.1862999,193.933111 31.0295468,194.110678 C29.8754301,195.428329 28.5352767,196.086325 27.0495668,196.20664 C26.9953061,196.211618 26.9401841,196.213278 26.887646,196.210788 C26.8712816,196.209959 26.8592237,196.189215 26.7885986,196.127813 C28.425894,195.961862 29.8642335,195.269016 31.0993106,193.894112 C31.0872526,193.8659 31.0743334,193.837689 31.0614142,193.809477 C30.9778699,193.881666 30.8900192,193.947216 30.8107814,194.025213 M69.9163886,191.621413 C69.8035608,191.36087 69.9224176,191.006564 70.1859696,190.819869 C70.4624409,190.622387 70.7854213,190.68047 70.9042781,190.948481 C71.0196897,191.210684 70.8801622,191.593201 70.6019684,191.776577 C70.3418615,191.948336 70.0274939,191.876977 69.9163886,191.621413 M33.2800743,192.588907 C33.1698303,192.304301 33.3084966,191.955804 33.6021934,191.778236 C33.8872775,191.605647 34.2007838,191.69775 34.2894958,191.980697 C34.3739013,192.245389 34.2180094,192.611311 33.9518736,192.769794 C33.6779862,192.934085 33.383428,192.855259 33.2800743,192.588907 M29.8073889,191.335977 C30.1096986,190.990799 30.420621,190.84974 30.7651335,190.841443 C31.4248748,190.824848 32.0949515,190.764276 32.7417736,190.803274 C35.6339556,190.976693 38.5209698,191.168366 41.404539,191.372486 C45.5748621,191.667049 49.769301,191.86785 54.0808743,191.415633 C57.6905034,191.036435 61.3225258,190.453947 64.9407677,190.000071 C66.5952887,189.792632 68.2455033,189.639128 69.8871051,189.536238 C70.7087672,189.484793 71.4761687,189.680615 72.0454755,190.23987 C72.2513217,190.442331 72.3925718,190.718639 72.5639667,190.960928 C72.537267,190.989969 72.509706,191.018181 72.482145,191.047222 C71.7397207,190.115407 70.6217779,190.035751 69.4642161,190.051516 C69.2799019,190.054005 69.0955877,190.060643 68.909551,190.085536 C66.07852,190.459755 63.2483503,190.826507 60.4164581,191.216492 C57.5070505,191.617264 54.5985042,192.008079 51.7201027,192.130882 C47.3482399,192.316747 43.086621,192.019695 38.8439502,191.634689 C35.8820045,191.366678 32.9338393,191.030627 29.8073889,191.335977" id="Fill-93" fill="#000000"></path>
                <path d="M30,191.039709 C33.1433838,190.695157 36.1083335,191.073415 39.0871422,191.37677 C43.3539673,191.811204 47.6407147,192.145456 52.0366013,191.935729 C54.9313901,191.798096 57.8564954,191.357108 60.7824668,190.904884 C63.6304816,190.464832 66.4767641,190.05006 69.3239127,189.627797 C69.5110086,189.600645 69.6972383,189.592219 69.8817356,189.590346 C71.0467538,189.572557 72.1710614,189.66244 72.9177125,190.713883 C72.9454304,190.681113 72.9722821,190.64928 73,190.61651 C72.8276293,190.343116 72.6847088,190.031334 72.4785569,189.802882 C71.9060089,189.171828 71.1342385,188.950866 70.3078984,189.008916 C68.6569506,189.125014 66.9964748,189.298226 65.3334005,189.532297 C61.6945592,190.044442 58.0418589,190.701711 54.4116794,191.129592 C50.0755595,191.639865 45.8572407,191.413285 41.6623089,191.080905 C38.762323,190.85058 35.8588723,190.634299 32.9510908,190.438616 C32.3005862,190.394611 31.6258284,190.46296 30.962331,190.480749 C30.6167234,190.491048 30.3040308,190.650216 30,191.039709" id="Fill-95" fill="#FFFFFF"></path>
                <path d="M35.4495,189.4705 C35.4585,189.4905 35.4665,189.5095 35.4745,189.5295 C35.5005,189.5105 35.5245,189.4925 35.5505,189.4735 L35.4495,189.4705 Z" id="Fill-97" fill="#FFFFFF"></path>
                <path d="M70.039735,191.78644 C70.1434651,192.005351 70.4369648,192.067186 70.6798057,191.91935 C70.9395329,191.762275 71.0697985,191.43462 70.9620479,191.210734 C70.8510809,190.981162 70.5495401,190.93141 70.2914211,191.099857 C70.0453638,191.260486 69.9343968,191.563976 70.039735,191.78644 M70.1892993,191.480108 C70.3115238,191.227792 70.4635004,191.143213 70.6404044,191.190122 C70.8205247,191.238453 70.859122,191.385578 70.7714741,191.61515 C70.6645276,191.370652 70.4948607,191.296024 70.1892993,191.480108" id="Fill-99" fill="#FFFFFF"></path>
                <path d="M33.035239,192.771379 C33.1318197,192.999389 33.4070749,193.067792 33.6630139,192.926711 C33.9117093,192.789905 34.0573853,192.476391 33.978511,192.248381 C33.8956125,192.005408 33.6026509,191.927029 33.336249,192.074523 C33.0617987,192.227717 32.9322195,192.526981 33.035239,192.771379 M33.1615988,192.519855 C33.2879586,192.258356 33.4376588,192.129388 33.6139186,192.190666 C33.7257913,192.229855 33.782935,192.373786 33.8642238,192.469978 C33.8368592,192.500617 33.8086898,192.530543 33.7805204,192.559757 C33.6356493,192.390175 33.4738765,192.269044 33.1615988,192.519855" id="Fill-101" fill="#FFFFFF"></path>
                <path d="M70.109749,191.61819 C70.490749,191.35819 70.700749,191.46419 70.834749,191.80719 C70.942749,191.48419 70.895749,191.27719 70.670749,191.21019 C70.450749,191.14419 70.261749,191.26319 70.109749,191.61819" id="Fill-103" fill="#000000"></path>
                <path d="M33.0635,191.714061 C33.4515,191.360061 33.6525,191.531061 33.8325,191.770061 C33.8675,191.728061 33.9015,191.686061 33.9365,191.644061 C33.8345,191.508061 33.7645,191.306061 33.6255,191.251061 C33.4055,191.165061 33.2205,191.346061 33.0635,191.714061" id="Fill-105" fill="#000000"></path>
            </g>
        </g>
    </g>
</svg>