<?xml version="1.0" encoding="UTF-8"?>
<svg width="80px" height="150px" viewBox="0 0 80 150" version="1.1" xmlns="http://www.w3.org/2000/svg" xmlns:xlink="http://www.w3.org/1999/xlink">
    <!-- Generator: Sketch 53.2 (72643) - https://sketchapp.com -->
    <title>logo-white</title>
    <desc>Created with Sketch.</desc>
    <g id="Page-1" stroke="none" stroke-width="1" fill="none" fill-rule="evenodd">
        <g id="Desktop-HD" transform="translate(-327.000000, -662.000000)">
            <g id="logo-white" transform="translate(327.000000, 662.000000)">
                <path d="M7.19707059,96.9384712 C7.15984037,96.8758813 7.11937275,96.8105935 7.07566771,96.7426079 C7.03196268,96.6740827 6.99149505,96.608795 6.95426484,96.546205 C6.66775404,96.0983633 6.30354541,95.6996223 5.8621785,95.3516007 C5.4208116,95.0035791 4.91955261,94.828759 4.35948066,94.828759 C4.0605598,94.828759 3.78322167,94.8821763 3.52854541,94.9873921 C3.27386915,95.0931475 3.05264613,95.2366727 2.86595548,95.4168885 C2.67872527,95.5971043 2.53250225,95.8118525 2.42674685,96.0611331 C2.32153102,96.3104137 2.26811376,96.5775 2.26811376,96.8640108 C2.26811376,97.2622122 2.54167491,97.6598741 3.08987635,98.0586151 C3.63753822,98.4573561 4.36595548,98.7935072 5.27404901,99.0670683 C6.18214253,99.3400899 6.9105598,99.7695863 7.45822167,100.355018 C8.00642311,100.94045 8.27998426,101.587392 8.27998426,102.296385 C8.27998426,102.794406 8.18394109,103.248723 7.99023606,103.659335 C7.79707059,104.070486 7.52674685,104.418507 7.1781857,104.705018 C6.83016412,104.991529 6.41037994,105.21545 5.91829361,105.37732 C5.42620728,105.538651 4.88178282,105.619586 4.28448066,105.619586 C3.62458858,105.619586 2.96577563,105.538651 2.30588354,105.37732 C1.64545189,105.21545 1.09886915,105.003939 0.662897929,104.742248 L0.681243253,102.949802 L0.924049008,102.949802 C0.961279224,103.012392 1.00174685,103.074442 1.04545189,103.137032 C1.08915692,103.199622 1.12962455,103.261133 1.16685476,103.323183 C1.49059577,103.846025 1.93897707,104.263651 2.51091951,104.574442 C3.08340153,104.885234 3.67476843,105.041169 4.28448066,105.041169 C4.99401304,105.041169 5.56325764,104.879838 5.99275404,104.555558 C6.42225045,104.231817 6.63699865,103.796924 6.63699865,103.248723 C6.63699865,103.024802 6.56199865,102.797644 6.41307778,102.567248 C6.26361735,102.336853 6.05156699,102.116169 5.77800584,101.904658 C5.50444469,101.692608 5.17800584,101.494047 4.79814973,101.307356 C4.41829361,101.120126 3.99257419,100.958795 3.51937275,100.821745 C2.66037994,100.560594 1.9724303,100.15268 1.4560634,99.5990827 C0.940236058,99.0454856 0.681243253,98.4384712 0.681243253,97.7785791 C0.681243253,97.2557374 0.774588576,96.7771403 0.961279224,96.3411691 C1.14796987,95.9051978 1.41235836,95.5355935 1.75498426,95.2301978 C2.09761016,94.9248022 2.50822167,94.6890108 2.98735836,94.5206655 C3.46595548,94.3528597 3.99796987,94.2686871 4.58340153,94.2686871 C5.01937275,94.2686871 5.49796987,94.3501619 6.0208116,94.5114928 C6.54365332,94.6728237 7.02279002,94.8848741 7.45822167,95.1460252 L7.43987635,96.9384712 L7.19707059,96.9384712 Z" id="Fill-202" fill="#FFFFFF"></path>
                <path d="M25.8291749,94.6421223 C25.6548943,94.6421223 25.5146066,94.667482 25.4088512,94.7165827 C25.3036353,94.766223 25.1914051,94.9102878 25.0732397,95.1460791 C24.9545346,95.3824101 24.8147864,95.7439209 24.6529159,96.2289928 C24.491585,96.7146043 24.2730598,97.398777 23.9994986,98.2825899 C23.6007576,99.5397842 23.1993188,100.793741 22.7951821,102.04446 C22.3910454,103.29518 21.9901461,104.549137 21.5914051,105.806331 L21.0124483,105.806331 L17.4464411,97.6852878 L14.7766569,105.806331 L14.1982397,105.806331 L11.2111893,98.2825899 L11.1923044,98.2825899 C10.8442828,97.4117266 10.5734195,96.7329496 10.380254,96.2478777 C10.1870886,95.7622662 10.0284555,95.4007554 9.90435476,95.164964 C9.77971448,94.9286331 9.67072167,94.7824101 9.57737635,94.726295 C9.48403102,94.6701799 9.36910296,94.6421223 9.23205261,94.6421223 L9.23205261,94.3620863 L12.9658656,94.3620863 L12.9658656,94.6421223 C12.791585,94.6421223 12.6669447,94.6701799 12.5924843,94.726295 C12.5180238,94.7824101 12.5056138,94.9286331 12.555254,95.164964 C12.6043548,95.4007554 12.7138871,95.7622662 12.8816929,96.2478777 C13.0500382,96.7329496 13.2896066,97.4117266 13.6003979,98.2825899 L15.2061533,102.725935 L14.1982397,105.806331 L18.0442828,94.1753957 L18.6043548,94.1753957 L22.0392468,102.502014 L23.7011174,97.162446 C23.8753979,96.5770144 24.0059735,96.1167626 24.092844,95.7811511 C24.1797145,95.445 24.2234195,95.1930216 24.2234195,95.0246763 C24.2234195,94.8568705 24.1834915,94.7511151 24.1025562,94.7074101 C24.0210814,94.663705 23.9061533,94.6421223 23.7566929,94.6421223 L23.6261174,94.6421223 L23.6261174,94.3620863 L25.8291749,94.3620863 L25.8291749,94.6421223 Z" id="Fill-204" fill="#FFFFFF"></path>
                <path d="M33.4463692,100.597662 L33.3719087,100.485432 C33.2969087,100.348381 33.2100382,100.243165 33.1102181,100.168165 C33.0103979,100.093705 32.8366569,100.031115 32.5873763,99.9814748 C32.3386353,99.9323741 31.9873763,99.8973022 31.5325202,99.8789568 C31.0782037,99.8600719 30.4593188,99.8508993 29.675326,99.8508993 L29.675326,104.947662 C30.6713692,104.947662 31.4645346,104.938489 32.055362,104.919604 C32.6461893,104.901259 33.1166929,104.860791 33.465254,104.798201 C33.8132756,104.735612 34.0841389,104.636871 34.2773044,104.49982 C34.4704699,104.36223 34.6663332,104.17554 34.8654339,103.939748 L35.0332397,103.753058 L35.2388152,103.753058 C35.2010454,103.976978 35.1611174,104.226259 35.1174123,104.49982 C35.0731677,104.773381 35.0332397,105.022122 34.9960094,105.246583 L34.9771245,105.246583 L34.9210094,105.526619 L26.706621,105.526619 L26.706621,105.246583 C26.8814411,105.246583 27.0120166,105.221223 27.0988871,105.171583 C27.1857576,105.121942 27.247808,104.978417 27.2855778,104.742086 C27.322808,104.506295 27.3443907,104.142086 27.3508656,103.65 C27.3573404,103.158453 27.3600382,102.476978 27.3600382,101.605576 L27.3600382,98.2823741 C27.3600382,97.4115108 27.3573404,96.7305755 27.3508656,96.2384892 C27.3443907,95.7464029 27.322808,95.3821942 27.2855778,95.1464029 C27.247808,94.9100719 27.1857576,94.7660072 27.0988871,94.7169065 C27.0120166,94.6672662 26.8814411,94.6419065 26.706621,94.6419065 L26.706621,94.3618705 L34.9587792,94.3618705 L34.9587792,96.1354317 L34.7532037,96.1354317 L34.6226281,95.9492806 C34.4612972,95.7129496 34.2988871,95.526259 34.1370166,95.3886691 C33.9756857,95.2516187 33.729103,95.1528777 33.3999663,95.0902878 C33.07029,95.0276978 32.6154339,94.9877698 32.0370166,94.9688849 C31.4580598,94.95 30.6713692,94.9408273 29.675326,94.9408273 L29.675326,99.2908273 C30.4593188,99.2908273 31.0782037,99.2816547 31.5325202,99.2627698 C31.9873763,99.2438849 32.3386353,99.2163669 32.5873763,99.1785971 C32.8366569,99.1413669 33.0103979,99.0852518 33.1102181,99.0107914 C33.2100382,98.9363309 33.2969087,98.8429856 33.3719087,98.7307554 L33.4463692,98.6374101 L33.67029,98.6374101 L33.67029,100.597662 L33.4463692,100.597662 Z" id="Fill-206" fill="#FFFFFF"></path>
                <path d="M43.7705778,100.597662 L43.6961174,100.485432 C43.6211174,100.348381 43.5342468,100.243165 43.4344267,100.168165 C43.3346066,100.093705 43.1608656,100.031115 42.911585,99.9814748 C42.662844,99.9323741 42.311585,99.8973022 41.8567289,99.8789568 C41.4024123,99.8600719 40.7835274,99.8508993 39.9989951,99.8508993 L39.9989951,104.947662 C40.9950382,104.947662 41.7887433,104.938489 42.3795706,104.919604 C42.9703979,104.901259 43.4409015,104.860791 43.7894627,104.798201 C44.1374843,104.735612 44.4083476,104.636871 44.601513,104.49982 C44.7946785,104.36223 44.9905418,104.17554 45.1896425,103.939748 L45.3574483,103.753058 L45.5630238,103.753058 C45.525254,103.976978 45.485326,104.226259 45.441621,104.49982 C45.3973763,104.773381 45.3574483,105.022122 45.3202181,105.246583 L45.3013332,105.246583 L45.2452181,105.526619 L37.0308296,105.526619 L37.0308296,105.246583 C37.2056497,105.246583 37.3362253,105.221223 37.4230958,105.171583 C37.5094267,105.121942 37.5720166,104.978417 37.6097864,104.742086 C37.6470166,104.506295 37.6685994,104.142086 37.6750742,103.65 C37.681549,103.158453 37.6842468,102.476978 37.6842468,101.605576 L37.6842468,98.2823741 C37.6842468,97.4115108 37.681549,96.7305755 37.6750742,96.2384892 C37.6685994,95.7464029 37.6470166,95.3821942 37.6097864,95.1464029 C37.5720166,94.9100719 37.5094267,94.7660072 37.4230958,94.7169065 C37.3362253,94.6672662 37.2056497,94.6419065 37.0308296,94.6419065 L37.0308296,94.3618705 L45.2829879,94.3618705 L45.2829879,96.1354317 L45.0774123,96.1354317 L44.9468368,95.9492806 C44.7855058,95.7129496 44.6230958,95.526259 44.4612253,95.3886691 C44.2998943,95.2516187 44.0533116,95.1528777 43.7241749,95.0902878 C43.3944986,95.0276978 42.9396425,94.9877698 42.3612253,94.9688849 C41.7822684,94.95 40.9950382,94.9408273 39.9989951,94.9408273 L39.9989951,99.2908273 C40.7835274,99.2908273 41.4024123,99.2816547 41.8567289,99.2627698 C42.311585,99.2438849 42.662844,99.2163669 42.911585,99.1785971 C43.1608656,99.1413669 43.3346066,99.0852518 43.4344267,99.0107914 C43.5342468,98.9363309 43.6211174,98.8429856 43.6961174,98.7307554 L43.7705778,98.6374101 L43.9944986,98.6374101 L43.9944986,100.597662 L43.7705778,100.597662 Z" id="Fill-208" fill="#FFFFFF"></path>
                <path d="M47.317862,94.3620324 L50.0248763,94.3620324 L56.1112073,102.259155 L56.1112073,98.282536 C56.1112073,97.4116727 56.1085094,96.7301978 56.1020346,96.2381115 C56.0955598,95.7465647 56.0739771,95.3823561 56.0362073,95.1460252 C55.9989771,94.9102338 55.9363871,94.7661691 55.8500562,94.7165288 C55.7631857,94.6674281 55.6320706,94.6420683 55.45779,94.6420683 L55.45779,94.3620324 L57.455272,94.3620324 L57.455272,94.6420683 C57.2939411,94.6420683 57.1687612,94.6674281 57.0818907,94.7165288 C56.9950202,94.7661691 56.9297325,94.9102338 56.8860274,95.1460252 C56.8423224,95.3823561 56.8175022,95.7465647 56.8110274,96.2381115 C56.8045526,96.7301978 56.8018548,97.4116727 56.8018548,98.282536 L56.8018548,105.899622 L56.0550922,105.899622 C54.8227181,104.294406 53.5935814,102.700522 52.3676821,101.120126 C51.1423224,99.5397302 49.9061713,97.9463849 48.6619267,96.3411691 L48.6619267,101.605737 C48.6619267,102.476601 48.6646245,103.158076 48.6716389,103.650162 C48.6781138,104.142248 48.7023943,104.505917 48.7460994,104.742248 C48.7898044,104.978579 48.8550922,105.122104 48.9419627,105.171745 C49.0288332,105.220845 49.154013,105.246205 49.315344,105.246205 L49.315344,105.526241 L47.317862,105.526241 L47.317862,105.246205 C47.4921425,105.246205 47.6232576,105.220845 47.7101281,105.171745 C47.7964591,105.122104 47.859049,104.978579 47.8968188,104.742248 C47.934049,104.505917 47.9556317,104.142248 47.9621066,103.650162 C47.9685814,103.158076 47.9712792,102.476601 47.9712792,101.605737 L47.9712792,98.282536 C47.9712792,97.4116727 47.9685814,96.7301978 47.9621066,96.2381115 C47.9556317,95.7465647 47.934049,95.3823561 47.8968188,95.1460252 C47.859049,94.9102338 47.7964591,94.7661691 47.7101281,94.7165288 C47.6232576,94.6674281 47.4921425,94.6420683 47.317862,94.6420683 L47.317862,94.3620324 Z" id="Fill-210" fill="#FFFFFF"></path>
                <path d="M65.5952001,100.597662 L65.5207397,100.485432 C65.4457397,100.348381 65.3588692,100.243165 65.259049,100.168165 C65.1592289,100.093705 64.9854879,100.031115 64.7362073,99.9814748 C64.4874663,99.9323741 64.1362073,99.8973022 63.6813512,99.8789568 C63.2270346,99.8600719 62.6081497,99.8508993 61.8241569,99.8508993 L61.8241569,104.947662 C62.8202001,104.947662 63.6133656,104.938489 64.2041929,104.919604 C64.7950202,104.901259 65.2655238,104.860791 65.614085,104.798201 C65.9621066,104.735612 66.2329699,104.636871 66.4261353,104.49982 C66.6193008,104.36223 66.8151641,104.17554 67.0142648,103.939748 L67.1820706,103.753058 L67.3876461,103.753058 C67.3498763,103.976978 67.3099483,104.226259 67.2662433,104.49982 C67.2225382,104.773381 67.1820706,105.022122 67.1448404,105.246583 L67.1259555,105.246583 L67.0703799,105.526619 L58.8554519,105.526619 L58.8554519,105.246583 C59.030272,105.246583 59.1608476,105.221223 59.2477181,105.171583 C59.3345886,105.121942 59.3971785,104.978417 59.4344087,104.742086 C59.4716389,104.506295 59.4932217,104.142086 59.4996965,103.65 C59.5061713,103.158453 59.5088692,102.476978 59.5088692,101.605576 L59.5088692,98.2823741 C59.5088692,97.4115108 59.5061713,96.7305755 59.4996965,96.2384892 C59.4932217,95.7464029 59.4716389,95.3821942 59.4344087,95.1464029 C59.3971785,94.9100719 59.3345886,94.7660072 59.2477181,94.7169065 C59.1608476,94.6672662 59.030272,94.6419065 58.8554519,94.6419065 L58.8554519,94.3618705 L67.1076102,94.3618705 L67.1076102,96.1354317 L66.9020346,96.1354317 L66.7714591,95.9492806 C66.6101281,95.7129496 66.4477181,95.526259 66.2858476,95.3886691 C66.1245166,95.2516187 65.8779339,95.1528777 65.5487972,95.0902878 C65.219121,95.0276978 64.7642648,94.9877698 64.1858476,94.9688849 C63.6068907,94.95 62.8202001,94.9408273 61.8241569,94.9408273 L61.8241569,99.2908273 C62.6081497,99.2908273 63.2270346,99.2816547 63.6813512,99.2627698 C64.1362073,99.2438849 64.4874663,99.2163669 64.7362073,99.1785971 C64.9854879,99.1413669 65.1592289,99.0852518 65.259049,99.0107914 C65.3588692,98.9363309 65.4457397,98.8429856 65.5207397,98.7307554 L65.5952001,98.6374101 L65.819121,98.6374101 L65.819121,100.597662 L65.5952001,100.597662 Z" id="Fill-212" fill="#FFFFFF"></path>
                <path d="M72.1482576,105.246421 C72.3225382,105.246421 72.4536533,105.221061 72.5405238,105.17196 C72.6268548,105.12232 72.6894447,104.978255 72.7272145,104.742464 C72.7644447,104.506133 72.7860274,104.141924 72.7925022,103.650378 C72.7989771,103.158291 72.8016749,102.476817 72.8016749,101.605953 L72.8016749,100.616385 L71.3453799,98.2827518 L71.3270346,98.2827518 C70.7917828,97.4118885 70.3682217,96.7331115 70.0574303,96.2475 C69.7466389,95.7624281 69.5038332,95.4009173 69.329013,95.1645863 C69.1547325,94.928795 69.0182217,94.7820324 68.9184015,94.7259173 C68.8185814,94.6703417 68.7009555,94.6422842 68.5639051,94.6422842 L68.5639051,94.3622482 L72.4282936,94.3622482 L72.4282936,94.6422842 C72.2912433,94.6422842 72.1919627,94.6579317 72.1293727,94.6886871 C72.0667828,94.7194424 72.0549123,94.7976799 72.0921425,94.9223201 C72.1293727,95.0464209 72.2162433,95.2368885 72.3538332,95.4915647 C72.4908835,95.746241 72.6959195,96.105054 72.9694807,96.5653058 L74.7619267,99.5334712 L76.7221785,96.6958813 C77.0459195,96.2226799 77.2887253,95.848759 77.4505958,95.5757374 C77.6119267,95.3021763 77.7144447,95.0966007 77.7581497,94.9595504 C77.8023943,94.8225 77.7959195,94.7356295 77.7398044,94.6978597 C77.6836893,94.6606295 77.5930418,94.6422842 77.4689411,94.6422842 L77.3572504,94.6422842 L77.3572504,94.3622482 L79.3919627,94.3622482 L79.3919627,94.6422842 C79.2425022,94.6422842 79.1119267,94.6703417 78.9996965,94.7259173 C78.8880058,94.7820324 78.7293727,94.928795 78.5237972,95.1645863 C78.3187612,95.4009173 78.0452001,95.7624281 77.7025742,96.2475 C77.3599483,96.7331115 76.8835094,97.4118885 76.2743368,98.2827518 L76.2554519,98.2827518 L75.0980778,99.9257374 L75.0980778,101.605953 C75.0980778,102.476817 75.1007756,103.158291 75.1072504,103.650378 C75.1137253,104.141924 75.1380058,104.506133 75.1822504,104.742464 C75.2259555,104.978255 75.2912433,105.12232 75.3781138,105.17196 C75.4649843,105.221061 75.5901641,105.246421 75.7514951,105.246421 L75.7514951,105.526457 L72.1482576,105.526457 L72.1482576,105.246421 Z" id="Fill-214" fill="#FFFFFF"></path>
                <path d="M6.86653102,130.355612 C7.13901304,130.355612 7.34296987,130.316223 7.47840153,130.239065 C7.61383318,130.161906 7.71095548,129.937446 7.76976843,129.568921 C7.82750225,129.200396 7.86149505,128.63277 7.87174685,127.864964 C7.88199865,127.097158 7.88577563,126.034209 7.88577563,124.675036 L7.88577563,114.275396 C6.72084757,114.275396 5.79279002,114.300216 5.10430081,114.348237 C4.41527203,114.396799 3.86167491,114.479353 3.44350944,114.595899 C3.02588354,114.712446 2.6908116,114.88295 2.43883318,115.105791 C2.18685476,115.328633 1.91437275,115.634568 1.62300584,116.023597 L1.38991232,116.344101 L1.04027203,116.344101 C1.07966052,115.955072 1.11311376,115.538525 1.14225045,115.091223 C1.17138714,114.643921 1.20484037,114.227374 1.24422886,113.838885 L1.21509217,113.838885 L1.24422886,113.372698 L18.0231857,113.372698 L18.0523224,113.809209 C18.0917109,114.198777 18.1251641,114.620719 18.1543008,115.076655 C18.1834375,115.53259 18.2168907,115.955072 18.2562792,116.344101 L17.9066389,116.344101 L17.674085,116.023597 C17.3827181,115.634568 17.1161713,115.328633 16.872826,115.105791 C16.6294807,114.88295 16.300344,114.712446 15.8821785,114.595899 C15.4645526,114.479353 14.9109555,114.396799 14.2219267,114.348237 C13.5328979,114.300216 12.6156317,114.275396 11.469049,114.275396 L11.469049,124.675036 C11.469049,126.034209 11.4733656,127.097158 11.4836174,127.864964 C11.4938692,128.63277 11.5316389,129.200396 11.6001641,129.568921 C11.6686893,129.937446 11.7706677,130.161906 11.9060994,130.239065 C12.041531,130.316223 12.2368548,130.355612 12.4888332,130.355612 L12.4888332,130.792662 L6.86653102,130.792662 L6.86653102,130.355612 Z" id="Fill-216" fill="#FFFFFF"></path>
                <path d="M20.2519267,118.674227 C20.6495886,117.606421 21.2420346,116.668651 22.0287253,115.863076 C22.8154159,115.05804 23.7958116,114.417032 24.9709915,113.940594 C26.1467109,113.464155 27.5096605,113.226745 29.0636174,113.226745 C30.6181138,113.226745 31.9767468,113.464155 33.1422145,113.940594 C34.3071425,114.417032 35.2832217,115.05804 36.0693727,115.863076 C36.8560634,116.668651 37.449049,117.606421 37.8467109,118.674227 C38.2443727,119.742032 38.444013,120.877824 38.444013,122.08268 C38.444013,123.266493 38.2443727,124.398507 37.8467109,125.476025 C37.449049,126.554083 36.8560634,127.496709 36.0693727,128.301745 C35.2832217,129.10732 34.3071425,129.748327 33.1422145,130.224227 C31.9767468,130.700665 30.6181138,130.938076 29.0636174,130.938076 C27.5096605,130.938076 26.1467109,130.700665 24.9709915,130.224227 C23.7958116,129.748327 22.8154159,129.10732 22.0287253,128.301745 C21.2420346,127.496709 20.6495886,126.554083 20.2519267,125.476025 C19.8542648,124.398507 19.6546245,123.266493 19.6546245,122.08268 C19.6546245,120.877824 19.8542648,119.742032 20.2519267,118.674227 M23.9657756,125.126385 C24.1988692,126.087896 24.5441929,126.93286 25.0001281,127.661277 C25.4560634,128.389155 26.0242289,128.967572 26.704085,129.394371 C27.3844807,129.821169 28.1711713,130.035378 29.0636174,130.035378 C29.956603,130.035378 30.7432936,129.821169 31.4231497,129.394371 C32.1035454,128.967572 32.6657756,128.389155 33.1130778,127.661277 C33.5598404,126.93286 33.8992289,126.087896 34.1323224,125.126385 C34.3654159,124.165414 34.4819627,123.149946 34.4819627,122.08268 C34.4819627,121.014874 34.3654159,119.999946 34.1323224,119.038435 C33.8992289,118.076924 33.5598404,117.2325 33.1130778,116.504083 C32.6657756,115.775665 32.1035454,115.197788 31.4231497,114.770989 C30.7432936,114.344191 29.956603,114.129982 29.0636174,114.129982 C28.1711713,114.129982 27.3844807,114.344191 26.704085,114.770989 C26.0242289,115.197788 25.4560634,115.775665 25.0001281,116.504083 C24.5441929,117.2325 24.1988692,118.076924 23.9657756,119.038435 C23.7326821,119.999946 23.6161353,121.014874 23.6161353,122.08268 C23.6161353,123.149946 23.7326821,124.165414 23.9657756,125.126385" id="Fill-218" fill="#FFFFFF"></path>
                <path d="M40.9198224,113.372644 L48.2606497,113.372644 C49.834031,113.372644 51.2714411,113.580917 52.5718008,113.999083 C53.8727001,114.417248 54.98529,115.008076 55.9074123,115.775881 C56.8295346,116.543147 57.542844,117.460953 58.0484195,118.528759 C58.5539951,119.596565 58.8059735,120.781996 58.8059735,122.082356 C58.8059735,123.383255 58.5771965,124.568687 58.1212612,125.636493 C57.665326,126.704299 57.0146066,127.621565 56.1696425,128.389371 C55.3246785,129.156637 54.3097504,129.748004 53.1253979,130.166169 C51.941585,130.584335 50.6304339,130.792608 49.1930238,130.792608 L40.9198224,130.792608 L40.9198224,130.355558 C41.1923044,130.355558 41.3962612,130.316169 41.5316929,130.239011 C41.6671245,130.161853 41.7647864,129.937392 41.8230598,129.569406 C41.8807936,129.200342 41.9147864,128.632716 41.9250382,127.86491 C41.93529,127.097644 41.9396066,126.034155 41.9396066,124.675522 L41.9396066,119.48973 C41.9396066,118.131097 41.93529,117.067608 41.9250382,116.300342 C41.9147864,115.532536 41.8807936,114.96491 41.8230598,114.595845 C41.7647864,114.22732 41.6671245,114.003399 41.5316929,113.926241 C41.3962612,113.849083 41.1923044,113.809694 40.9198224,113.809694 L40.9198224,113.372644 Z M45.5223404,114.275881 L45.5223404,129.889371 L49.1930238,129.889371 C50.1059735,129.889371 50.9304339,129.704838 51.669103,129.336313 C52.4072325,128.967788 53.0379879,128.437392 53.5624483,127.748363 C54.0869087,127.059335 54.4942828,126.233795 54.7856497,125.272284 C55.0770166,124.310773 55.2227001,123.247824 55.2227001,122.082356 C55.2227001,120.917428 55.0581317,119.853939 54.7273763,118.892968 C54.3971605,117.931457 53.9266569,117.105917 53.3147864,116.416888 C52.7029159,115.72786 51.9701821,115.198004 51.1155058,114.828939 C50.26029,114.460414 49.3095706,114.275881 48.2606497,114.275881 L45.5223404,114.275881 Z" id="Fill-220" fill="#FFFFFF"></path>
                <path d="M61.2819447,113.372644 L68.622772,113.372644 C70.1956138,113.372644 71.6335634,113.580917 72.9339231,113.999083 C74.2348224,114.417248 75.3474123,115.008076 76.2695346,115.775881 C77.1916569,116.543147 77.9049663,117.460953 78.4105418,118.528759 C78.9161174,119.596565 79.1680958,120.781996 79.1680958,122.082356 C79.1680958,123.383255 78.9393188,124.568687 78.4833835,125.636493 C78.0274483,126.704299 77.3767289,127.621565 76.5317648,128.389371 C75.6868008,129.156637 74.6718727,129.748004 73.4875202,130.166169 C72.3037073,130.584335 70.9925562,130.792608 69.5551461,130.792608 L61.2819447,130.792608 L61.2819447,130.355558 C61.5544267,130.355558 61.7583835,130.316169 61.8938152,130.239011 C62.0292468,130.161853 62.1269087,129.937392 62.1851821,129.569406 C62.2429159,129.200342 62.2769087,128.632716 62.2871605,127.86491 C62.2974123,127.097644 62.3011893,126.034155 62.3011893,124.675522 L62.3011893,119.48973 C62.3011893,118.131097 62.2974123,117.067608 62.2871605,116.300342 C62.2769087,115.532536 62.2429159,114.96491 62.1851821,114.595845 C62.1269087,114.22732 62.0292468,114.003399 61.8938152,113.926241 C61.7583835,113.849083 61.5544267,113.809694 61.2819447,113.809694 L61.2819447,113.372644 Z M65.8844627,114.275881 L65.8844627,129.889371 L69.5551461,129.889371 C70.4680958,129.889371 71.2925562,129.704838 72.0312253,129.336313 C72.7693548,128.967788 73.4001102,128.437392 73.9245706,127.748363 C74.449031,127.059335 74.8564051,126.233795 75.147772,125.272284 C75.4391389,124.310773 75.5848224,123.247824 75.5848224,122.082356 C75.5848224,120.917428 75.420254,119.853939 75.0894986,118.892968 C74.7592828,117.931457 74.2887792,117.105917 73.6769087,116.416888 C73.0650382,115.72786 72.3323044,115.198004 71.4776281,114.828939 C70.6224123,114.460414 69.6716929,114.275881 68.622772,114.275881 L65.8844627,114.275881 Z" id="Fill-222" fill="#FFFFFF"></path>
                <path d="M1.42816771,138.337554 L6.35658498,138.337554 C7.02888714,138.337554 7.64075764,138.403921 8.19219649,138.537194 C8.74417491,138.670468 9.2130598,138.857698 9.60046987,139.098885 C9.98787994,139.338993 10.2884195,139.628741 10.5042468,139.964353 C10.7200742,140.299964 10.8279879,140.671187 10.8279879,141.077482 C10.8279879,141.686115 10.580326,142.203022 10.0855418,142.628201 C9.59075764,143.053381 8.90604541,143.36741 8.03086555,143.570288 C9.22277203,143.734856 10.1648584,144.076942 10.856585,144.597626 C11.547772,145.11777 11.8936353,145.764712 11.8936353,146.538453 C11.8936353,147.007338 11.7722325,147.439532 11.5321245,147.832338 C11.2909375,148.225144 10.9445346,148.561835 10.4945346,148.840791 C10.0445346,149.119209 9.50550584,149.335576 8.87744829,149.487734 C8.24939073,149.639892 7.55496627,149.715971 6.79363534,149.715971 L1.42816771,149.715971 L1.42816771,149.43054 C1.60622527,149.43054 1.73895908,149.40464 1.82744829,149.35446 C1.91647707,149.304281 1.98014613,149.157518 2.01791591,148.916871 C2.05622527,148.676223 2.077808,148.305 2.08482239,147.803741 C2.09129721,147.302482 2.09399505,146.608058 2.09399505,145.720468 L2.09399505,142.333058 C2.09399505,141.445468 2.09129721,140.751043 2.08482239,140.249784 C2.077808,139.748525 2.05622527,139.377302 2.01791591,139.136655 C1.98014613,138.896007 1.91647707,138.749245 1.82744829,138.699065 C1.73895908,138.648885 1.60622527,138.622986 1.42816771,138.622986 L1.42816771,138.337554 Z M4.43464253,138.927302 L4.43464253,143.437014 L5.97564973,143.418129 C6.73698066,143.418129 7.34561376,143.20554 7.80262814,142.78036 C8.25910296,142.35518 8.48734037,141.788094 8.48734037,141.077482 C8.48734037,140.43054 8.29417491,139.910396 7.9073044,139.51759 C7.51989433,139.124245 7.00352743,138.927302 6.35658498,138.927302 L4.43464253,138.927302 Z M4.43464253,143.931799 L4.43464253,149.126223 L6.54651304,149.126223 C7.42169289,149.126223 8.11935476,148.890971 8.63949865,148.422086 C9.1601821,147.953201 9.41971448,147.325144 9.41971448,146.538453 C9.41971448,145.751763 9.09327563,145.121007 8.43985836,144.645108 C7.78590153,144.169748 6.9204339,143.931799 5.84237635,143.931799 L4.43464253,143.931799 Z" id="Fill-224" fill="#FFFFFF"></path>
                <path d="M14.6713332,149.430594 L14.6713332,149.716025 L12.3312253,149.716025 L12.3312253,149.430594 C12.4833835,149.430594 12.6096425,149.414406 12.711621,149.383112 C12.8135994,149.351817 12.9182756,149.25955 13.0256497,149.106853 C13.1330238,148.954694 13.2538871,148.719982 13.3871605,148.403255 C13.5204339,148.086529 13.6941749,147.641924 13.9105418,147.071061 L17.3923763,138.071061 L17.9821245,138.071061 L21.5211533,145.720522 C21.9274483,146.608112 22.2474123,147.302536 22.4821245,147.803795 C22.7173763,148.305054 22.9105418,148.676277 23.0627001,148.916924 C23.2148584,149.157572 23.3508296,149.304335 23.4716929,149.354514 C23.5925562,149.404694 23.7350022,149.430594 23.9001102,149.430594 L23.9001102,149.716025 L19.9607217,149.716025 L19.9607217,149.430594 C20.1258296,149.430594 20.2466929,149.408471 20.322772,149.364227 C20.3988512,149.319442 20.4242109,149.208831 20.3988512,149.031313 C20.3729519,148.853255 20.2844627,148.576996 20.1323044,148.203076 C19.9801461,147.829155 19.7583835,147.311709 19.4664771,146.652356 L19.0666569,145.720522 L15.1661174,145.720522 L14.8234915,146.614586 C14.582844,147.273939 14.4047864,147.791385 14.2909375,148.165306 C14.176549,148.539227 14.1101821,148.82196 14.0912972,149.011888 C14.0718727,149.202356 14.1037073,149.319442 14.1862612,149.364227 C14.2688152,149.408471 14.3859015,149.430594 14.5380598,149.430594 L14.6713332,149.430594 Z M16.9359015,140.887068 L15.3754699,145.130234 L18.8195346,145.149658 L16.9359015,140.887068 Z" id="Fill-226" fill="#FFFFFF"></path>
                <path d="M24.7560814,138.337554 L29.6650742,138.337554 C30.350326,138.337554 30.977844,138.407158 31.5487073,138.546906 C32.1195706,138.686655 32.6051821,138.882518 33.0044627,139.136655 C33.4042828,139.390791 33.7150742,139.695108 33.9368368,140.050144 C34.1585994,140.40518 34.2697504,140.80446 34.2697504,141.249065 C34.2697504,141.933777 34.0226281,142.520827 33.527844,143.008597 C33.0330598,143.496906 32.3483476,143.855719 31.4726281,144.083957 C31.7267648,144.400683 32.126585,144.911655 32.671549,145.615791 C33.216513,146.319388 33.8769447,147.166511 34.6501461,148.15554 C34.866513,148.434496 35.0375562,148.647626 35.1643548,148.793309 C35.2906138,148.938453 35.4114771,149.046906 35.5258656,149.116511 C35.6397145,149.186115 35.7632756,149.227662 35.896549,149.240612 C36.0298224,149.252482 36.2105778,149.259496 36.4388152,149.259496 L36.4388152,149.715971 L35.6397145,149.715971 C35.0186713,149.715971 34.5201102,149.703561 34.1461893,149.678201 C33.7722684,149.652302 33.449067,149.572986 33.1755058,149.440252 C32.9024843,149.306978 32.6429519,149.104101 32.3958296,148.831079 C32.1481677,148.558058 31.8341389,148.181439 31.4537433,147.699065 C30.8569807,146.938273 30.3379159,146.271906 29.8933116,145.701043 C29.4492468,145.13018 29.1006857,144.68018 28.8470886,144.350504 L27.7625562,144.350504 L27.7625562,145.720468 C27.7625562,146.608058 27.765254,147.302482 27.7717289,147.803741 C27.7787433,148.305 27.8035634,148.676223 27.847808,148.916871 C27.8925922,149.157518 27.9594986,149.304281 28.0479879,149.35446 C28.1364771,149.40464 28.2638152,149.43054 28.4283835,149.43054 L28.4283835,149.715971 L24.7560814,149.715971 L24.7560814,149.43054 C24.9341389,149.43054 25.0668727,149.40464 25.155362,149.35446 C25.2443907,149.304281 25.3080598,149.157518 25.3458296,148.916871 C25.3841389,148.676223 25.4057217,148.305 25.4127361,147.803741 C25.4192109,147.302482 25.4219087,146.608058 25.4219087,145.720468 L25.4219087,142.333058 C25.4219087,141.445468 25.4192109,140.751043 25.4127361,140.249784 C25.4057217,139.748525 25.3841389,139.377302 25.3458296,139.136655 C25.3080598,138.896007 25.2443907,138.749245 25.155362,138.699065 C25.0668727,138.648885 24.9341389,138.622986 24.7560814,138.622986 L24.7560814,138.337554 Z M27.7625562,138.927302 L27.7625562,143.760216 L29.2846785,143.760216 C30.0454699,143.760216 30.6546425,143.531978 31.1111174,143.075504 C31.5681317,142.618489 31.7963692,142.009856 31.7963692,141.249065 C31.7963692,140.551403 31.6032037,139.990252 31.2157936,139.564532 C30.8283835,139.139353 30.3120166,138.927302 29.6650742,138.927302 L27.7625562,138.927302 Z" id="Fill-228" fill="#FFFFFF"></path>
                <path d="M37.1050202,138.337554 L42.0334375,138.337554 C42.7057397,138.337554 43.3176102,138.403921 43.869049,138.537194 C44.4210274,138.670468 44.8899123,138.857698 45.2773224,139.098885 C45.6647325,139.338993 45.965272,139.628741 46.1810994,139.964353 C46.3969267,140.299964 46.5048404,140.671187 46.5048404,141.077482 C46.5048404,141.686115 46.2571785,142.203022 45.7623943,142.628201 C45.2676102,143.053381 44.5828979,143.36741 43.7077181,143.570288 C44.8996245,143.734856 45.8417109,144.076942 46.5328979,144.597626 C47.2246245,145.11777 47.5704879,145.764712 47.5704879,146.538453 C47.5704879,147.007338 47.449085,147.439532 47.2084375,147.832338 C46.96779,148.225144 46.6213871,148.561835 46.1713871,148.840791 C45.7213871,149.119209 45.1823584,149.335576 44.5543008,149.487734 C43.9262433,149.639892 43.2318188,149.715971 42.4704879,149.715971 L37.1050202,149.715971 L37.1050202,149.43054 C37.2830778,149.43054 37.4158116,149.40464 37.5043008,149.35446 C37.59279,149.304281 37.6569986,149.157518 37.6947684,148.916871 C37.7330778,148.676223 37.7546605,148.305 37.7616749,147.803741 C37.7681497,147.302482 37.7708476,146.608058 37.7708476,145.720468 L37.7708476,142.333058 C37.7708476,141.445468 37.7681497,140.751043 37.7616749,140.249784 C37.7546605,139.748525 37.7330778,139.377302 37.6947684,139.136655 C37.6569986,138.896007 37.59279,138.749245 37.5043008,138.699065 C37.4158116,138.648885 37.2830778,138.622986 37.1050202,138.622986 L37.1050202,138.337554 Z M40.1114951,138.927302 L40.1114951,143.437014 L41.6525022,143.418129 C42.4138332,143.418129 43.0224663,143.20554 43.4789411,142.78036 C43.9359555,142.35518 44.1641929,141.788094 44.1641929,141.077482 C44.1641929,140.43054 43.9710274,139.910396 43.5841569,139.51759 C43.1967468,139.124245 42.6798404,138.927302 42.0334375,138.927302 L40.1114951,138.927302 Z M40.1114951,143.931799 L40.1114951,149.126223 L42.2233656,149.126223 C43.0985454,149.126223 43.7962073,148.890971 44.3163512,148.422086 C44.8370346,147.953201 45.096567,147.325144 45.096567,146.538453 C45.096567,145.751763 44.7701281,145.121007 44.1167109,144.645108 C43.462754,144.169748 42.5972864,143.931799 41.5192289,143.931799 L40.1114951,143.931799 Z" id="Fill-230" fill="#FFFFFF"></path>
                <path d="M55.5807576,144.692752 L55.5046785,144.578363 C55.4285994,144.438615 55.3401102,144.331241 55.2381317,144.255162 C55.1366929,144.179083 54.9597145,144.115414 54.7055778,144.064694 C54.4514411,144.014514 54.0937073,143.978903 53.6302181,143.960018 C53.1672684,143.941133 52.536513,143.931421 51.7374123,143.931421 L51.7374123,149.126385 C52.7523404,149.126385 53.5611533,149.116673 54.1633116,149.097788 C54.7654699,149.078363 55.2451461,149.037356 55.5996425,148.974227 C55.9546785,148.910018 56.2303979,148.809119 56.4273404,148.669371 C56.6242828,148.529622 56.8239231,148.339155 57.0268008,148.098507 L57.1983835,147.908579 L57.4071965,147.908579 C57.3694267,148.136817 57.3284195,148.390953 57.2836353,148.669371 C57.2388512,148.948327 57.1983835,149.202464 57.1600742,149.430701 L57.1411893,149.430701 L57.0839951,149.716133 L48.7120526,149.716133 L48.7120526,149.430701 C48.8895706,149.430701 49.022844,149.404802 49.1113332,149.354622 C49.1998224,149.303903 49.2634915,149.15768 49.3018008,148.917032 C49.3395706,148.676385 49.3616929,148.305162 49.3681677,147.803903 C49.3751821,147.302104 49.3778799,146.60768 49.3778799,145.72009 L49.3778799,142.333219 C49.3778799,141.445629 49.3751821,140.751205 49.3681677,140.249946 C49.3616929,139.748147 49.3395706,139.377464 49.3018008,139.136817 C49.2634915,138.896169 49.1998224,138.749406 49.1113332,138.699227 C49.022844,138.648507 48.8895706,138.622608 48.7120526,138.622608 L48.7120526,138.337716 L57.1217648,138.337716 L57.1217648,140.14527 L56.9129519,140.14527 L56.7796785,139.954802 C56.6151102,139.714155 56.4494627,139.523687 56.2848943,139.383939 C56.120326,139.244191 55.8688871,139.143291 55.5332756,139.079622 C55.1971245,139.015953 54.7341749,138.974946 54.1438871,138.955522 C53.5541389,138.936637 52.7523404,138.927464 51.7374123,138.927464 L51.7374123,143.360558 C52.536513,143.360558 53.1672684,143.351385 53.6302181,143.3325 C54.0937073,143.313076 54.4514411,143.284478 54.7055778,143.246709 C54.9597145,143.208399 55.1366929,143.151745 55.2381317,143.075665 C55.3401102,142.999047 55.4285994,142.904083 55.5046785,142.789694 L55.5807576,142.69473 L55.8089951,142.69473 L55.8089951,144.692752 L55.5807576,144.692752 Z" id="Fill-232" fill="#FFFFFF"></path>
                <path d="M59.1389411,138.337554 L64.0479339,138.337554 C64.7331857,138.337554 65.3607037,138.407158 65.9321066,138.546906 C66.5024303,138.686655 66.9880418,138.882518 67.3873224,139.136655 C67.7871425,139.390791 68.0979339,139.695108 68.3196965,140.050144 C68.5414591,140.40518 68.6526102,140.80446 68.6526102,141.249065 C68.6526102,141.933777 68.4054879,142.520827 67.9107037,143.008597 C67.4159195,143.496906 66.7312073,143.855719 65.8554879,144.083957 C66.1096245,144.400683 66.5094447,144.911655 67.0544087,145.615791 C67.5993727,146.319388 68.2598044,147.166511 69.0335454,148.15554 C69.2493727,148.434496 69.4204159,148.647626 69.5472145,148.793309 C69.6734735,148.938453 69.7943368,149.046906 69.9087253,149.116511 C70.0225742,149.186115 70.1466749,149.227662 70.2794087,149.240612 C70.4126821,149.252482 70.5934375,149.259496 70.8216749,149.259496 L70.8216749,149.715971 L70.0225742,149.715971 C69.401531,149.715971 68.9029699,149.703561 68.529049,149.678201 C68.1551281,149.652302 67.8319267,149.572986 67.5583656,149.440252 C67.2858835,149.306978 67.0258116,149.104101 66.7786893,148.831079 C66.5310274,148.558058 66.2169986,148.181439 65.836603,147.699065 C65.2403799,146.938273 64.7207756,146.271906 64.2761713,145.701043 C63.8321066,145.13018 63.484085,144.68018 63.2299483,144.350504 L62.1454159,144.350504 L62.1454159,145.720468 C62.1454159,146.608058 62.1481138,147.302482 62.1551281,147.803741 C62.161603,148.305 62.1858835,148.676223 62.2306677,148.916871 C62.2754519,149.157518 62.3423584,149.304281 62.4308476,149.35446 C62.5193368,149.40464 62.6466749,149.43054 62.8112433,149.43054 L62.8112433,149.715971 L59.1389411,149.715971 L59.1389411,149.43054 C59.3169986,149.43054 59.450272,149.40464 59.5382217,149.35446 C59.6272504,149.304281 59.6909195,149.157518 59.7286893,148.916871 C59.7669986,148.676223 59.7885814,148.305 59.7955958,147.803741 C59.8020706,147.302482 59.8047684,146.608058 59.8047684,145.720468 L59.8047684,142.333058 C59.8047684,141.445468 59.8020706,140.751043 59.7955958,140.249784 C59.7885814,139.748525 59.7669986,139.377302 59.7286893,139.136655 C59.6909195,138.896007 59.6272504,138.749245 59.5382217,138.699065 C59.450272,138.648885 59.3169986,138.622986 59.1389411,138.622986 L59.1389411,138.337554 Z M62.1454159,138.927302 L62.1454159,143.760216 L63.6675382,143.760216 C64.4283296,143.760216 65.0375022,143.531978 65.4939771,143.075504 C65.9509915,142.618489 66.1792289,142.009856 66.1792289,141.249065 C66.1792289,140.551403 65.9860634,139.990252 65.5986533,139.564532 C65.2117828,139.139353 64.6948763,138.927302 64.0479339,138.927302 L62.1454159,138.927302 Z" id="Fill-234" fill="#FFFFFF"></path>
                <path d="M78.2236893,140.963201 C78.1853799,140.899532 78.1449123,140.833165 78.1001281,140.763561 C78.055344,140.693957 78.0143368,140.62759 77.976567,140.563921 C77.684121,140.106906 77.3134375,139.700612 76.8634375,139.346115 C76.4134375,138.991079 75.9024663,138.813022 75.331603,138.813022 C75.0267468,138.813022 74.7445526,138.867518 74.4850202,138.974892 C74.2249483,139.082266 73.9994087,139.229029 73.8094807,139.412482 C73.619013,139.595935 73.4695526,139.815 73.3621785,140.069137 C73.2548044,140.322734 73.200308,140.595216 73.200308,140.887122 C73.200308,141.293417 73.4792648,141.698633 74.0377181,142.104928 C74.5961713,142.511223 75.3380778,142.853849 76.2639771,143.132806 C77.1893368,143.411223 77.9317828,143.848813 78.4902361,144.445576 C79.0486893,145.041799 79.3271066,145.701151 79.3271066,146.424173 C79.3271066,146.931367 79.2294447,147.394856 79.0325022,147.813022 C78.8355598,148.231727 78.5598404,148.586763 78.2048044,148.878669 C77.8497684,149.170576 77.4218907,149.399353 76.9200922,149.563921 C76.4188332,149.728489 75.8641569,149.811043 75.2555238,149.811043 C74.5826821,149.811043 73.9109195,149.728489 73.2386174,149.563921 C72.5657756,149.399353 72.0084015,149.183525 71.5637972,148.916978 L71.5832217,147.09 L71.830344,147.09 C71.8686533,147.153669 71.909121,147.216799 71.9539051,147.280468 C71.9986893,147.344137 72.0396965,147.407266 72.0780058,147.470935 C72.4076821,148.003489 72.8646965,148.428669 73.4479699,148.745396 C74.0307037,149.062122 74.6339411,149.221295 75.2555238,149.221295 C75.9785454,149.221295 76.5585814,149.056727 76.9961713,148.726511 C77.4343008,148.396295 77.652826,147.953309 77.652826,147.394856 C77.652826,147.166079 77.5767468,146.935144 77.4245886,146.700432 C77.2724303,146.46518 77.0560634,146.240719 76.7776461,146.024892 C76.4986893,145.808525 76.1657756,145.606187 75.7789051,145.415719 C75.3914951,145.225252 74.9576821,145.060683 74.475308,144.920935 C73.6001281,144.654928 72.8986893,144.238921 72.3726102,143.674532 C71.846531,143.110683 71.5832217,142.492338 71.5832217,141.819496 C71.5832217,141.286942 71.6781857,140.798633 71.8686533,140.354568 C72.0585814,139.909964 72.327826,139.533345 72.6769267,139.222014 C73.0260274,138.911223 73.4447325,138.670576 73.9330418,138.498993 C74.4208116,138.32795 74.9630778,138.242698 75.5598404,138.242698 C76.0039051,138.242698 76.4922145,138.325252 77.0247684,138.48982 C77.557862,138.654388 78.0456317,138.870216 78.4902361,139.136763 L78.4708116,140.963201 L78.2236893,140.963201 Z" id="Fill-236" fill="#FFFFFF"></path>
                <path d="M15.7019627,6.48723022 L15.7019627,8.25701439 C15.6172504,8.2192446 15.5325382,8.1852518 15.447826,8.14802158 C15.2239051,8.04982014 14.9999843,7.95161871 14.7836174,7.85341727 C14.7188692,7.82589928 14.6546605,7.79892086 14.5936893,7.76870504 L14.5936893,6.01241007 C14.9562792,6.16834532 15.3258835,6.32805755 15.7019627,6.48723022" id="Fill-238" fill="#000000"></path>
                <path d="M15.7019627,23.4841727 L15.7019627,23.9147482 C15.3323584,23.7690647 14.9632936,23.6298561 14.5936893,23.4906475 L14.5936893,23.0568345 C14.8785814,23.1658273 15.1629339,23.277518 15.447826,23.3859712 C15.5325382,23.4161871 15.6172504,23.4501799 15.7019627,23.4841727" id="Fill-240" fill="#FFFFFF"></path>
                <path d="M46.3189051,18.7823201 C46.239049,18.8114568 46.1591929,18.8476079 46.0793368,18.8842986 C46.195344,18.8260252 46.2757397,18.7893345 46.3189051,18.7823201" id="Fill-242" fill="#000000"></path>
                <path d="M44.6848224,18.9954496 C44.677808,19.0704496 44.677808,19.1610971 44.677808,19.2436511 L44.677808,84.4634353 L38.8596425,84.4634353 L38.8596425,22.3116367 C38.8526281,22.251205 38.8526281,22.176205 38.8526281,22.0931115 C38.8526281,21.7326799 38.7943548,21.4618165 38.6929159,21.2583993 L44.6848224,18.9954496 Z" id="Fill-244" fill="#FFFFFF"></path>
                <path d="M41.3770526,23.796259 C41.3770526,23.796259 40.8266929,70.3928417 41.6856857,79.0755755 C41.6856857,79.0755755 42.7346066,31.8066906 41.3770526,23.796259" id="Fill-246" fill="#000000"></path>
                <path d="M71.9653979,47.1960432 C69.1472325,45.1624101 65.7625202,43.7239209 62.4868008,42.2061151 C62.4797864,42.1991007 62.4722325,42.1991007 62.4652181,42.1915468 C58.3542468,40.5577338 54.1850022,39.5622302 44.677808,36.9620504 C44.2056857,36.8314748 43.7114411,36.6933453 43.2031677,36.5557554 C42.8033476,36.446223 42.404067,36.3302158 42.0118008,36.221223 C41.8596425,36.177518 41.7069447,36.1343525 41.5542468,36.0906475 C41.4598224,36.0615108 41.3653979,36.0393885 41.2709735,36.0107914 C41.2348224,35.996223 41.1911174,35.9886691 41.1549663,35.9741007 C40.3558656,35.7491007 39.5934555,35.5241007 38.8596425,35.2915468 C37.8792468,35.001259 36.9495706,34.7034173 36.0781677,34.4125899 C35.8526281,34.3402878 35.6200742,34.2598921 35.3950742,34.1875899 C35.3734915,34.180036 35.3519087,34.1730216 35.3297864,34.1660072 C34.0661174,33.7370504 32.9254699,33.3302158 31.8868008,32.9384892 C31.8652181,32.9309353 31.8436353,32.9239209 31.829067,32.9163669 C31.6693548,32.8580935 31.509103,32.8003597 31.3569447,32.7350719 C31.2916569,32.7129496 31.2258296,32.6913669 31.1680958,32.6697842 C31.0008296,32.6044964 30.834103,32.5386691 30.6738512,32.4733813 C30.6231317,32.4517986 30.5724123,32.4372302 30.5287073,32.4151079 C30.3689951,32.3573741 30.2162972,32.2920863 30.0641389,32.2338129 C30.0274483,32.2192446 29.9842828,32.2046763 29.9475922,32.1830935 C28.8657576,31.7471223 27.9285274,31.3402878 27.1299663,30.9701439 C26.4398584,30.6501799 25.8441749,30.367446 25.3429159,30.1057554 C25.2630598,30.1348921 25.1902181,30.1640288 25.110362,30.1931655 C23.7301461,29.2489209 22.2560454,28.3915468 20.9923763,27.331295 C15.0074843,22.3122302 15.4720526,15.4920863 22.0817648,11.1485612 C23.1787073,10.4298561 24.3695346,9.77589928 25.611621,9.2676259 C36.7170166,4.70611511 47.7571245,5.46151079 58.3833835,10.2625899 C65.0508296,13.2841727 67.8760094,18.6296763 67.4767289,25.2539568 C67.4475922,25.7476619 67.4767289,26.2419065 67.4767289,26.7356115 C70.4038871,26.6703237 72.5319447,25.4865108 73.2582037,22.7260791 C73.8393188,20.4965827 74.1155778,17.976259 73.5198943,15.7969424 C72.9533476,13.7125899 71.0864411,11.8969424 69.786621,9.95017986 C74.27529,7.64784173 75.3646785,2.57805755 71.4571245,-9.9475983e-14 C71.282844,0.333992806 71.0939951,0.646402878 70.9342828,0.965827338 C68.5153979,6.10089928 65.5159375,7.29928058 59.6179159,5.49064748 C59.0805058,5.32392086 58.5501102,5.15665468 58.020254,4.9823741 C48.7450742,1.92464029 39.2082037,1.23453237 29.5483116,2.89046763 C24.4930958,3.75485612 19.7648584,5.22194245 15.7046066,7.69154676 C15.5233116,7.80053957 15.349031,7.91654676 15.1747504,8.02553957 C12.8939951,9.48561151 10.8457936,11.2796763 9.0733116,13.4730216 C2.72529002,21.3534173 4.47564973,30.3744604 13.5474123,35.7345324 C15.5885994,36.9329137 17.8110814,37.8847122 20.0335634,38.8359712 C22.0019087,39.5260791 25.8074843,40.855036 29.9475922,42.2643885 C29.9842828,42.2789568 30.0274483,42.2935252 30.0641389,42.3005396 C30.2162972,42.3588129 30.3760094,42.4095324 30.5287073,42.4602518 C30.7396785,42.5330935 30.9576641,42.6053957 31.1680958,42.6782374 C31.2258296,42.6998201 31.2916569,42.7219424 31.3569447,42.7435252 C31.5312253,42.8017986 31.7055058,42.8600719 31.8868008,42.9178058 C32.1846425,43.0267986 32.4900382,43.121223 32.7948943,43.2232014 C33.6668368,43.5205036 34.5382397,43.8113309 35.3950742,44.0946043 C35.6276281,44.1744604 35.8526281,44.2473022 36.0781677,44.3196043 C36.6587433,44.5084532 37.22529,44.6973022 37.7772684,44.8791367 L37.7772684,44.7625899 C38.1409375,44.8791367 38.5035274,44.9951439 38.8596425,45.1041367 C39.3393188,45.2568345 39.8184555,45.4019784 40.2975922,45.5546763 L40.3197145,45.5616906 L41.220254,45.8379496 L41.5542468,45.9393885 L42.0770886,46.0991007 L44.677808,46.8911871 L50.2628799,48.5832734 C50.2628799,48.5832734 60.4747504,51.9242806 65.109103,56.9357914 C65.152808,56.9940647 65.1959735,57.0447842 65.2396785,57.0955036 C65.2763692,57.1321942 65.3049663,57.1683453 65.334103,57.197482 C65.4069447,57.2848921 65.4792468,57.3717626 65.5520886,57.4591727 C65.610362,57.5314748 65.6680958,57.5967626 65.7188152,57.6696043 C68.551549,61.1994604 69.4887792,64.7293165 68.326549,68.6152878 C66.5400382,74.5634892 61.5355418,77.8030576 55.3180958,79.4665468 C53.0810454,80.0616906 50.851549,80.5046763 48.621513,80.7955036 C48.5923763,80.7955036 48.5562253,80.7955036 48.5125202,80.8030576 C47.2342828,80.9767986 45.9560454,81.0863309 44.677808,81.1440647 C44.3945346,81.1661871 44.1112612,81.1732014 43.8279879,81.1807554 C42.2443548,81.2384892 40.6607217,81.2098921 39.0921965,81.1003597 C39.0123404,81.0933453 38.9324843,81.0933453 38.8596425,81.0863309 C37.8716929,81.0134892 36.8912972,80.9115108 35.9179159,80.7739209 C35.729067,80.7517986 35.5402181,80.7302158 35.3519087,80.6940647 C35.2644986,80.6865108 35.1846425,80.6719424 35.1118008,80.6649281 C31.2118008,80.0692446 27.3549663,78.9798561 23.5709735,77.403777 C16.5468727,74.4766187 12.6107217,69.2471223 11.5936353,62.4631295 C11.2812253,60.3642086 11.5429159,58.2070144 11.5429159,55.9338129 C8.40532599,56.3185252 6.41485836,57.7640288 5.16575764,59.8338129 C2.1733116,64.7660072 2.21701663,69.7915468 5.13662095,74.8181655 C1.52690872,76.3721223 -0.0567243733,78.9652878 0.00154900798,82.3138489 C0.0231317418,83.802518 0.263239655,85.3494604 2.43446268,85.9305755 C2.67457059,85.4293165 2.90658498,84.9863309 3.08841951,84.528777 C4.81719649,80.3163669 7.72277203,78.8271583 12.7191749,79.8151079 C14.9929159,80.2656475 17.2299663,80.9552158 19.4233116,81.6890288 C28.1826641,84.5940647 37.1966929,86.1410072 46.5587433,85.7492806 C55.1513692,85.3931655 63.2351821,83.5845324 70.1567648,78.7980216 C81.9668368,70.6273381 82.9618008,55.1492806 71.9653979,47.1960432" id="Fill-248" fill="#FFFFFF"></path>
                <path d="M13.1970166,14.4481295 C12.8457576,15.3972302 12.5856857,16.3738489 12.426513,17.3623381 C12.2355058,18.3438129 12.1610454,19.3371583 12.1367648,20.3207914 C12.1227361,22.2869784 12.4944986,24.2369784 13.3605058,25.9242086 C14.2151821,27.608741 15.4394627,29.0742086 16.9707576,30.1894964 C17.3079879,30.5148561 17.7736353,30.6966906 18.1599663,30.9653957 C18.5716569,31.2038849 18.9493548,31.4876978 19.3837073,31.690036 C20.2772325,32.0693525 21.1081677,32.4945324 22.037844,32.8398561 C25.7786713,34.1914748 29.6139231,35.4028058 33.4745346,36.557482 C37.3286713,37.7385971 41.1941389,38.9267266 45.0585274,40.1596403 C48.9051102,41.4454317 52.7543907,42.7673741 56.5400022,44.3213309 C60.2991749,45.9195324 64.0739951,47.6110791 67.5110454,50.0342806 C69.2160814,51.2461511 70.8930598,52.611259 72.1567289,54.4393165 C73.310326,56.2657554 74.2723763,58.1380576 74.7558296,60.2342806 C75.7934195,64.3733094 74.6257936,68.9855396 71.6883835,71.8258273 C74.084067,68.5333813 74.6117648,64.2465108 73.3146425,60.6427338 C72.7351461,58.8233094 71.6748943,57.1247482 70.5531317,55.6344604 C69.3930598,54.2132374 67.8455778,53.033741 66.1944986,52.0177338 C62.8664411,50.0019065 59.2043907,48.4069424 55.4721965,47.0056835 C51.7486353,45.5698921 47.9435994,44.286259 44.111585,43.0576619 C36.4772325,40.4968705 28.6950382,38.2743885 21.1486353,35.0380576 C20.2060094,34.6258273 19.2569087,34.082482 18.3196785,33.6092806 C17.854031,33.3556835 17.4304699,33.0098201 16.9869447,32.7135971 C16.5601461,32.3871583 16.0874843,32.1351799 15.7146425,31.7332014 C14.0813692,30.3238489 12.7804699,28.508741 11.9910814,26.511259 C11.2232756,24.4975899 11.025254,22.3225899 11.2977361,20.2646763 C11.5723763,18.2046043 12.2155418,16.2233094 13.1970166,14.4481295" id="Fill-250" fill="#000000"></path>
                <path d="M67.8177361,12.5459353 C68.5396785,13.1761511 69.1170166,13.9444964 69.6123404,14.7592446 C70.1076641,15.5766906 70.5004699,16.4605036 70.7767289,17.3901799 C71.0287073,18.3252518 71.1695346,19.3040288 71.1069447,20.2833453 C71.022772,21.2610432 70.7211533,22.2236331 70.1832037,23.0114029 C70.3267289,22.0606835 70.3736713,21.1736331 70.3132397,20.284964 C70.2139591,19.3989928 70.047772,18.5297482 69.7995706,17.6702158 C69.5637792,16.8069065 69.2362612,15.9641007 68.9055058,15.1132014 C68.5612612,14.2666187 68.1959735,13.420036 67.8177361,12.5459353" id="Fill-252" fill="#000000"></path>
                <path d="M71.7602001,3.37073741 C71.8405958,3.92217626 71.7413152,4.47145683 71.5605598,4.98458633 C71.3825022,5.50257194 71.0889771,5.97793165 70.732862,6.40365108 C70.3681138,6.82127698 69.9245886,7.1806295 69.4184735,7.41372302 C68.9269267,7.66893885 68.3630778,7.77361511 67.8175742,7.74339928 C68.2352001,7.36893885 68.6323224,7.08944245 68.9808835,6.75167266 C69.3326821,6.42631295 69.6682936,6.10257194 69.9650562,5.73782374 C70.5931138,5.03260791 71.1164951,4.24969424 71.7602001,3.37073741" id="Fill-254" fill="#000000"></path>
                <path d="M10.1282217,71.4641007 C9.40627922,70.8338849 8.82894109,70.0655396 8.33361735,69.2507914 C7.83829361,68.4333453 7.44548786,67.5495324 7.16922886,66.6198561 C6.91725045,65.6847842 6.77642311,64.7060072 6.83901304,63.7266906 C6.9231857,62.7489928 7.2248044,61.7864029 7.76275404,60.9986331 C7.61922886,61.9493525 7.57228642,62.8364029 7.63271807,63.7250719 C7.73199865,64.6110432 7.8981857,65.4802878 8.14638714,66.3398201 C8.3821785,67.2031295 8.70969649,68.0459353 9.04045189,68.8968345 C9.38469649,69.7434173 9.74998426,70.59 10.1282217,71.4641007" id="Fill-256" fill="#000000"></path>
                <path d="M2.43316771,81.8873201 C2.35277203,81.3358813 2.45205261,80.7866007 2.632808,80.2740108 C2.81086555,79.7554856 3.10439073,79.2801259 3.46050584,78.8544065 C3.82525404,78.4367806 4.26877922,78.0774281 4.77489433,77.8443345 C5.26644109,77.5891187 5.83029002,77.4844424 6.37579361,77.5146583 C5.95816771,77.8891187 5.56104541,78.1686151 5.21248426,78.5063849 C4.8606857,78.8317446 4.52507419,79.1554856 4.2283116,79.5202338 C3.60025404,80.2254496 3.07687275,81.0083633 2.43316771,81.8873201" id="Fill-258" fill="#000000"></path>
                <path d="M38.8526821,78.0514209 C38.8526821,78.0514209 38.6616749,81.2721043 35.5052001,80.721205 C32.3481857,80.1703058 38.8737253,82.7764209 38.8737253,82.7764209 L39.2762433,79.746205 L38.8526821,78.0514209 Z" id="Fill-260" fill="#FFFFFF"></path>
                <path d="M44.6576821,77.9244604 C44.6576821,77.9244604 44.5945526,81.3356115 47.9204519,80.8694245 C51.2468907,80.4032374 43.5137972,82.3947842 43.5137972,82.3947842 L44.6576821,77.9244604 Z" id="Fill-262" fill="#FFFFFF"></path>
                <path d="M41.0668548,17.1896763 C41.0646965,17.1907554 41.0625382,17.191295 41.0603799,17.1923741 C41.0646965,17.2225899 41.069013,17.2528058 41.0733296,17.2830216 C41.1067828,17.2727698 41.1396965,17.2619784 41.1736893,17.2506475 L42.955344,18.2704317 C43.9670346,17.9466906 44.980344,17.6342806 45.9941929,17.3202518 C46.0789051,17.2938129 46.1663152,17.282482 46.2429339,17.2657554 C46.330344,17.7664748 46.3988692,18.2634173 46.5073224,18.742554 C46.5871785,19.0975899 46.7123584,19.4326619 46.8283656,19.7698921 C46.895272,19.9635971 47.0107397,20.0186331 47.1742289,19.9835612 C51.2787253,19.0948921 55.3837612,18.213777 59.4877181,17.3218705 C59.5767468,17.302446 59.6808835,17.1961511 59.7343008,17.088777 C60.1767468,16.1882374 60.221531,15.2148561 59.9846605,14.2182734 C59.8767468,13.7661151 59.7310634,13.3301439 59.5826821,12.9006475 C59.5200922,12.7204317 59.4089411,12.6065827 59.2281857,12.6427338 C55.5267468,13.3911151 51.8209915,14.0952518 48.1238692,14.886259 C46.129085,15.3135971 44.14779,15.8785252 42.1632576,16.4002878 C41.6776461,16.5281655 41.2022864,16.7385971 40.7188332,16.8907554 C40.6724303,16.9053237 40.6217109,16.9096403 40.5704519,16.9058633 L41.0668548,17.1896763 Z" id="Fill-264" fill="#FFFFFF"></path>
                <path d="M58.6627181,13.178741 C58.5235094,13.237554 58.3810634,13.2688489 58.2380778,13.2985252 C55.3119986,13.908777 52.3853799,14.5147122 49.4598404,15.1303597 C47.0868188,15.6294604 44.7164951,16.155 42.3688332,16.8726259 C41.9700922,16.9940288 41.5718907,17.1240647 41.1736893,17.2508633 L42.955344,18.2701079 C43.9670346,17.9469065 44.980344,17.6339568 45.9941929,17.3204676 C46.0789051,17.2934892 46.1663152,17.2821583 46.2429339,17.2659712 C46.330344,17.7661511 46.3988692,18.2630935 46.5067828,18.7427698 C46.5871785,19.0972662 46.7123584,19.4328777 46.8283656,19.7701079 C46.8947325,19.9638129 47.0107397,20.0188489 47.1742289,19.9832374 C51.2787253,19.0951079 55.3837612,18.2134532 59.4877181,17.3220863 C59.5767468,17.3021223 59.6808835,17.1958273 59.7343008,17.0889928 C60.1762073,16.1879137 60.221531,15.2150719 59.9846605,14.2184892 C59.8767468,13.7663309 59.7310634,13.3303597 59.5826821,12.9003237 C59.5200922,12.7206475 59.4089411,12.6067986 59.2281857,12.6429496 C55.5267468,13.3913309 51.8209915,14.0949281 48.1238692,14.8864748 C46.129085,15.3132734 44.14779,15.878741 42.1632576,16.399964 C41.6776461,16.5283813 41.2022864,16.7388129 40.7188332,16.8904317 C40.6724303,16.905 40.6217109,16.9098561 40.5704519,16.9060791 L41.0668548,17.1898921 C46.851567,15.1201079 52.7673943,14.2400719 58.6627181,13.178741 M59.3021066,13.5170504 C59.4958116,13.4765827 59.6393368,13.5634532 59.696531,13.8035612 C59.7844807,14.1726259 59.8395166,14.5557194 59.9139771,14.9614748 C59.5896965,15.061295 59.309121,15.1470863 59.0280058,15.2339568 C59.2681138,15.2442086 59.5006677,15.2085971 59.7343008,15.1853957 C59.7882576,15.18 59.8443727,15.2188489 59.8994087,15.2371942 C59.8530058,15.2922302 59.8119986,15.3747842 59.759121,15.3969065 C59.5934735,15.4648921 59.4235094,15.5102158 59.2551641,15.5641727 C59.2573224,15.5765827 59.2594807,15.5889928 59.2616389,15.6014029 C59.4682936,15.5803597 59.6754879,15.5593165 59.8821425,15.5377338 C59.8923943,15.5663309 59.901567,15.5949281 59.9107397,15.6229856 C59.8567828,15.6742446 59.806603,15.7519424 59.7472504,15.7713669 C59.4510274,15.8674101 59.1521066,15.9488849 58.8542648,16.0352158 C58.8548044,16.0433094 58.8564231,16.0519424 58.8569627,16.0605755 C59.1812433,16.0152518 59.5055238,15.9704676 59.8298044,15.9251439 C59.8384375,15.9564388 59.8470706,15.9871942 59.8557037,16.0184892 C59.7909555,16.0670504 59.7299843,16.1409712 59.6609195,16.1603957 C59.1467109,16.3039209 58.6314231,16.4371942 58.1161353,16.573705 C58.1166749,16.5807194 58.117754,16.5877338 58.1188332,16.5947482 C58.6567828,16.5057194 59.1947325,16.4161511 59.7326821,16.3276619 C59.7402361,16.3584173 59.7483296,16.3897122 59.7564231,16.4204676 C59.6889771,16.4674101 59.6247684,16.5397122 59.5535454,16.557518 C58.6659555,16.7835971 57.7799843,17.0215468 56.8891569,17.2174101 C54.5307037,17.7370144 52.1700922,18.2366547 49.8105598,18.7443885 L49.8175742,18.8145324 L59.6069627,16.7080576 C59.5762073,16.9773022 59.4785454,17.0307194 59.3463512,17.0593165 C55.4474303,17.8945683 51.5495886,18.7352158 47.6512073,19.5720863 C46.9637972,19.7193885 46.9557037,19.7172302 46.7458116,18.8026619 C46.6109195,18.2139928 46.4544447,17.6264029 46.5272864,16.9826978 C46.5585814,16.7015827 46.5289051,16.6686691 46.3211713,16.6713669 C46.2159555,16.6729856 46.1107397,16.6454676 46.0060634,16.6314388 L45.9909555,16.4846763 C46.1026461,16.4166906 46.2100202,16.3260432 46.3260274,16.285036 C46.54779,16.2057194 46.7722504,16.1404317 46.9983296,16.0929496 C51.099049,15.2334173 55.2008476,14.3782014 59.3021066,13.5170504" id="Fill-266" fill="#000000"></path>
                <path d="M49.4600562,15.1301978 C52.3855958,14.5145504 55.3116749,13.9086151 58.2382936,13.2989029 C58.3807397,13.2686871 58.5231857,13.2373921 58.6629339,13.1785791 C52.7670706,14.2399101 46.8512433,15.1204856 41.0670706,17.1897302 C41.0649123,17.1908094 41.0622145,17.1913489 41.0600562,17.1924281 C41.0643727,17.2226439 41.0686893,17.2528597 41.0730058,17.2830755 C41.1069986,17.2728237 41.1399123,17.2614928 41.1733656,17.2507014 C41.5721066,17.1239029 41.9697684,16.9938669 42.369049,16.872464" id="Fill-268" fill="#FFFFFF"></path>
                <path d="M48.2284915,18.1201079 C47.9446785,18.1589568 47.6614051,18.203741 47.3770526,18.2323381 C47.3144627,18.2382734 47.2497145,18.1848561 47.1860454,18.1589568 C47.2389231,18.1130935 47.2880238,18.0472662 47.3457576,18.0256835 C47.5292109,17.955 47.715362,17.9010432 47.8998943,17.8141727 C47.711585,17.8341367 47.5227361,17.8616547 47.3344267,17.8702878 C47.2761533,17.8729856 47.2168008,17.8265827 47.1585274,17.8023022 C47.2076281,17.7548201 47.2529519,17.6803597 47.3069087,17.6636331 C47.6160814,17.5654317 47.9279519,17.4807194 48.2376641,17.3668705 C47.8772325,17.4143525 47.5173404,17.461295 47.1569087,17.508777 C47.1471965,17.4769424 47.1380238,17.4451079 47.127772,17.4132734 C47.1838871,17.3722662 47.2373044,17.3069784 47.2966569,17.2934892 C47.7849663,17.1817986 48.2738152,17.0792806 48.7632037,16.9740647 C48.7599663,16.9411511 48.7572684,16.9082374 48.754031,16.8753237 C48.2214771,16.9594964 47.6889231,17.0442086 47.1563692,17.1283813 C47.1471965,17.0954676 47.1385634,17.0620144 47.1299303,17.0285612 C47.1892828,16.9897122 47.2459375,16.9308993 47.3079879,16.9147122 C47.8826281,16.7663309 48.457808,16.6244245 49.0329879,16.4814388 C49.0950382,16.4663309 49.1576281,16.4544604 49.2202181,16.4409712 C49.2175202,16.411295 49.215362,16.3816187 49.2126641,16.3519424 C48.5360454,16.4970863 47.8588871,16.6427698 47.1822684,16.7884532 C47.1768727,16.7442086 47.1720166,16.6994245 47.166621,16.6546403 C48.5495346,16.2904317 49.9319087,15.9267626 51.3148224,15.562554 C51.3121245,15.5420504 51.3094267,15.5215468 51.3067289,15.5015827 C49.8768727,15.8091367 48.4475562,16.1166906 47.0209375,16.423705 C46.8919807,17.3005036 47.0614051,18.6596763 47.3991749,19.3395324 C47.3322684,19.0211871 47.2761533,18.756259 47.2119447,18.4514029 C47.565362,18.3429496 47.8966569,18.2415108 48.2279519,18.1406115 C48.2284915,18.1335971 48.2284915,18.1265827 48.2284915,18.1201079" id="Fill-270" fill="#000000"></path>
                <path d="M46.2031138,13.6529676 C46.1351281,13.5709532 46.0309915,13.4921763 45.9430418,13.5024281 C45.6943008,13.5321043 45.431531,13.5499101 45.1989771,13.6772482 C44.579013,14.0177158 44.0367468,14.5691547 43.4998763,15.1211331 C43.1971785,15.4335432 42.9074303,15.7707734 42.6074303,16.0885791 C42.55779,16.1414568 42.4838692,16.1792266 42.4239771,16.1786871 C40.8095886,16.1598022 39.194121,16.4193345 37.5781138,16.7096223 C32.9146245,17.5481115 28.3574303,19.2628597 23.8450202,21.3515288 C23.4425022,21.5382194 23.0464591,21.7540468 22.6978979,22.1214928 C21.9937612,22.8633993 22.0487972,24.1821043 22.8047325,24.6520683 C23.0728979,24.8198741 23.3680418,24.8851619 23.665344,24.8117806 C24.1719986,24.6871403 24.684049,24.5603417 25.1772145,24.3418165 C26.8363871,23.6063849 28.4874663,22.8321043 30.1412433,22.0691547 C32.5973584,20.934982 35.0987972,20.2022482 37.6202001,19.6545863 C38.7673224,19.4053058 39.916603,19.1808453 41.0648044,18.9461331 C41.1020346,18.9380396 41.1392648,18.9385791 41.1797325,18.9828237 C40.9326102,19.0394784 40.6860274,19.1101619 40.4383656,19.1484712 C40.3639051,19.1603417 40.2996965,19.186241 40.2398044,19.2267086 L41.7862073,18.8495504 L41.8309915,18.8382194 L42.3376461,18.7146583 C42.3862073,18.6774281 42.4374663,18.6482914 42.4871066,18.6326439 C42.9754159,18.4783273 43.4664231,18.3499101 43.955272,18.1977518 C44.2288332,18.1119604 44.4727181,17.9317446 44.6496965,17.6063849 C44.7905238,17.3490108 44.7894447,17.1196942 44.641603,16.9000899 C44.4435814,16.6044065 44.1872864,16.4279676 43.8937612,16.3594424 C43.5786533,16.2860612 43.2586893,16.2445144 42.9408835,16.1889388 C42.9414231,16.1592626 42.9430418,16.1295863 42.944121,16.0999101 C43.0579699,16.1155576 43.1723584,16.1247302 43.2845886,16.1479317 C43.3892648,16.1695144 43.4443008,16.1090827 43.4971785,15.9795863 C43.8867468,15.0256295 44.4764951,14.4385791 45.2259555,14.1504496 C45.2534735,14.1401978 45.281531,14.1310252 45.309049,14.1250899 C45.3176821,14.1229317 45.3268548,14.133723 45.3732576,14.1596223 C44.5525742,14.4968525 43.9175022,15.1189748 43.4950202,16.1198741 C43.5058116,16.1344424 43.516603,16.1490108 43.5279339,16.1641187 C43.560308,16.1090827 43.5953799,16.0572842 43.6239771,15.9990108 C44.1570706,14.9339029 44.8930418,14.3889388 45.7871066,14.240018 C45.9025742,14.2205935 46.0239771,14.1871403 46.1313512,14.1196942 C46.2894447,14.0204137 46.3239771,13.7991906 46.2031138,13.6529676" id="Fill-272" fill="#FFFFFF"></path>
                <path d="M45.7868907,14.2401259 C45.9028979,14.2207014 46.0237612,14.1867086 46.1311353,14.1198022 C46.2897684,14.0205216 46.3243008,13.7992986 46.2028979,13.6530755 C46.1354519,13.5710612 46.0307756,13.4922842 45.942826,13.502536 C45.694085,13.5322122 45.4313152,13.550018 45.1993008,13.6773561 C44.5793368,14.0178237 44.0370706,14.5692626 43.5002001,15.121241 C43.1969627,15.4331115 42.907754,15.7708813 42.607754,16.0886871 C42.5575742,16.1410252 42.4836533,16.1793345 42.4243008,16.178795 C40.8093727,16.1599101 39.1944447,16.4194424 37.5784375,16.7091906 C32.9149483,17.5482194 28.357754,19.2629676 23.845344,21.3516367 C23.4422864,21.5383273 23.0462433,21.7541547 22.6976821,22.1216007 C21.9935454,22.8629676 22.0485814,24.1822122 22.8045166,24.6521763 C23.0732217,24.8194424 23.3683656,24.8852698 23.6656677,24.8118885 C24.1723224,24.6872482 24.6843727,24.5599101 25.1775382,24.3419245 C26.8361713,23.6064928 28.48779,22.8322122 30.1410274,22.0692626 C32.5971425,20.9350899 35.0985814,20.2023561 37.6205238,19.6546942 C38.7676461,19.4054137 39.9163871,19.1809532 41.0645886,18.9457014 C41.1018188,18.9381475 41.1395886,18.9386871 41.1800562,18.9829317 C40.9323943,19.0395863 40.6863512,19.1102698 40.4386893,19.1485791 C40.3642289,19.1604496 40.2994807,19.1863489 40.2401281,19.2268165 L41.7859915,18.8491187 C41.7946245,18.8367086 41.8032576,18.8248381 41.8124303,18.8124281 C41.8183656,18.8210612 41.8248404,18.8296942 41.8313152,18.8383273 L42.3379699,18.7147662 C42.3859915,18.6769964 42.43779,18.6483993 42.4868907,18.6327518 C42.9752001,18.4784353 43.4667468,18.350018 43.9555958,18.1973201 C44.2291569,18.1120683 44.4730418,17.9318525 44.6500202,17.6064928 C44.790308,17.3485791 44.7892289,17.1198022 44.6419267,16.9001978 C44.4433656,16.6045144 44.1870706,16.4280755 43.8935454,16.3595504 C43.5789771,16.2861691 43.2584735,16.2446223 42.9406677,16.1890468 C42.9417468,16.1593705 42.9433656,16.1296942 42.9444447,16.100018 C43.057754,16.1156655 43.1726821,16.1248381 43.2849123,16.1480396 C43.389049,16.1690827 43.444085,16.1086511 43.4969627,15.9796942 C43.886531,15.0257374 44.4762792,14.4381475 45.2262792,14.1505576 C45.2532576,14.1397662 45.2813152,14.1311331 45.3093727,14.1246583 C45.3180058,14.1230396 45.3271785,14.1338309 45.3730418,14.1597302 C44.5523584,14.4969604 43.917826,15.1190827 43.495344,16.1194424 C43.5061353,16.1340108 43.5169267,16.1491187 43.5277181,16.1642266 C43.5600922,16.1091906 43.5951641,16.0573921 43.6237612,15.9991187 M23.7746605,23.1160252 C23.8739411,23.2546942 23.8685454,23.4834712 23.7611713,23.6334712 C23.6494807,23.7910252 23.4735814,23.8028957 23.3699843,23.6604496 C23.2685454,23.521241 23.2809555,23.2725 23.395344,23.1225 C23.5027181,22.9822122 23.6769986,22.9795144 23.7746605,23.1160252 M42.5726821,17.2147662 C42.6746605,17.3690827 42.6573943,17.5967806 42.5338332,17.7457014 C42.4135094,17.8903058 42.236531,17.8811331 42.1458835,17.7246583 C42.0606317,17.5789748 42.0838332,17.3383273 42.196603,17.2045144 C42.3126102,17.0669245 42.4771785,17.071241 42.5726821,17.2147662 M44.5658476,17.4581115 C44.4638692,17.7084712 44.3252001,17.8379676 44.1487612,17.8930036 C43.8099123,17.9982194 43.4726821,18.1320324 43.1322145,18.2027158 C41.609013,18.5194424 40.0858116,18.8242986 38.5620706,19.1216007 C36.3584735,19.5516367 34.1570346,20.0410252 31.9976821,20.9377878 C30.1906677,21.6883273 28.4036174,22.5640468 26.6036174,23.3604496 C25.7802361,23.7246583 24.9509195,24.0559532 24.117826,24.3559532 C23.7007397,24.5059532 23.2734015,24.5005576 22.8908476,24.2496583 C22.7527181,24.1584712 22.6356317,24.0144065 22.5088332,23.8940827 C22.5185454,23.8735791 22.5282576,23.8519964 22.5374303,23.8309532 C23.0689051,24.2793345 23.6591929,24.1644065 24.2559555,23.9868885 C24.3503799,23.9588309 24.4448044,23.9280755 24.5370706,23.8859892 C25.9426461,23.2514568 27.3487612,22.621241 28.7521785,21.9764568 C30.1944447,21.314946 31.6372504,20.6588309 33.1064951,20.1678237 C35.3386893,19.4221403 37.5897684,18.9796942 39.8451641,18.5928237 C41.4196245,18.3225 42.9973224,18.0948022 44.5658476,17.4581115" id="Fill-274" fill="#FFFFFF"></path>
                <path d="M44.5658476,17.4582734 C42.9973224,18.094964 41.419085,18.3226619 39.8451641,18.5929856 C37.5897684,18.9798561 35.3386893,19.4223022 33.1064951,20.1679856 C31.6367109,20.6589928 30.1944447,21.3145683 28.7527181,21.9766187 C27.3487612,22.6208633 25.9426461,23.2516187 24.5376102,23.8861511 C24.4448044,23.9276978 24.3503799,23.9589928 24.2559555,23.9870504 C23.6591929,24.1645683 23.0683656,24.2789568 22.5374303,23.8311151 C22.5282576,23.8521583 22.5185454,23.8732014 22.5088332,23.8942446 C22.6356317,24.0140288 22.7527181,24.1586331 22.8908476,24.2492806 C23.2734015,24.5007194 23.7012792,24.5061151 24.117826,24.3555755 C24.9503799,24.0561151 25.7807756,23.7248201 26.6030778,23.3606115 C28.4036174,22.5636691 30.1906677,21.6884892 31.9976821,20.9374101 C34.1570346,20.0411871 36.3584735,19.5517986 38.561531,19.1217626 C40.0858116,18.8239209 41.609013,18.5196043 43.1322145,18.2028777 C43.4726821,18.1321942 43.8099123,17.9983813 44.1487612,17.8926259 C44.3252001,17.8381295 44.4644087,17.7080935 44.5658476,17.4582734" id="Fill-276" fill="#000000"></path>
                <path d="M41.8312612,18.8382734 C41.8247864,18.8296403 41.8183116,18.8215468 41.8123763,18.8123741 C41.8032037,18.8247842 41.7945706,18.8366547 41.7859375,18.8496043 L41.8312612,18.8382734 Z" id="Fill-278" fill="#FFFFFF"></path>
                <path d="M24.1709208,23.1503207 C23.991548,22.9670182 23.6714517,22.9706408 23.4742407,23.1597394 C23.2641466,23.3611549 23.2413533,23.6944323 23.4276632,23.8820819 C23.6169462,24.0733541 23.9410065,24.0566903 24.1461456,23.8451316 C24.3433566,23.6437161 24.3532667,23.3365214 24.1709208,23.1503207 M24.1223613,23.4676587 C24.083712,23.7299335 23.9568627,23.8407845 23.7616337,23.8342638 C23.5614496,23.8262942 23.4732497,23.6966058 23.4841508,23.4640362 C23.6754158,23.6697987 23.8726268,23.7045755 24.1223613,23.4676587" id="Fill-280" fill="#000000"></path>
                <path d="M42.9722694,17.2530803 C42.7968762,17.0601218 42.494645,17.0543185 42.2815968,17.2392975 C42.075485,17.4191987 42.0328753,17.7427306 42.1884501,17.9385907 C42.354925,18.1482336 42.6799474,18.1605656 42.900923,17.9668816 C43.1288351,17.7666691 43.1595537,17.4598215 42.9722694,17.2530803 M42.9276779,17.5142271 C42.888041,17.7855297 42.7790396,17.9371399 42.5788734,17.9168285 C42.4530263,17.9037712 42.3460067,17.7804518 42.2300688,17.707911 C42.2488963,17.6738169 42.2677239,17.6397227 42.2855604,17.6063539 C42.4906813,17.7347511 42.6958022,17.814546 42.9276779,17.5142271" id="Fill-282" fill="#FFFFFF"></path>
                <path d="M23.7483296,23.352464 C23.6123584,23.5289029 23.5049843,23.5030036 23.4008476,23.3492266 C23.3943727,23.5229676 23.4429339,23.6195504 23.5513871,23.624946 C23.6582217,23.6298022 23.7272864,23.5477878 23.7483296,23.352464" id="Fill-284" fill="#000000"></path>
                <path d="M42.5482936,17.4090108 C42.4214951,17.6329317 42.310344,17.5730396 42.1986533,17.477536 C42.1884015,17.5028957 42.1786893,17.5277158 42.1684375,17.5530755 C42.231567,17.6075719 42.2898404,17.698759 42.3589051,17.7084712 C42.4673584,17.7235791 42.5267109,17.6108094 42.5482936,17.4090108" id="Fill-286" fill="#000000"></path>
                <path d="M46.3189051,18.7823201 C46.239049,18.8114568 46.1591929,18.8476079 46.0793368,18.8842986 C46.195344,18.8260252 46.2757397,18.7893345 46.3189051,18.7823201" id="Fill-288" fill="#000000"></path>
                <path d="M38.6926461,21.2585612 C38.6926461,21.2585612 38.0651281,19.5664748 35.2572145,20.2835612 L36.6913871,19.6857194 L39.73779,19.0285252 L43.1322145,18.2029856 L43.9555958,18.1975899 L44.8755598,17.4157554 L46.3696245,16.9975899 L46.4888692,18.6103597 C46.4888692,18.6103597 44.6370706,18.9092806 44.6370706,20.9407554 C44.6370706,22.9716906 38.6926461,21.2585612 38.6926461,21.2585612" id="Fill-290" fill="#000000"></path>
            </g>
        </g>
    </g>
</svg>