<?xml version="1.0" encoding="UTF-8"?>
<svg width="57px" height="78px" viewBox="0 0 57 78" version="1.1" xmlns="http://www.w3.org/2000/svg" xmlns:xlink="http://www.w3.org/1999/xlink">
    <!-- Generator: Sketch 53.2 (72643) - https://sketchapp.com -->
    <title>marker</title>
    <desc>Created with Sketch.</desc>
    <g id="Page-1" stroke="none" stroke-width="1" fill="none" fill-rule="evenodd">
        <g id="Desktop-HD" transform="translate(-495.000000, -521.000000)">
            <g id="marker" transform="translate(495.000000, 521.000000)">
                <g id="maps-and-flags" fill="#FAB645">
                    <path d="M28.5,0 C12.7850151,0 0,12.6722733 0,28.2485266 C0,47.5791439 25.5047081,75.9576199 26.5905936,77.156262 C27.6105422,78.282236 29.3913022,78.2802555 30.4094064,77.156262 C31.4952919,75.9576199 57,47.5791439 57,28.2485266 C56.9996926,12.6722733 44.2148312,0 28.5,0 Z M28.5,42.4611494 C20.5934006,42.4611494 14.161085,36.0854033 14.161085,28.2485266 C14.161085,20.4116499 20.5935543,14.0360562 28.5,14.0360562 C36.4064457,14.0360562 42.8387613,20.4118022 42.8387613,28.248679 C42.8387613,36.0855557 36.4064457,42.4611494 28.5,42.4611494 Z" id="Shape" fill-rule="nonzero"></path>
                    <ellipse id="Oval" cx="28.5" cy="26.7675277" rx="17.1581633" ry="16.9815498"></ellipse>
                </g>
                <g id="st" transform="translate(13.000000, 10.000000)" fill="#FFFFFF">
                    <path d="M17.3513066,16.2118469 C17.4286152,16.233679 17.5089755,16.2580659 17.5865385,16.2824528 L17.5865385,31.7117117 L15.2019231,31.7117117 L15.2019231,15.5675676 C15.5264159,15.6653475 15.8509087,15.7605727 16.1754016,15.8557978 C16.2885672,15.8911008 16.4017328,15.9236167 16.5148984,15.9589196 C16.7946336,16.0406739 17.0715714,16.1275378 17.3513066,16.2118469" id="Fill-49"></path>
                    <path d="M23.8454277,6.4753049 L23.8454277,6.49428817 C23.8226314,6.7028727 23.7544851,6.90891068 23.6523868,7.09040932 C23.2124668,7.96039893 22.5453114,8.20695001 21.5801066,8.48336502 C21.304611,8.55652008 21.0235375,8.51855353 20.8050326,8.37779948 C20.6061713,8.2476946 20.4812767,8.04721269 20.458723,7.81663535 C20.4274387,7.6133754 20.504073,7.39668826 20.6631621,7.24505356 L20.7000242,7.21518963 C20.7339761,7.19342831 20.9129512,7.08508474 21.0945941,7.12305129 C21.2563507,7.1445811 21.3300749,7.27746403 21.358449,7.3235332 L21.3613592,7.33163581 L21.4210176,7.39136368 L21.4210176,7.57564035 L21.4154398,7.60805082 C21.3982213,7.67588131 21.4040416,7.69741112 21.4040416,7.69741112 C21.4295056,7.71106982 21.4409037,7.71361635 21.5628881,7.66777869 C21.5941724,7.65689803 21.6254567,7.64601737 21.656741,7.63513672 C21.6851151,7.6270341 21.7246448,7.61082886 21.7702374,7.59717017 C22.511117,7.25570271 22.3493603,6.63527372 22.3408723,6.60818782 L22.3294742,6.56211866 C22.2329537,6.29380626 22.0200266,6.07966566 21.6877827,5.90881618 C21.3557814,5.73819821 20.9612115,5.73819821 20.4444146,5.90881618 C20.2598617,5.97664667 20.0469346,6.06346042 19.8226093,6.15282072 C19.4593237,6.2963528 19.0477778,6.4616462 18.64472,6.5998537 C18.4800531,6.65958157 18.3352724,6.71375335 18.1989797,6.76792514 C18.1989797,6.76792514 18.1960695,6.76792514 18.1931593,6.77070318 C18.1761834,6.77348122 18.1448991,6.78690842 18.099549,6.80866973 L18.0966388,6.80866973 C17.914996,6.89803003 17.5517104,7.15291522 17.5517104,7.77056618 L17.5517104,14.7027027 C17.2080684,14.5971372 16.8646689,14.4941182 16.5212694,14.3910992 C16.4189286,14.3586887 16.3139201,14.3288248 16.2115793,14.2989608 C15.8994641,14.2040445 15.5871064,14.1121376 15.2776588,14.0197678 L15.2776588,8.87645772 C15.2747486,8.8546964 15.2747486,8.82761051 15.2747486,8.79774657 C15.2747486,8.1581028 14.718422,8.29098573 14.6078358,8.32617424 C14.6049256,8.32617424 14.5991053,8.32617424 14.5991053,8.32895228 C14.5452672,8.35071359 14.4940968,8.3722434 14.4402587,8.39400472 C13.9974286,8.57828139 13.5402901,8.76788264 13.0576877,8.87090164 C12.9327931,8.89798753 12.8049884,8.92785146 12.6771836,8.96026193 C12.4671667,9.01188718 12.251572,9.06605897 12.0413125,9.09846944 C11.46801,9.18250515 10.9371473,9.10935009 10.4232607,9.03897307 L10.2331299,9.01188718 C9.60283658,8.9306295 9.42386142,8.70838628 9.23664079,8.47248436 L9.22524264,8.45905716 C9.17965005,8.42386865 9.15418611,8.3859021 9.13721015,8.35881621 L9.12872216,8.34515751 L9.10034805,8.32084966 L9.09186007,8.29908834 C8.91579507,8.00924614 8.89299878,7.59717017 9.03511185,7.17444504 C9.20244635,6.67046223 9.56015416,6.24495906 9.97461019,6.06346042 C10.1591632,5.98474928 10.3381383,5.98474928 10.4800089,6.06600696 C10.6133915,6.14194006 10.6985138,6.27736953 10.7128221,6.448219 L10.7128221,6.46720228 C10.7128221,6.65958157 10.692936,6.88714937 10.67596,7.06332342 C10.6332776,7.62425606 10.8064324,7.84649928 11.3855553,7.97660417 C11.7376853,8.05786185 12.1322552,8.04443465 12.6657855,7.92521042 C13.8839322,7.67310327 15.070552,7.19620635 16.2797257,6.6894455 C17.8213857,6.02549387 19.6070146,5.30459242 21.1343663,4.96868105 C21.6225465,4.86820859 22.1194572,4.87908925 22.6927598,5.00363806 C23.3514272,5.15272622 23.868224,5.81135327 23.8454277,6.4753049" id="Fill-51"></path>
                    <path d="M28.0106259,17.5755773 C26.9137369,16.8181726 25.5963592,16.2828137 24.3214853,15.7174174 C24.3185873,15.7146447 24.3156893,15.7146447 24.3130328,15.7121031 C22.7128596,15.1034991 21.090227,14.7328837 17.3894944,13.7645241 C17.2059551,13.7157711 17.0137218,13.6644764 16.8156925,13.6131818 C16.6601671,13.5725158 16.5048831,13.5293081 16.3520142,13.4886421 C16.2928469,13.4724681 16.2334381,13.4562941 16.1740293,13.4401201 C16.1373215,13.4292605 16.1003721,13.4209424 16.0636642,13.4103138 C16.0496573,13.4047684 16.0325108,13.4022268 16.0185039,13.3966814 C15.707453,13.3128078 15.4106506,13.2289341 15.1251986,13.1425188 C14.74363,13.0341531 14.3816228,12.9232458 14.0425581,12.8151111 C13.9548939,12.7880775 13.8643317,12.7582711 13.7766675,12.7312375 C13.768215,12.7286958 13.7597626,12.7259231 13.7513101,12.7231505 C13.2593764,12.5637212 12.815501,12.4121478 12.4112315,12.2661198 C12.402779,12.2633471 12.3943265,12.2608055 12.3885305,12.2580328 C12.3264653,12.2363135 12.2641585,12.2145941 12.2049912,12.1903332 C12.1793923,12.1822462 12.1540349,12.1741592 12.131334,12.1660722 C12.0663707,12.1415801 12.0014075,12.1173192 11.9391007,12.0930582 C11.9192978,12.0849712 11.8994948,12.0794258 11.8825899,12.0713388 C11.8202831,12.0498505 11.7611158,12.0253585 11.701707,12.0036391 C11.6874586,11.9983248 11.6705537,11.9930105 11.6565467,11.9849235 C11.2351307,11.8224905 10.8704671,11.6711482 10.5596577,11.5332072 C10.2911107,11.4142129 10.0592715,11.3086199 9.8641402,11.2113449 C9.83298681,11.2219735 9.80473142,11.2328332 9.77357803,11.2436929 C9.23648398,10.8920242 8.66268206,10.5729346 8.17074834,10.1780583 C5.84124778,8.30903866 6.02213063,5.76926076 8.5948208,4.15186217 C9.02179125,3.88406718 9.48522807,3.64053316 9.96870932,3.45129753 C14.2913022,1.7525669 18.5882961,2.03399425 22.7242101,3.82191286 C25.3193597,4.94692911 26.4191467,6.93771571 26.2636213,9.40447962 C26.2522708,9.58840094 26.2636213,9.77232227 26.2636213,9.95624359 C27.4027726,9.93198261 28.2311146,9.49089491 28.5139101,8.46315364 C28.7399533,7.63296605 28.8474204,6.6941817 28.6155812,5.88294078 C28.3950925,5.10658946 27.6686632,4.43051685 27.162481,3.70569122 C28.9097272,2.84800786 29.3335581,0.960272647 27.8128381,0 C27.7449769,0.124539691 27.6713197,0.240761333 27.6092544,0.359755657 C26.6678908,2.2719829 25.5002425,2.71838491 23.2047933,2.04485393 C22.9956551,1.98269961 22.7891733,1.92031424 22.5829331,1.85538724 C18.9727627,0.716738631 15.2609211,0.459803313 11.5010213,1.07649429 C9.5332864,1.39835661 7.69306307,1.94480627 6.1126928,2.8644129 C6.04193356,2.90484786 5.9743138,2.94828657 5.90645255,2.98872153 C5.01870176,3.53239852 4.22151315,4.20061519 3.53155015,5.01740148 C1.06077261,7.95205568 1.74228314,11.3113926 5.27324184,13.3074935 C6.06753246,13.7536644 6.93258233,14.1081058 7.79763219,14.4623161 C8.56366741,14.7192514 10.045023,15.2144064 11.6565467,15.7391367 C11.6705537,15.744451 11.6874586,15.7497653 11.701707,15.752538 C11.7611158,15.7742574 11.8231811,15.793204 11.8825899,15.8121507 C11.9646996,15.8391844 12.0494658,15.866218 12.131334,15.8932517 C12.1540349,15.9013387 12.1793923,15.9094257 12.2049912,15.9175127 C12.2728525,15.939232 12.3407137,15.9607203 12.4112315,15.9824397 C12.527151,16.0231057 12.6459686,16.0582263 12.7647862,16.0961197 C13.103851,16.207027 13.4431572,16.3151617 13.7766675,16.4205236 C13.8672297,16.45033 13.9548939,16.4773636 14.0425581,16.5043973 C14.2686012,16.5748697 14.4890899,16.645111 14.7040242,16.7128107 L14.7040242,16.669372 C14.8453011,16.7128107 14.9865781,16.7560183 15.1251986,16.7964533 C15.3118775,16.8535243 15.4983148,16.9075917 15.6849936,16.9642006 L15.6934461,16.9669733 L16.0438613,17.0697936 L16.1740293,17.107687 L16.3776131,17.1670686 L17.3894944,17.4618973 L19.5634695,18.0922206 C19.5634695,18.0922206 23.5383036,19.3364622 25.3420606,21.2027091 C25.3589655,21.2241974 25.3758705,21.2431441 25.3927754,21.2620908 C25.4070239,21.2757231 25.4183743,21.2891244 25.4294833,21.2999841 C25.4577387,21.3325631 25.4862356,21.3649111 25.514491,21.3974901 C25.5369504,21.4245238 25.5596513,21.4487848 25.5794542,21.4758184 C26.6818977,22.7903014 27.0465614,24.1047843 26.5942336,25.5518939 C25.8989576,27.7670368 23.9510256,28.9733851 21.5312044,29.5928488 C20.6603586,29.8146635 19.7926522,29.9796381 18.9247044,30.0877728 C18.9133539,30.0877728 18.8991055,30.0877728 18.8822005,30.0905454 C18.3847123,30.1554724 17.8872241,30.1959074 17.3894944,30.2176268 C17.2793708,30.2257137 17.1690057,30.2284864 17.0588821,30.2312591 C16.4425764,30.2527474 15.8262706,30.2418877 15.2157608,30.2014528 C15.1846074,30.1986801 15.153454,30.1986801 15.1251986,30.1959074 C14.74363,30.1688737 14.3676159,30.1309804 13.9916017,30.0824584 C13.9887037,30.0796858 13.9860473,30.0796858 13.9802513,30.0796858 C13.9068355,30.0715988 13.8331783,30.0635118 13.7597626,30.0498794 C13.7257112,30.0471067 13.6947993,30.0417924 13.6665439,30.0390197 C12.1484804,29.8174361 10.6473219,29.4117001 9.1744187,28.8245845 C6.44064861,27.7346889 4.90833666,25.787341 4.5125196,23.2609644 C4.39104554,22.4792987 4.49295817,21.6759138 4.49295817,20.8293211 C3.2716971,20.9728075 2.49696791,21.5109391 2.01083017,22.2817451 C0.846079889,24.1184167 0.862984828,25.9899779 1.99947971,27.8617702 C0.594437801,28.4405678 -0.0218679646,29.4061548 0.000591453972,30.6531691 C0.00928542246,31.2077057 0.102504085,31.7837307 0.947751021,32 C1.04096968,31.813306 1.13153185,31.6483313 1.2022911,31.4780424 C1.87510766,29.9093968 3.00580656,29.3548601 4.95084051,29.7227028 C5.8356933,29.8904501 6.70629765,30.1473854 7.55999705,30.4204948 C10.9694817,31.5023033 14.4777395,32.0785594 18.1217198,31.9323003 C21.4662411,31.7999047 24.6124917,31.1263737 27.306656,29.3440005 C31.9033503,26.3012116 32.2907149,20.5372652 28.0106259,17.5755773 M26.9649803,2.77897318 C27.0986381,2.64975609 27.221119,2.51759667 27.3356828,2.37710067 C27.570166,2.0988058 27.7664613,1.78863575 28.0088616,1.44144144 C28.0388997,1.65941866 28.0007117,1.87764107 27.9324857,2.07845472 C27.8644926,2.2824559 27.7608728,2.47468777 27.6218594,2.64117431 C27.4884345,2.80766084 27.3165888,2.94545971 27.1284433,3.04010449 C26.9458864,3.14063391 26.7332913,3.18060049 26.5288462,3.16932158 C26.6841593,3.02294093 26.8341168,2.9108874 26.9649803,2.77897318 M27.3381409,5.46700141 C27.5609699,5.78353919 27.7378894,6.12232791 27.8624608,6.48073576 C27.9772346,6.8420147 28.0393803,7.22028092 28.0133463,7.59830789 C27.9738753,7.97370303 27.8395061,8.34622707 27.5970816,8.64864865 C27.6592274,8.28162753 27.682462,7.93996771 27.6561481,7.59830789 C27.6102386,7.25664808 27.5349358,6.92049118 27.4235213,6.59007647 C27.3151861,6.25679067 27.1679398,5.93187888 27.0204136,5.604096 C26.8630896,5.27655238 26.6993271,4.9516406 26.5288462,4.61261261 C26.8532919,4.85641608 27.1153119,5.15333473 27.3381409,5.46700141 M1.94586566,29.2239454 C1.81226229,29.3502224 1.69239168,29.482139 1.57787451,29.6228827 C1.34092638,29.9011825 1.14471099,30.2111129 0.904969758,30.5585586 C0.874943915,30.3403323 0.910555961,30.1250483 0.978521436,29.9212887 C1.04671967,29.7175291 1.15285753,29.5252938 1.289254,29.3617467 C1.42262461,29.1923148 1.59440036,29.0545135 1.78246921,28.9625642 C1.9675122,28.8622782 2.18025344,28.8191233 2.38461538,28.8306476 C2.22657238,28.9799733 2.07667592,29.0890864 1.94586566,29.2239454 M3.36355227,25.9566613 C3.14073705,25.6429946 2.96382848,25.3010955 2.83954461,24.9426877 C2.72477797,24.5840406 2.66235612,24.2060136 2.68866847,23.8279866 C2.72785708,23.4497204 2.86221802,23.0800674 3.10798657,22.7747748 C3.04248561,23.1417959 3.01953228,23.4834557 3.04920366,23.8279866 C3.09175129,24.1696464 3.1670494,24.5029322 3.27845701,24.836218 C3.3865056,25.1695038 3.53402271,25.4944156 3.68153982,25.8221985 C3.83885409,26.146871 4.00260648,26.4746539 4.17307692,26.8108108 C3.84865124,26.5670073 3.58664741,26.2729598 3.36355227,25.9566613 M27.881942,26.5225225 C28.8092989,25.2991841 29.0116706,23.7032846 28.5113828,22.3639101 C28.2866854,21.6886864 27.8764206,21.056832 27.4407093,20.5031808 C26.9939551,19.9739825 26.3954822,19.5363674 25.7547585,19.1585005 C24.4675497,18.4076111 23.0511878,17.8163577 21.6069788,17.2950029 C20.2383891,16.7874893 18.8388316,16.3309578 17.4308718,15.8963416 C17.3578932,15.8718887 17.2820338,15.8476664 17.2090552,15.8259818 C16.9447476,15.7424727 16.6835609,15.6559647 16.4192534,15.5749932 C16.3124261,15.5399287 16.2058389,15.5074016 16.0990116,15.4723371 C15.7926933,15.377755 15.486375,15.2834036 15.1800568,15.1860533 C12.8869909,14.475765 10.5797614,13.7710131 8.32318489,12.8448009 C7.58691678,12.5315266 6.84224652,12.1561972 6.21832711,11.6189249 C5.59176703,11.0950324 5.06915351,10.4278828 4.77963954,9.67722405 C4.4874849,8.92379707 4.41138545,8.11638911 4.51533201,7.35211979 C4.6221593,6.58785048 4.8667818,5.84803409 5.25160012,5.18918919 C4.98465192,5.89670926 4.84973745,6.64183147 4.8413353,7.37357377 C4.83581389,8.10554677 4.97913051,8.829215 5.30801454,9.45853184 C5.62537562,10.0931545 6.11726129,10.6276586 6.70469138,11.043589 C7.28900066,11.4703618 7.95781154,11.7753313 8.66887321,12.0265506 C10.116203,12.5287583 11.599782,12.9797533 13.094884,13.4092944 C13.7889013,13.614376 14.4831587,13.8196883 15.1800568,14.0250006 C15.486375,14.1168144 15.795574,14.2083976 16.104533,14.3029796 C16.2058389,14.3327384 16.3097854,14.3624971 16.4108512,14.3947935 C16.7510181,14.4974496 17.090945,14.6001058 17.4308718,14.7052995 C17.478644,14.7189101 17.529297,14.7325207 17.5770692,14.7486688 C19.063769,15.2266544 20.5531095,15.7180198 22.0198843,16.2958932 C23.4727355,16.8901455 24.9342289,17.5192316 26.2634485,18.4212217 C26.9236172,18.8694484 27.5729831,19.3771927 28.0617479,20.0577223 C28.1940217,20.2249711 28.2838047,20.4007553 28.3822298,20.5707724 C28.4748935,20.7463259 28.5901229,20.9082689 28.6604609,21.0972024 L28.8964412,21.6427795 L29.067845,22.2125788 C29.2476509,22.9823846 29.2757381,23.7950984 29.0539214,24.5485254 C28.8402669,25.2991841 28.4496871,25.9986301 27.881942,26.5225225" id="Fill-57"></path>
                </g>
            </g>
        </g>
    </g>
</svg>