<?xml version="1.0" encoding="UTF-8"?>
<svg width="57px" height="78px" viewBox="0 0 57 78" version="1.1" xmlns="http://www.w3.org/2000/svg" xmlns:xlink="http://www.w3.org/1999/xlink">
    <!-- Generator: Sketch 53.2 (72643) - https://sketchapp.com -->
    <title>Group 3</title>
    <desc>Created with Sketch.</desc>
    <g id="Page-1" stroke="none" stroke-width="1" fill="none" fill-rule="evenodd">
        <g id="Desktop-HD" transform="translate(-495.000000, -521.000000)">
            <g id="Group-3" transform="translate(495.000000, 521.000000)">
                <g id="marker">
                    <g id="maps-and-flags">
                        <path d="M28.5,0 C12.7850151,0 0,12.6722733 0,28.2485266 C0,47.5791439 25.5047081,75.9576199 26.5905936,77.156262 C27.6105422,78.282236 29.3913022,78.2802555 30.4094064,77.156262 C31.4952919,75.9576199 57,47.5791439 57,28.2485266 C56.9996926,12.6722733 44.2148312,0 28.5,0 Z M28.5,42.4611494 C20.5934006,42.4611494 14.161085,36.0854033 14.161085,28.2485266 C14.161085,20.4116499 20.5935543,14.0360562 28.5,14.0360562 C36.4064457,14.0360562 42.8387613,20.4118022 42.8387613,28.248679 C42.8387613,36.0855557 36.4064457,42.4611494 28.5,42.4611494 Z" id="Shape" fill="#FAB645" fill-rule="nonzero"></path>
                        <circle id="Oval" fill="#000000" cx="28.5" cy="29.5" r="23.5"></circle>
                    </g>
                </g>
                <g id="Group-2" transform="translate(14.000000, 12.000000)">
                    <path d="M5.23387097,2.21153846 L5.23387097,3 C5.19811854,2.98317308 5.16236611,2.96802885 5.12661369,2.95144231 C5.03210887,2.90769231 4.93760405,2.86394231 4.84628734,2.82019231 C4.81896064,2.80793269 4.79186167,2.79591346 4.76612903,2.78245192 L4.76612903,2 C4.91915853,2.06947115 5.07514841,2.140625 5.23387097,2.21153846" id="Fill-238" fill="#000000"></path>
                    <path d="M5.23387097,8.99912701 L5.23387097,9.23134328 C5.07788108,9.15277387 4.92211892,9.07769642 4.76612903,9.00261898 L4.76612903,8.76865672 C4.88636649,8.82743828 5.00637623,8.88767483 5.12661369,8.9461654 C5.16236611,8.96246128 5.19811854,8.98079414 5.23387097,8.99912701" id="Fill-240" fill="#FFFFFF"></path>
                    <path d="M17.0434218,6.98162017 C17.0144739,6.99212293 16.9855261,7.00515413 16.9565782,7.01837983 C16.9986308,6.99737431 17.0277743,6.98414861 17.0434218,6.98162017" id="Fill-242" fill="#000000"></path>
                    <path d="M16,7 C15.9976587,7.02749435 15.9976587,7.06072494 15.9976587,7.09098851 L15.9976587,31 L14.0556506,31 L14.0556506,8.21568563 C14.0533093,8.1935319 14.0533093,8.16603755 14.0533093,8.13557618 C14.0533093,8.00344504 14.0338586,7.90414888 14,7.82957786 L16,7 Z" id="Fill-244" fill="#FFFFFF"></path>
                    <path d="M14.8595961,9 C14.8595961,9 14.5633246,25.8585958 15.0257405,29 C15.0257405,29 15.590399,11.898166 14.8595961,9" id="Fill-246" fill="#000000"></path>
                    <path d="M26.2034773,17.0262718 C25.1773489,16.2926258 23.944934,15.7736817 22.7522047,15.2261236 C22.7496507,15.2235932 22.7469002,15.2235932 22.7443461,15.220868 C21.2474915,14.6314596 19.7294188,14.2723254 16.2677337,13.334294 C16.0958282,13.2871881 15.9158677,13.237357 15.7307992,13.1877206 C15.5852198,13.1482061 15.4398369,13.1063557 15.297008,13.0670359 C15.2416053,13.051269 15.1860062,13.0356968 15.130407,13.0199299 C15.0960259,13.0094187 15.0616448,13.0014379 15.0272637,12.9911213 C15.0141007,12.9858657 14.9981872,12.9831406 14.9850241,12.9778849 C14.6940618,12.8967148 14.416459,12.8155446 14.1492688,12.7316493 C13.7922948,12.6269261 13.4537884,12.5194778 13.1365,12.41456 C13.0543783,12.3884766 12.9697025,12.3594733 12.8877773,12.3333898 C12.8799188,12.3306647 12.8720602,12.3281342 12.8640052,12.3256037 C12.4038879,12.1708548 11.9885643,12.0240867 11.6103723,11.8827688 C11.6025137,11.8800437 11.5946552,11.8775132 11.5893507,11.8747881 C11.5311975,11.8537656 11.4728479,11.8329377 11.4174452,11.8093848 C11.3936731,11.801404 11.3697046,11.7936179 11.348683,11.7858318 C11.2877794,11.7622788 11.2270722,11.7385312 11.1687225,11.7149782 C11.150255,11.7071921 11.1317874,11.7019365 11.1158739,11.6939557 C11.0577207,11.6731279 11.0021216,11.6495749 10.9467189,11.6285524 C10.9333594,11.6232968 10.9176423,11.6180412 10.9042828,11.6102551 C10.5103737,11.4529757 10.1691167,11.3062075 9.87835091,11.1726758 C9.62707422,11.0572467 9.41017863,10.9552487 9.22766413,10.8608422 C9.19858754,10.8713534 9.17206498,10.8818646 9.1429884,10.8923759 C8.64043502,10.5517337 8.10369701,10.2424305 7.64357972,9.85993796 C5.46440767,8.04927853 5.63356266,5.58886838 8.04023933,4.02191413 C8.43964942,3.76263673 8.87324415,3.52671765 9.3255029,3.34335481 C13.3691126,1.69776087 17.3889503,1.97027465 21.2581005,3.70229439 C23.6857988,4.79234952 24.7144811,6.72077384 24.5690982,9.11052506 C24.5584892,9.28863228 24.5690982,9.46693416 24.5690982,9.64504138 C25.6349122,9.6214884 26.4097638,9.19442037 26.6742036,8.19857715 C26.8857946,7.39427219 26.9863839,6.48504942 26.7694883,5.69884715 C26.5632017,4.94690377 25.8834384,4.29189742 25.410158,3.58959048 C27.0445371,2.7590074 27.4411967,0.93005061 26.0184087,0 C25.9549511,0.120490022 25.8861889,0.233193937 25.8280357,0.348428336 C24.9472903,2.2009381 23.8551502,2.63326175 21.7076088,1.98078589 C21.5119312,1.92063821 21.3188077,1.86029587 21.1258806,1.79742305 C17.7486748,0.694326188 14.2761842,0.445365382 10.7588999,1.04275452 C8.91823427,1.35458815 7.19662548,1.88384885 5.71823839,2.77477427 C5.65222668,2.81409411 5.588769,2.85594444 5.52531132,2.89526429 C4.69486053,3.4219945 3.94908546,4.06921473 3.30370318,4.86047797 C0.992311263,7.70338068 1.62963854,10.9577792 4.93277771,12.8914591 C5.67599875,13.3237828 6.4852315,13.6671502 7.29446425,14.0103229 C8.01116274,14.2592837 9.39681911,14.7387133 10.9042828,15.2471461 C10.9176423,15.2524018 10.9333594,15.2576574 10.9467189,15.2601879 C11.0021216,15.2812104 11.0602747,15.2995077 11.1158739,15.3178051 C11.1926911,15.3440832 11.2720623,15.3701666 11.348683,15.3964448 C11.3697046,15.4042309 11.3936731,15.4122116 11.4174452,15.4199977 C11.4809029,15.4410202 11.5443606,15.4620427 11.6103723,15.4828706 C11.7188201,15.5221904 11.8300183,15.5562546 11.9410202,15.593044 C12.258505,15.7002976 12.5757934,15.8052154 12.8877773,15.9074081 C12.972453,15.9362167 13.0543783,15.9624948 13.1365,15.9885783 C13.3478946,16.0567067 13.5541812,16.1248352 13.7551632,16.1904331 L13.7551632,16.1483882 C13.8875795,16.1904331 14.019603,16.2322835 14.1492688,16.2716033 C14.3239248,16.32669 14.4983843,16.3790516 14.6728438,16.4341383 L14.6808988,16.4366688 L15.0087962,16.536331 L15.130407,16.5729257 L15.3207801,16.6305429 L16.2677337,16.9162931 L18.3013263,17.5267239 C18.3013263,17.5267239 22.0195927,18.7320135 23.7070168,20.5399478 C23.7229303,20.5609702 23.7386474,20.5792676 23.754561,20.597565 C23.7679205,20.6108013 23.778333,20.6238431 23.7889421,20.6343543 C23.8154646,20.6658881 23.8417907,20.6972271 23.8683133,20.7287609 C23.8895313,20.7548443 23.9105529,20.7783973 23.9290205,20.8046754 C24.9604533,22.0780934 25.3017102,23.3515114 24.8785281,24.7534001 C24.2280378,26.8992515 22.4058397,28.0679464 20.1419919,28.6680606 C19.3274547,28.8827626 18.5156679,29.0425724 17.7036847,29.1474902 C17.6930756,29.1474902 17.6799126,29.1474902 17.663999,29.1502154 C17.1985772,29.2128935 16.7331555,29.252408 16.2677337,29.2732359 C16.1645904,29.2812166 16.0614471,29.2837471 15.9583038,29.2864723 C15.3816837,29.3073001 14.8050636,29.2969835 14.2339445,29.257469 C14.2048679,29.2549385 14.1757914,29.2549385 14.1492688,29.252408 C13.7895443,29.2261299 13.4325703,29.1893406 13.0781503,29.1397041 C13.0093881,29.1317234 12.9406259,29.1239373 12.8720602,29.1108955 C12.8402332,29.1081704 12.8111566,29.1029148 12.784634,29.1003843 C11.3645965,28.8854877 9.96027615,28.4924839 8.58247831,27.9239034 C6.02491775,26.8679124 4.59171724,24.9813385 4.22138373,22.53397 C4.10763142,21.776771 4.20291617,20.9985495 4.20291617,20.1784777 C3.06048149,20.3172651 2.335728,20.8387397 1.88091523,21.5854274 C0.791329204,23.3647478 0.807242739,25.177743 1.8703062,26.9911276 C0.555966049,27.5517274 -0.0206540347,28.4872283 0.000564012657,29.6952429 C0.00842254872,30.2322897 0.0958487624,30.790359 0.88641749,31 C0.973843703,30.8191676 1.05832297,30.6593578 1.12453113,30.4942923 C1.75399987,28.9746386 2.81195529,28.4373972 4.63120638,28.7938063 C5.45910316,28.9563413 6.27364042,29.2051074 7.07226415,29.4698351 C10.261651,30.5178453 13.5437686,31.0759146 16.9526051,30.9345967 C20.0812847,30.8061259 23.0246994,30.1536501 25.5449319,28.4268859 C29.8451229,25.4792601 30.2074014,19.8954527 26.2034773,17.0262718" id="Fill-248" fill="#FFFFFF"></path>
                    <path d="M4.72486743,5 C4.59852746,5.34736694 4.50498543,5.70480534 4.4477346,6.0665883 C4.3790336,6.42580402 4.35225185,6.7893643 4.34351868,7.14936995 C4.33847284,7.86898627 4.47218749,8.5826782 4.78367083,9.20019748 C5.09107868,9.81672936 5.53142489,10.3530844 6.08219729,10.7612752 C6.20349142,10.8803555 6.37097436,10.9469062 6.50992892,11.0452511 C6.6580048,11.1325371 6.79385423,11.2364115 6.95008107,11.3104664 C7.271462,11.4492947 7.57033075,11.6049088 7.90471441,11.7312958 C9.25020597,12.2259827 10.6296599,12.6693248 12.0182351,13.0919315 C13.4044815,13.5242148 14.7948034,13.9590653 16.1847371,14.4103066 C17.5682665,14.8809009 18.9527662,15.3647263 20.3143656,15.9334681 C21.6664556,16.5184032 23.0241736,17.1375024 24.2604034,18.0243841 C24.8736665,18.4679236 25.476838,18.9675475 25.9313514,19.636609 C26.3462743,20.3050781 26.6923022,20.9903329 26.8661895,21.7575418 C27.2393873,23.2724093 26.8194185,24.9604664 25.7628981,26 C26.6245716,24.7949784 26.8143727,23.2260015 26.3478269,21.907034 C26.1393951,21.2411322 25.7580463,20.6194659 25.3545735,20.0740267 C24.9373217,19.553865 24.3807272,19.1221742 23.7868711,18.7503197 C22.5898436,18.0125353 21.2726863,17.428785 19.9302999,16.91593 C18.5910186,16.3904363 17.2224326,15.9206319 15.8441432,15.4709705 C13.0982381,14.5337314 10.2991576,13.7203122 7.58488604,12.5358285 C7.24584468,12.3849539 6.90447448,12.1860918 6.56737382,12.012902 C6.39989088,11.9200865 6.24754545,11.793502 6.08801941,11.6850856 C5.93450956,11.5656103 5.7645037,11.4733872 5.63040091,11.3262648 C5.04294916,10.8104476 4.57504492,10.1461256 4.29111961,9.41505548 C4.01495713,8.67806094 3.94373322,7.88201994 4.04173888,7.12883205 C4.14052082,6.37485424 4.37185299,5.64970848 4.72486743,5" id="Fill-250" fill="#000000"></path>
                    <path d="M25,4 C25.2185051,4.24087441 25.3932439,4.5345432 25.5431599,4.84594762 C25.693076,5.15838317 25.8119636,5.49618478 25.8955769,5.85151578 C25.9718414,6.20890905 26.0144646,6.58300681 25.995521,6.95731079 C25.970045,7.33099608 25.8787563,7.69890699 25.715939,8 C25.7593787,7.63662611 25.7735864,7.29758713 25.755296,6.95792947 C25.7252475,6.61930295 25.6749489,6.2870695 25.5998275,5.95854815 C25.5284623,5.62858321 25.4293348,5.30645494 25.3292274,4.98123324 C25.2250374,4.65766137 25.1144784,4.3340895 25,4" id="Fill-252" fill="#000000"></path>
                    <path d="M25.9928996,2 C26.0131462,2.12596496 25.9881436,2.2514369 25.9426227,2.36865086 C25.8977812,2.48697411 25.8238607,2.59556034 25.7341777,2.69280726 C25.6423205,2.78820538 25.5306244,2.87029213 25.4031659,2.92353759 C25.2793761,2.98183644 25.1373781,3.00574759 25,2.99884541 C25.1051737,2.91330756 25.2051838,2.84946231 25.2929645,2.77230569 C25.3815604,2.6979839 25.4660799,2.62403187 25.5408157,2.54071259 C25.6989839,2.37962042 25.8307907,2.20077976 25.9928996,2" id="Fill-254" fill="#000000"></path>
                    <path d="M4,26 C3.7814949,25.7591256 3.60675615,25.4654568 3.4568401,25.1540524 C3.30692404,24.8416168 3.18803637,24.5038152 3.10442306,24.1484842 C3.02815857,23.7910909 2.98553538,23.4169932 3.00447902,23.0426892 C3.02995495,22.6690039 3.1212437,22.301093 3.28406103,22 C3.2406213,22.3633739 3.22641357,22.7024129 3.24470398,23.0420705 C3.27475252,23.3806971 3.32505115,23.7129305 3.40017248,24.0414518 C3.47153775,24.3714168 3.57066525,24.6935451 3.67077259,25.0187668 C3.77496261,25.3423386 3.88552162,25.6659105 4,26" id="Fill-256" fill="#000000"></path>
                    <path d="M1.00710043,29 C0.986853817,28.874035 1.01185635,28.7485631 1.05737727,28.6314724 C1.10221877,28.5130259 1.17613931,28.4044397 1.26582231,28.3071927 C1.35767945,28.2117946 1.46937556,28.1297079 1.59683413,28.0764624 C1.72062385,28.0181636 1.86262194,27.9942524 2,28.0011546 C1.89482629,28.0866924 1.79481616,28.1505377 1.70703552,28.2276943 C1.61843958,28.3020161 1.53392014,28.3759681 1.45918431,28.4592874 C1.3010161,28.6203796 1.16920926,28.7992202 1.00710043,29" id="Fill-258" fill="#000000"></path>
                    <path d="M14.817176,28 C14.817176,28 14.7347306,29.3632523 13.3722846,29.1300674 C12.0096057,28.8968825 14.826259,30 14.826259,30 L15,28.717369 L14.817176,28 Z" id="Fill-260" fill="#FFFFFF"></path>
                    <path d="M16.4367848,28 C16.4367848,28 16.4126792,28.7630658 17.6826515,28.6587809 C18.9528298,28.5544961 16,29 16,29 L16.4367848,28 Z" id="Fill-262" fill="#FFFFFF"></path>
                    <path d="M15.1776861,6.8567501 C15.1769136,6.85719012 15.176141,6.85741013 15.1753685,6.85785015 C15.1769136,6.8701707 15.1784587,6.88249125 15.1800038,6.8948118 C15.1919783,6.89063162 15.2037596,6.88623142 15.2159272,6.88161121 L15.8536659,7.29742977 C16.2157979,7.16542388 16.5785093,7.03803819 16.9414139,6.90999248 C16.9717364,6.899212 17.0030246,6.89459179 17.0304501,6.88777149 C17.0617383,7.0919406 17.0862667,7.29456964 17.1250872,7.48993836 C17.1536715,7.63470483 17.1984793,7.77133092 17.2400038,7.90883706 C17.2639528,7.98782059 17.3052841,8.01026159 17.3638047,7.99596095 C18.8329984,7.63360478 20.3023852,7.27432874 21.7713858,6.91065251 C21.8032534,6.90273216 21.8405289,6.85939022 21.8596495,6.81560827 C22.0180219,6.44841188 22.0340522,6.05151416 21.9492651,5.64515603 C21.9106377,5.4607878 21.8584906,5.28301986 21.8053779,5.10789205 C21.782974,5.03440877 21.7431878,4.98798669 21.6784869,5.00272735 C20.3535666,5.30788097 19.0271011,5.59499379 17.7037259,5.91752818 C16.9896981,6.09177596 16.2804988,6.32212624 15.5701406,6.53487574 C15.3963173,6.58701806 15.2261635,6.67282189 15.0531127,6.73486466 C15.0365029,6.74080493 15.018348,6.74256501 15,6.74102494 L15.1776861,6.8567501 Z" id="Fill-264" fill="#FFFFFF"></path>
                    <path d="M21.4761288,5.22120624 C21.4262991,5.24518826 21.3753105,5.25794933 21.3241288,5.27005034 C20.2767384,5.51889125 19.2291549,5.76597201 18.1819577,6.01701309 C17.3325343,6.22053019 16.4840766,6.43482819 15.6437308,6.72745278 C15.5010014,6.77695693 15.3584652,6.82998139 15.2159289,6.88168573 L15.8536724,7.29730065 C16.2158072,7.16550958 16.5785214,7.03789886 16.9414287,6.91006812 C16.9717515,6.89906719 17.0030399,6.8944468 17.0304656,6.88784625 C17.0617541,7.09180338 17.0862827,7.29444041 17.1249104,7.49003684 C17.153688,7.63458898 17.1984961,7.77144048 17.2400209,7.90895203 C17.263777,7.98793866 17.3053018,8.01038055 17.3638228,7.99585933 C18.8330277,7.63370891 20.3024258,7.27419871 21.7714377,6.91072817 C21.8033055,6.90258749 21.8405813,6.85924385 21.859702,6.81568019 C22.0178825,6.44824932 22.0341061,6.051556 21.9493183,5.64518186 C21.9106906,5.46080637 21.8585432,5.28303144 21.8054301,5.1076767 C21.783026,5.03441055 21.7432394,4.98798665 21.678538,5.00272789 C20.3536076,5.30789352 19.027132,5.59479763 17.7037466,5.91756474 C16.9897134,6.09159936 16.2805086,6.32217873 15.570145,6.53471658 C15.3963203,6.58708098 15.2261652,6.67288819 15.0531131,6.73471339 C15.0365032,6.74065388 15.0183482,6.74263405 15,6.74109392 L15.1776875,6.85682364 C17.2483259,6.01283274 19.365897,5.6539826 21.4761288,5.22120624 M21.704998,5.35915783 C21.7743347,5.34265644 21.8257096,5.37807942 21.8461823,5.47598764 C21.8776639,5.62648029 21.897364,5.78269341 21.9240171,5.94814731 C21.8079409,5.98885073 21.7075088,6.02383367 21.6068836,6.05925664 C21.6928303,6.06343699 21.776073,6.04891577 21.859702,6.03945498 C21.8790158,6.03725479 21.8991023,6.05309613 21.9188024,6.06057675 C21.9021925,6.08301864 21.8875139,6.11668147 21.8685864,6.12570222 C21.8092928,6.15342455 21.7484542,6.17190611 21.688195,6.19390795 C21.6889675,6.19896838 21.6897401,6.2040288 21.6905126,6.20908923 C21.7644847,6.20050851 21.8386499,6.19192779 21.912622,6.18312705 C21.9162916,6.19478803 21.9195749,6.20644901 21.9228583,6.21788997 C21.9035444,6.23879173 21.8855826,6.27047439 21.8643373,6.27839505 C21.7583042,6.31755834 21.6513055,6.35078113 21.544693,6.38598409 C21.5448861,6.38928437 21.5454656,6.39280466 21.5456587,6.39632496 C21.661735,6.37784341 21.7778112,6.35958187 21.8938875,6.34110032 C21.8969777,6.35386139 21.9000679,6.36640245 21.9031582,6.37916352 C21.8799815,6.39896518 21.8581569,6.42910771 21.8334351,6.43702838 C21.6493741,6.49555329 21.4649268,6.54989786 21.2804795,6.60556254 C21.2806726,6.60842278 21.2810589,6.61128302 21.2814452,6.61414326 C21.4740043,6.57784021 21.6665634,6.54131714 21.8591226,6.50523411 C21.8618265,6.51777516 21.8647236,6.53053623 21.8676207,6.54307729 C21.8434784,6.56221889 21.8204949,6.59170137 21.7950006,6.59896198 C21.4772877,6.69114973 21.1601542,6.78817788 20.8412824,6.86804459 C19.9970738,7.07992239 19.1520926,7.2836595 18.3074977,7.49069689 L18.3100085,7.5192993 L21.8141213,6.66034714 C21.8031124,6.77013636 21.7681543,6.79191819 21.7208354,6.80357917 C20.3252162,7.14416778 18.9299833,7.48695658 17.5345572,7.82820525 C17.2884987,7.88827029 17.2856016,7.88739022 17.2104707,7.51445889 C17.1621861,7.27441872 17.1061759,7.0348186 17.1322496,6.77233655 C17.1434517,6.65770692 17.132829,6.64428579 17.0584707,6.64538588 C17.0208087,6.64604594 16.9831467,6.63482499 16.9456778,6.62910451 L16.9402699,6.56925949 C16.9802496,6.54153716 17.0186842,6.50457405 17.0602089,6.48785265 C17.1395889,6.45550993 17.2199345,6.42888769 17.3008596,6.40952607 C18.7687126,6.05903662 20.2369519,5.71030733 21.704998,5.35915783" id="Fill-266" fill="#000000"></path>
                    <path d="M18.3403629,5.47548311 C19.5037396,5.32548968 20.6673308,5.1778625 21.8311366,5.0293151 C21.887782,5.02195346 21.9444274,5.01432891 22,5 C19.6554377,5.25857763 17.3029365,5.47311687 15.0027894,5.97725779 C15.0019311,5.9775207 15.0008583,5.97765216 15,5.97791508 C15.0017165,5.98527672 15.0034331,5.99263836 15.0051496,6 C15.0186672,5.9975023 15.0317558,5.99474169 15.0450589,5.99211253 C15.2036231,5.96121993 15.3617582,5.92953858 15.520537,5.89996056" id="Fill-268" fill="#FFFFFF"></path>
                    <path d="M18.2883883,6.6822719 C18.2229499,6.69239421 18.1576359,6.70406298 18.092073,6.71151413 C18.0776418,6.71306059 18.0627128,6.69914242 18.0480327,6.69239421 C18.0602247,6.68044426 18.0715458,6.66329256 18.0848574,6.65766906 C18.127156,6.63925207 18.1700766,6.62519331 18.212624,6.6025587 C18.1692058,6.60776044 18.1256631,6.61493041 18.0822448,6.61717981 C18.0688088,6.61788275 18.055124,6.60579221 18.041688,6.59946577 C18.053009,6.58709405 18.0634593,6.56769296 18.0759001,6.56333474 C18.1471856,6.53774779 18.2190932,6.51567552 18.2905032,6.48601153 C18.2073989,6.49838324 18.124419,6.51061437 18.0413147,6.52298608 C18.0390754,6.51469141 18.0369605,6.50639674 18.0345967,6.49810207 C18.0475351,6.4874174 18.0598515,6.4704063 18.0735363,6.46689161 C18.1861252,6.43778996 18.2988385,6.41107831 18.4116763,6.38366371 C18.4109298,6.37508787 18.4103078,6.36651202 18.4095613,6.35793617 C18.286771,6.37986785 18.1639807,6.40194011 18.0411903,6.42387178 C18.0390754,6.41529594 18.0370849,6.4065795 18.0350943,6.39786307 C18.0487792,6.38774076 18.061842,6.3724167 18.0761489,6.36819907 C18.208643,6.32953747 18.3412615,6.29256291 18.4738801,6.25530718 C18.488187,6.25137073 18.5026183,6.2482778 18.5170495,6.24476311 C18.5164275,6.23703079 18.5159299,6.22929847 18.5153078,6.22156615 C18.3593007,6.25938423 18.2031691,6.29734289 18.0471619,6.33530156 C18.0459178,6.32377337 18.0447981,6.3121046 18.0435541,6.30043582 C18.3624108,6.20553915 18.6811432,6.11078307 19,6.01588641 C18.999378,6.01054407 18.9987559,6.00520174 18.9981339,6 C18.6684536,6.08013496 18.3388978,6.16026993 18.009964,6.2402643 C17.9802306,6.46871925 18.0192946,6.82285955 18.0971738,7 C18.0817472,6.91705328 18.0688088,6.84802474 18.0540043,6.76859272 C18.1354913,6.7403346 18.2118776,6.71390412 18.2882639,6.68761423 C18.2883883,6.68578659 18.2883883,6.68395895 18.2883883,6.6822719" id="Fill-270" fill="#000000"></path>
                    <path d="M16.9728964,5.05341831 C16.9474796,5.02448929 16.9085476,4.9967022 16.8756672,5.00031833 C16.7826741,5.01078607 16.6844363,5.01706671 16.5974949,5.06198282 C16.3657182,5.18207631 16.1629893,5.37658589 15.9622776,5.5712858 C15.8491125,5.68148252 15.7407887,5.80043407 15.6286322,5.91253402 C15.6100739,5.93118562 15.5824382,5.9445082 15.5600473,5.94431787 C14.9565,5.93765659 14.3525494,6.0292017 13.748397,6.1315952 C12.0049283,6.42735635 10.3011984,7.03220122 8.61421131,7.76893957 C8.46372795,7.83479115 8.31566523,7.91092014 8.1853539,8.04052976 C7.92210888,8.30222318 7.94268435,8.76737134 8.22529453,8.93314223 C8.32554953,8.99233252 8.43589055,9.01536154 8.54703844,8.98947768 C8.73645383,8.94551319 8.92788642,8.90078741 9.11225879,8.8237068 C9.73254879,8.56429725 10.349813,8.29118448 10.9680858,8.02206848 C11.8863167,7.62201061 12.8214921,7.36355267 13.7641312,7.17037534 C14.1929886,7.08244635 14.6226529,7.0032722 15.0519138,6.92048192 C15.0658325,6.91762708 15.0797512,6.9178174 15.0948802,6.93342384 C15.0024923,6.95340771 14.9103061,6.97833995 14.8177165,6.99185285 C14.7898791,6.99603994 14.7658743,7.00517542 14.7434834,7.01944961 L15.3216138,6.88641419 L15.3383566,6.88241742 L15.527772,6.83883357 C15.5459268,6.82570132 15.5650903,6.8154239 15.5836485,6.80990455 C15.7662054,6.75547232 15.9497709,6.71017557 16.1325295,6.65650462 C16.2348017,6.62624335 16.3259793,6.56267564 16.3921436,6.44791118 C16.4447926,6.35712735 16.4443892,6.27624029 16.3891178,6.19877904 C16.3150864,6.09448232 16.2192693,6.03224686 16.1095334,6.00807591 C15.9917287,5.98219205 15.8721086,5.96753722 15.7532953,5.947934 C15.753497,5.93746626 15.7541022,5.92699853 15.7545056,5.91653079 C15.7970686,5.92205014 15.8398333,5.92528562 15.8817912,5.93346949 C15.9209249,5.94108239 15.9415004,5.91976627 15.961269,5.87408888 C16.1069111,5.53759872 16.3273914,5.33052785 16.6075809,5.22889564 C16.6178686,5.22527951 16.6283581,5.22204403 16.6386458,5.21995048 C16.6418734,5.21918919 16.6453026,5.22299564 16.6626505,5.23213112 C16.3558339,5.35108268 16.1184091,5.57052451 15.9604621,5.92357272 C15.9644965,5.92871143 15.9685309,5.93385014 15.972767,5.93917917 C15.9848703,5.91976627 15.9979821,5.90149531 16.0086733,5.88094049 C16.2079729,5.50524389 16.4831195,5.31301818 16.81737,5.26048917 C16.8605382,5.25363756 16.9059253,5.24183757 16.9460676,5.21804726 C17.0051717,5.18302792 17.0180818,5.1049957 16.9728964,5.05341831" id="Fill-272" fill="#FFFFFF"></path>
                    <path d="M16.8172271,5.2604912 C16.8605962,5.25363954 16.9057809,5.24164913 16.9459225,5.21804896 C17.0052274,5.18302935 17.0181373,5.10499652 16.9727509,5.05341872 C16.9475363,5.02448948 16.9084032,4.99670218 16.8755233,5.00031833 C16.7825317,5.01078615 16.6842955,5.01706684 16.5975572,5.0619833 C16.3657843,5.18207773 16.1630587,5.37658882 15.9623502,5.57129024 C15.8489852,5.6812975 15.7408649,5.8004403 15.6287102,5.91254112 C15.6099505,5.93100255 15.5823153,5.94451555 15.5601264,5.94432522 C14.9563872,5.93766388 14.3526481,6.02920971 13.7485055,6.13141369 C12.005065,6.42736746 10.3013628,7.03221703 8.61440307,7.76896112 C8.46372043,7.83481321 8.31566011,7.9109428 8.1853509,8.04055342 C7.92211014,8.30205856 7.94268528,8.76740066 8.22529087,8.93317284 C8.32574597,8.99217327 8.4360852,9.0153928 8.54723129,8.98950874 C8.73664361,8.9455439 8.92807309,8.90062744 9.11244248,8.82373656 C9.7325207,8.56432499 10.3499766,8.29121009 10.9680377,8.022092 C11.8862537,7.62203102 12.8214139,7.36357106 13.7642395,7.17039224 C14.1930899,7.08246256 14.6225455,7.00328779 15.0517994,6.92030654 C15.0657179,6.917642 15.0798381,6.91783233 15.0949669,6.93343889 C15.0023787,6.95342291 14.9103958,6.97835535 14.8178076,6.99186835 C14.7899707,6.99605548 14.7657646,7.00519103 14.7435758,7.01946533 L15.3214951,6.88623855 C15.3247226,6.8818611 15.3279501,6.87767397 15.3313792,6.87329652 C15.3335981,6.8763417 15.3360187,6.87938689 15.3384393,6.88243207 L15.5278517,6.83884788 C15.5458045,6.8255252 15.5651693,6.81543803 15.5835256,6.80991864 C15.7660795,6.75548598 15.9498437,6.71018888 16.1325994,6.65632719 C16.2348699,6.62625601 16.326046,6.5626878 16.3922092,6.44792245 C16.4446557,6.35694759 16.4442522,6.27625023 16.3891835,6.19878837 C16.3149516,6.09449084 16.219136,6.0322549 16.1094019,6.00808375 C15.9918009,5.98219969 15.871981,5.96754475 15.7531696,5.94794138 C15.753573,5.93747356 15.7541782,5.92700574 15.7545816,5.91653792 C15.7969422,5.92205732 15.8399079,5.92529283 15.8818651,5.93347676 C15.9207965,5.94089939 15.9413716,5.91958311 15.9611399,5.87409568 C16.1067796,5.5376029 16.3272563,5.3303401 16.607643,5.22889742 C16.6177289,5.22509094 16.6282182,5.22204576 16.6387075,5.21976187 C16.6419349,5.2191909 16.6453641,5.22299738 16.6625101,5.23213293 C16.3556984,5.35108541 16.1184792,5.57052895 15.9605347,5.92338959 C15.9645691,5.92852833 15.9686034,5.93385741 15.9726378,5.93918648 C15.9847408,5.91977343 15.9978524,5.90150233 16.0085434,5.88094734 M8.58797814,8.3913205 C8.62509407,8.44023376 8.6230769,8.52093112 8.58293521,8.57384119 C8.54117978,8.62941579 8.47542002,8.63360291 8.43669035,8.58335739 C8.39876754,8.5342538 8.40340703,8.44651445 8.44617105,8.39360439 C8.48631274,8.34412016 8.55146735,8.34316854 8.58797814,8.3913205 M15.6155986,6.30974725 C15.6537231,6.3641799 15.6472682,6.44449662 15.6010749,6.49702603 C15.556092,6.54803286 15.4899289,6.54479735 15.4560404,6.4896034 C15.4241691,6.43821592 15.4328429,6.35333143 15.4750018,6.30613109 C15.518371,6.25759848 15.5798947,6.25912107 15.6155986,6.30974725 M16.3607414,6.39558336 C16.3226169,6.48389368 16.2707756,6.52957143 16.2048141,6.54898447 C16.0781358,6.58609765 15.9520626,6.63329799 15.8247792,6.65823043 C15.2553319,6.7699506 14.6858847,6.87748365 14.1162357,6.98235215 C13.2924233,7.13404036 12.4694177,7.3066642 11.662146,7.62298264 C10.9865956,7.88772328 10.3185087,8.19661908 9.64558065,8.47753726 C9.33776043,8.60600594 9.02772131,8.72286486 8.71627018,8.82868498 C8.5603429,8.88159505 8.40058299,8.87969181 8.2575656,8.79119116 C8.20592604,8.75902641 8.16215344,8.70820991 8.11474993,8.66576766 C8.11838084,8.65853535 8.12201174,8.65092239 8.12544093,8.64349976 C8.32413223,8.80165898 8.54481069,8.76111997 8.76790975,8.69850339 C8.80321023,8.68860654 8.83851072,8.67775807 8.87300433,8.6629128 C9.39847726,8.43909182 9.9241519,8.21679342 10.448818,7.98935628 C10.9880076,7.75601909 11.527399,7.52458514 12.0766746,7.35139033 C12.911178,7.0883626 13.7527416,6.93229695 14.5959189,6.79583466 C15.1845292,6.70048235 15.7743499,6.62016564 16.3607414,6.39558336" id="Fill-274" fill="#FFFFFF"></path>
                    <path d="M16,7 C15.4311015,7.18196784 14.8586805,7.24704448 14.287825,7.32430371 C13.4698011,7.43487231 12.6533428,7.56132454 11.8437339,7.77444281 C11.3106485,7.91477394 10.7875437,8.10213914 10.2646347,8.29135485 C9.75542455,8.47548164 9.24543164,8.65575317 8.73583013,8.83710418 C8.70216982,8.84897835 8.66792241,8.85792253 8.63367499,8.86594145 C8.41723134,8.91667655 8.20294039,8.94936908 8.01037207,8.82137475 C8.00704518,8.82738894 8.00352259,8.83340313 8,8.83941733 C8.04598938,8.87365195 8.08845618,8.91498024 8.13855525,8.94088753 C8.2773062,9.01274941 8.4324959,9.01429151 8.58357592,8.97126691 C8.88554025,8.88568034 9.18672179,8.79099537 9.48496783,8.6869036 C10.1380171,8.45913537 10.7861738,8.20900669 11.4415715,7.99434632 C12.2247609,7.73820345 13.0232149,7.59833495 13.8222559,7.47542955 C14.375107,7.3903056 14.9275667,7.30333114 15.4800264,7.21280985 C15.6035128,7.19260834 15.725825,7.15436425 15.8487243,7.12413908 C15.912718,7.10856387 15.9632085,7.07139925 16,7" id="Fill-276" fill="#000000"></path>
                    <path d="M15.0082149,7.00262569 C15.0058678,6.99951376 15.0035207,6.99659633 15.0013692,6.9932899 C14.9980441,6.9977633 14.9949146,7.0020422 14.9917851,7.0067101 L15.0082149,7.00262569 Z" id="Fill-278" fill="#FFFFFF"></path>
                    <path d="M8.86975669,8.13498392 C8.69038386,7.95168137 8.37028758,7.95530395 8.17307656,8.14440263 C7.9629824,8.34581808 7.94018917,8.67909544 8.12649908,8.86674508 C8.31578202,9.0580173 8.63984234,9.04135344 8.84498144,8.82979476 C9.04219246,8.62837932 9.05210256,8.32118453 8.86975669,8.13498392 M8.8211972,8.45232193 C8.7825478,8.71459672 8.6556985,8.82544767 8.4604695,8.81892702 C8.26028545,8.81095735 8.17208555,8.68126898 8.18298666,8.44869935 C8.37425162,8.65446189 8.57146264,8.68923866 8.8211972,8.45232193" id="Fill-280" fill="#000000"></path>
                    <path d="M15.8776272,6.14871309 C15.702234,5.95575459 15.4000028,5.94995133 15.1869546,6.13493034 C14.9808428,6.3148315 14.9382331,6.63836343 15.0938079,6.83422356 C15.2602828,7.04386644 15.5853052,7.05619838 15.8062808,6.86251447 C16.0341929,6.66230189 16.0649115,6.35545434 15.8776272,6.14871309 M15.8330357,6.40985994 C15.7933988,6.68116249 15.6843974,6.83277274 15.4842312,6.81246132 C15.3583841,6.79940398 15.2513645,6.67608464 15.1354266,6.60354385 C15.1542541,6.56944968 15.1730816,6.5353555 15.1909182,6.50198674 C15.3960391,6.63038394 15.60116,6.71017881 15.8330357,6.40985994" id="Fill-282" fill="#FFFFFF"></path>
                    <path d="M8.06308449,7.95143677 C8.01379492,8.01503682 7.97487181,8.00570103 7.93712226,7.95026979 C7.93477513,8.01289736 7.95237855,8.04771207 7.99169285,8.04965703 C8.03042037,8.05140749 8.05545634,8.02184416 8.06308449,7.95143677" id="Fill-284" fill="#000000"></path>
                    <path d="M15.0688489,5.94578474 C15.0228844,6.0265004 14.9825922,6.0049114 14.9421043,5.97048568 C14.938388,5.97962697 14.9348674,5.98857377 14.9311511,5.99771506 C14.9540355,6.01735911 14.9751596,6.05022886 15.0001956,6.05372978 C15.0395099,6.05917566 15.0610252,6.01852609 15.0688489,5.94578474" id="Fill-286" fill="#000000"></path>
                    <path d="M17.0434218,6.98162017 C17.0144739,6.99212293 16.9855261,7.00515413 16.9565782,7.01837983 C16.9986308,6.99737431 17.0277743,6.98414861 17.0434218,6.98162017" id="Fill-288" fill="#000000"></path>
                    <path d="M14.2234819,7.72639539 C14.2234819,7.72639539 14,7.04082163 13,7.33135975 L13.510761,7.08913535 L14.5956956,6.8228634 L15.8045734,6.48838385 L16.0978094,6.48619771 L16.425442,6.16942591 L16.9575327,6 L17,6.65343749 C17,6.65343749 16.3405073,6.77454969 16.3405073,7.5976317 C16.3405073,8.42049509 14.2234819,7.72639539 14.2234819,7.72639539" id="Fill-290" fill="#000000"></path>
                </g>
            </g>
        </g>
    </g>
</svg>