<?xml version="1.0" encoding="UTF-8"?>
<svg width="29px" height="26px" viewBox="0 0 29 26" version="1.1" xmlns="http://www.w3.org/2000/svg" xmlns:xlink="http://www.w3.org/1999/xlink">
    <!-- Generator: Sketch 53.2 (72643) - https://sketchapp.com -->
    <title>menu</title>
    <desc>Created with Sketch.</desc>
    <g id="Page-1" stroke="none" stroke-width="1" fill="none" fill-rule="evenodd">
        <g id="Desktop-HD" transform="translate(-512.000000, -319.000000)" fill="#FAB645" fill-rule="nonzero">
            <g id="menu" transform="translate(512.000000, 319.000000)">
                <path d="M25.7370791,0 L2.75754419,0 C1.24089488,0 0,1.24491073 0,2.76646828 C0,4.28802583 1.24089488,5.53293656 2.75754419,5.53293656 L25.7370791,5.53293656 C27.2537284,5.53293656 28.4946233,4.28802583 28.4946233,2.76646828 C28.4946233,1.24491073 27.2537284,0 25.7370791,0 Z" id="Path"></path>
                <path d="M25.7370791,9.95928581 L2.75754419,9.95928581 C1.24089488,9.95928581 0,11.2041965 0,12.7257541 C0,14.2473116 1.24089488,15.4922224 2.75754419,15.4922224 L25.7370791,15.4922224 C27.2537284,15.4922224 28.4946233,14.2473116 28.4946233,12.7257541 C28.4946233,11.2041965 27.2537284,9.95928581 25.7370791,9.95928581 Z" id="Path"></path>
                <path d="M25.7370791,20.1952184 L2.75754419,20.1952184 C1.24089488,20.1952184 0,21.4401292 0,22.9616867 C0,24.4832443 1.24089488,25.728155 2.75754419,25.728155 L25.7370791,25.728155 C27.2537284,25.728155 28.4946233,24.4832443 28.4946233,22.9616867 C28.4946233,21.4401292 27.2537284,20.1952184 25.7370791,20.1952184 Z" id="Path"></path>
            </g>
        </g>
    </g>
</svg>