<?xml version="1.0" encoding="UTF-8"?>
<svg width="50px" height="35px" viewBox="0 0 50 35" version="1.1" xmlns="http://www.w3.org/2000/svg" xmlns:xlink="http://www.w3.org/1999/xlink">
    <!-- Generator: Sketch 53.2 (72643) - https://sketchapp.com -->
    <title>quote-start</title>
    <desc>Created with Sketch.</desc>
    <g id="Page-1" stroke="none" stroke-width="1" fill="none" fill-rule="evenodd">
        <g id="Desktop-HD" transform="translate(-185.000000, -150.000000)" fill="#FAB645" fill-rule="nonzero">
            <g id="quote-start" transform="translate(185.000000, 150.000000)">
                <path d="M46.6467163,15.0149951 C44.5534259,12.8835683 41.7784358,11.6496409 38.8059011,11.5217611 C38.7918535,11.336038 38.7814153,11.0800834 38.7814153,10.729804 C38.7814153,9.29474151 39.8728373,4.90986078 40.560878,2.48307174 L41.2649173,0 L32.7208433,0 L32.1485003,0.922080341 C31.9214947,1.28786911 26.5873016,10.0325619 26.5873016,23.2153942 C26.5873016,29.6696639 31.8387698,34.9206349 38.2936508,34.9206349 C44.7485317,34.9206349 50,29.6696639 50,23.2153942 C50,20.1290148 48.8090741,17.2167509 46.6467163,15.0149951 Z M38.2936508,31.018888 C33.9903968,31.018888 30.489418,27.5182407 30.489418,23.2153942 C30.489418,13.5273566 33.6926653,6.35653099 34.9585119,3.90174692 L36.1417312,3.90174692 C35.5810946,6.10467323 34.8792989,9.17310455 34.8792989,10.729804 C34.8792989,11.9650971 34.9709987,12.9575064 35.4188641,13.7858473 C35.8177579,14.5236676 36.6520304,15.4024386 38.3633036,15.4118028 L38.4484673,15.4139487 C42.6663624,15.4956903 46.0978836,18.9953622 46.0978836,23.2153942 C46.0978836,27.5182407 42.5969048,31.018888 38.2936508,31.018888 Z" id="Shape"></path>
                <path d="M20.0594147,15.0149951 C17.9661243,12.8835683 15.1911343,11.6496409 12.2185995,11.5217611 C12.2045519,11.336038 12.1941138,11.0800834 12.1941138,10.729804 C12.1941138,9.29474151 13.2855357,4.90986078 13.9735764,2.48307174 L14.6776157,0 L6.13354167,0 L5.56119874,0.922080341 C5.33419312,1.28786911 0,10.0325619 0,23.2153942 C0,29.6696639 5.25146825,34.9206349 11.7063492,34.9206349 C18.1612302,34.9206349 23.4126984,29.6696639 23.4126984,23.2153942 C23.4126984,20.1290148 22.2217725,17.2167509 20.0594147,15.0149951 Z M11.7063492,31.018888 C7.40309524,31.018888 3.9021164,27.5182407 3.9021164,23.2153942 C3.9021164,13.5273566 7.10536376,6.35653099 8.37121032,3.90174692 L9.55442956,3.90174692 C8.99379299,6.10467323 8.29199735,9.17310455 8.29199735,10.729804 C8.29199735,11.9650971 8.38369709,12.9575064 8.8315625,13.7858473 C9.23045635,14.5236676 10.0647288,15.4024386 11.776002,15.4118028 L11.8611657,15.4139487 C16.0790608,15.4956903 19.510582,18.9953622 19.510582,23.2153942 C19.510582,27.5182407 16.0096032,31.018888 11.7063492,31.018888 Z" id="Shape"></path>
            </g>
        </g>
    </g>
</svg>