<?xml version="1.0" encoding="UTF-8"?>
<svg width="50px" height="36px" viewBox="0 0 50 36" version="1.1" xmlns="http://www.w3.org/2000/svg" xmlns:xlink="http://www.w3.org/1999/xlink">
    <!-- Generator: Sketch 53.2 (72643) - https://sketchapp.com -->
    <title>quote-end</title>
    <desc>Created with Sketch.</desc>
    <g id="Page-1" stroke="none" stroke-width="1" fill="none" fill-rule="evenodd">
        <g id="Desktop-HD" transform="translate(-285.000000, -194.000000)" fill="#FAB645" fill-rule="nonzero">
            <g id="quote-end" transform="translate(285.000000, 194.000000)">
                <path d="M11.622807,0 C5.21399123,0 0,5.27609527 0,11.7612467 C0,14.8623934 1.1824269,17.7885916 3.32935307,20.0008821 C5.40770468,22.1425071 8.16289108,23.3823385 11.1142124,23.5108301 C11.1281597,23.6974419 11.1385234,23.9546212 11.1385234,24.3065765 C11.1385234,25.7485053 10.0548904,30.1543664 9.37175987,32.5927668 L8.67274488,35.0877193 L17.1558443,35.0877193 L17.7241027,34.1612271 C17.9494883,33.7936881 23.245614,25.0071548 23.245614,11.7612467 C23.245614,5.27609527 18.0316228,0 11.622807,0 Z M14.9342416,31.1673037 L13.7593695,31.1673037 C14.3160051,28.9538371 15.0127924,25.8707243 15.0127924,24.3065765 C15.0127924,23.0653729 14.9217471,22.0682152 14.4770779,21.235911 C14.0810307,20.4945604 13.252712,19.6115848 11.5536513,19.6021758 L11.4690954,19.6000196 C7.28130117,19.5178869 3.87426901,16.0014702 3.87426901,11.7612467 C3.87426901,7.43781241 7.35026316,3.92041556 11.622807,3.92041556 C15.8953509,3.92041556 19.371345,7.43781241 19.371345,11.7612467 C19.371345,21.4956385 16.1909576,28.7007743 14.9342416,31.1673037 Z" id="Shape"></path>
                <path d="M38.377193,0 C31.9683772,0 26.754386,5.27609527 26.754386,11.7612467 C26.754386,14.8623934 27.9368129,17.7885916 30.083739,20.0008821 C32.1620906,22.1425071 34.917277,23.3823385 37.8685983,23.5108301 C37.8825457,23.6974419 37.8929094,23.9546212 37.8929094,24.3065765 C37.8929094,25.7485053 36.8092763,30.1543664 36.1261458,32.5927668 L35.4271308,35.0877193 L43.9102303,35.0877193 L44.4784887,34.1612271 C44.7038743,33.7936881 50,25.0071548 50,11.7612467 C50,5.27609527 44.7860088,0 38.377193,0 Z M41.6886276,31.1673037 L40.5137555,31.1673037 C41.0703911,28.9538371 41.7671784,25.8707243 41.7671784,24.3065765 C41.7671784,23.0653729 41.676133,22.0682152 41.2314638,21.235911 C40.8354167,20.4945604 40.007098,19.6115848 38.3080373,19.6021758 L38.2234814,19.6000196 C34.0356871,19.5178869 30.628655,16.0014702 30.628655,11.7612467 C30.628655,7.43781241 34.1046491,3.92041556 38.377193,3.92041556 C42.6497368,3.92041556 46.125731,7.43781241 46.125731,11.7612467 C46.125731,21.4956385 42.9453436,28.7007743 41.6886276,31.1673037 Z" id="Shape"></path>
            </g>
        </g>
    </g>
</svg>