<?xml version="1.0" encoding="UTF-8"?>
<svg width="68px" height="68px" viewBox="0 0 68 68" version="1.1" xmlns="http://www.w3.org/2000/svg" xmlns:xlink="http://www.w3.org/1999/xlink">
    <!-- Generator: Sketch 53.2 (72643) - https://sketchapp.com -->
    <title>special-needs</title>
    <desc>Created with Sketch.</desc>
    <g id="Page-1" stroke="none" stroke-width="1" fill="none" fill-rule="evenodd">
        <g id="Desktop-HD" transform="translate(-153.000000, -378.000000)">
            <g id="special-needs" transform="translate(147.000000, 372.000000)">
                <path d="M26.826087,11.826087 L53.173913,11.826087 C61.4581843,11.826087 68.173913,18.5418157 68.173913,26.826087 L68.173913,53.173913 C68.173913,61.4581843 61.4581843,68.173913 53.173913,68.173913 L26.826087,68.173913 C18.5418157,68.173913 11.826087,61.4581843 11.826087,53.173913 L11.826087,26.826087 C11.826087,18.5418157 18.5418157,11.826087 26.826087,11.826087 Z" id="Rectangle-Copy-5" fill="#FDE9C7" transform="translate(40.000000, 40.000000) rotate(-45.000000) translate(-40.000000, -40.000000) "></path>
                <g id="004-sister-and-brother" transform="translate(26.000000, 26.000000)" fill="#3F3733" fill-rule="nonzero">
                    <circle id="Oval" cx="20.7808989" cy="3.48876404" r="2.88202247"></circle>
                    <path d="M28.3396748,15.4576299 L23.7893086,7.66283412 C23.5713415,7.28945421 23.1287343,7.02555509 22.7952042,7.02555509 C22.7151894,7.02555509 19.0018915,7.02555509 18.921939,7.02555509 C18.5884089,7.02555509 18.1458017,7.28945421 17.9278346,7.66283412 L14.4994218,13.5357098 L10.6935737,7.01628127 C10.4513465,6.60126256 10.013978,6.3712222 9.56488478,6.37203132 C9.55665255,6.3715334 9.54848269,6.37078652 9.54012572,6.37078652 L5.8810857,6.37078652 C5.87272873,6.37078652 5.86455887,6.3715334 5.85632663,6.37203132 C5.40723343,6.37115996 4.96992729,6.60120032 4.72763774,7.01628127 L0.177209134,14.8110148 C-0.184759612,15.430991 0.0254741309,16.2264228 0.64669582,16.5876658 C0.852875812,16.7075408 1.07832671,16.7644907 1.30084644,16.7644907 C1.74894179,16.7644907 2.18506299,16.53333 2.42691599,16.1191204 L4.4339591,12.6810252 L4.4339591,14.1530097 L3.53571033,20.6126253 C3.4600611,21.1567305 3.88358449,21.6421431 4.43402146,21.6421431 L4.43402146,21.6421431 L4.43402146,25.5960863 C4.43402146,26.3394852 5.01327124,26.9726563 5.75766458,26.9991085 C6.5392277,27.0268677 7.18165362,26.4027836 7.18165362,25.6289492 L7.18165362,21.6420808 L8.26706094,21.6420808 L8.26706094,25.5960241 C8.26706094,26.3394852 8.84631072,26.9726563 9.59082879,26.9990462 C10.3723919,27.0267432 11.0146307,26.4027214 11.0146307,25.628887 L11.0146307,21.6420186 L11.0146307,21.6420186 C11.5650677,21.6420186 11.9885911,21.156606 11.9129419,20.6125008 L11.0146307,14.1527608 L11.0146307,12.728079 L12.9941083,16.1189959 C13.061463,16.2342651 13.5288292,17.0492403 13.8468304,17.2341564 C14.0530104,17.3539691 14.2784613,17.4109813 14.500981,17.4109813 C14.9490763,17.4109813 15.3851975,17.1798828 15.6270505,16.765611 L17.5775282,13.4243618 L17.5587562,24.9244506 C17.5587562,25.6816668 18.1737414,26.2954812 18.9324788,26.2954812 C18.9356594,26.2954812 18.9387153,26.2950455 18.941896,26.2949833 C18.9450766,26.2949833 18.9481325,26.2954812 18.9513755,26.2954812 C19.7101129,26.2954812 20.3252228,25.6816668 20.3252228,24.9244506 L20.3063884,17.9854598 C20.3063884,17.6969757 20.5244802,17.445089 20.8129825,17.4264791 C21.1290503,17.4060643 21.3917957,17.6558349 21.3917957,17.9669122 L21.3917957,24.8915255 C21.3917957,25.6349243 21.9710455,26.2680955 22.7154388,26.2946099 C23.497002,26.3223691 24.1394279,25.698285 24.1394279,24.9244506 L24.1394279,13.4244241 L26.0899056,16.7656732 C26.3317586,17.1799451 26.7678798,17.4110435 27.2159751,17.4110435 C27.4384949,17.4110435 27.6640081,17.3540314 27.8701257,17.2342187 C28.4914098,16.8729756 28.7015812,16.0775438 28.3396748,15.4576299 Z" id="Path"></path>
                    <path d="M3.24054339,5.70696195 L3.96746287,5.64337429 C4.38546481,5.60683874 4.68007317,5.22336747 4.59824439,4.81934876 C4.47348804,4.20195271 4.43037462,3.3450999 4.9526912,2.81524327 C4.9521337,2.83755366 4.95095676,2.85968168 4.95095676,2.88205287 C4.95095676,4.47368965 6.26579213,5.76404494 7.88762477,5.76404494 C9.50939546,5.76404494 10.8242308,4.47368965 10.8242308,2.88205287 C10.8242308,2.85968168 10.8230539,2.83755366 10.8224344,2.81524327 C11.344813,3.34516069 11.3016376,4.20195271 11.1768193,4.81934876 C11.0951764,5.22336747 11.3896608,5.60683874 11.8076628,5.64337429 L12.5345203,5.70696195 C12.9187625,5.74057952 13.2593337,5.46616777 13.3004649,5.08974828 C13.4005054,4.17575168 13.3830989,2.80448322 12.8563843,2.2599759 C12.078918,1.45625464 11.1173525,1.44810862 10.4961724,1.55893108 C10.0076776,0.633140978 9.02331645,0 7.88768671,0 C6.75205697,0 5.76763392,0.633080187 5.27907713,1.55893108 C4.65795896,1.44816941 3.69620762,1.45625464 2.91886525,2.2599759 C2.39227449,2.80448322 2.37486807,4.17581247 2.47466077,5.08974828 C2.5158539,5.46616777 2.85636318,5.74057952 3.24054339,5.70696195 Z" id="Path"></path>
                </g>
            </g>
        </g>
    </g>
</svg>