<?xml version="1.0" encoding="UTF-8"?>
<svg width="68px" height="68px" viewBox="0 0 68 68" version="1.1" xmlns="http://www.w3.org/2000/svg" xmlns:xlink="http://www.w3.org/1999/xlink">
    <!-- Generator: Sketch 53.2 (72643) - https://sketchapp.com -->
    <title>wheelchair</title>
    <desc>Created with Sketch.</desc>
    <g id="Page-1" stroke="none" stroke-width="1" fill="none" fill-rule="evenodd">
        <g id="Desktop-HD" transform="translate(-353.000000, -378.000000)">
            <g id="wheelchair" transform="translate(347.000000, 372.000000)">
                <path d="M26.826087,11.826087 L53.173913,11.826087 C61.4581843,11.826087 68.173913,18.5418157 68.173913,26.826087 L68.173913,53.173913 C68.173913,61.4581843 61.4581843,68.173913 53.173913,68.173913 L26.826087,68.173913 C18.5418157,68.173913 11.826087,61.4581843 11.826087,53.173913 L11.826087,26.826087 C11.826087,18.5418157 18.5418157,11.826087 26.826087,11.826087 Z" id="Rectangle-Copy-5" fill="#FDE9C7" transform="translate(40.000000, 40.000000) rotate(-45.000000) translate(-40.000000, -40.000000) "></path>
                <g id="001-wheelchair" transform="translate(27.000000, 26.000000)" fill="#3F3733" fill-rule="nonzero">
                    <path d="M14.9133839,21.3146207 C14.3157003,22.451221 13.4734488,23.3539298 12.3856636,24.022639 C11.2980929,24.6908078 10.1108815,25.0254326 8.82397573,25.0254326 C6.93450354,25.0254326 5.31835932,24.3494278 3.97532845,22.9966075 C2.63240489,21.6441656 1.96088946,20.0161661 1.96088946,18.1131496 C1.96088946,16.7451978 2.33353626,15.4879769 3.0791518,14.3407304 C3.82466002,13.1938622 4.82047744,12.3426009 6.06633576,11.7872167 L5.80593908,9.76595745 C4.06971084,10.403809 2.66814035,11.4889078 1.60079836,13.021524 C0.533563682,14.5541943 0,16.2515829 0,18.1131496 C0,19.7182355 0.3957729,21.2017821 1.18721139,22.5646 C1.97864987,23.9274179 3.05098195,25.0074908 4.40415397,25.8045485 C5.75716501,26.6016062 7.23068933,27 8.82376111,27 C10.7336229,27 12.4648074,26.4292139 14.016939,25.2874797 C15.5693389,24.1460157 16.641671,22.6543088 17.2340426,20.8130617 L15.6716088,17.6656322 C15.763523,18.961817 15.5108529,20.1779663 14.9133839,21.3146207 Z" id="Path"></path>
                    <path d="M24.3706637,19.1740605 L21.2773064,20.6867107 L17.7150863,13.735166 C17.5379493,13.3787698 17.2409152,13.2004647 16.8244218,13.2004647 L9.71557733,13.2004647 L9.46560465,11.2449414 L15.8246405,11.2449414 L15.8246405,9.28920399 L9.21590558,9.28920399 L8.63770695,4.8737444 C9.34614529,4.94497012 9.971077,4.73364752 10.5126662,4.2397231 C11.0543102,3.74574516 11.3251322,3.14736348 11.3251322,2.44452455 C11.3251322,1.77229501 11.0804676,1.19676336 10.5908648,0.717983097 C10.1010978,0.239256349 9.51250189,0 8.82524118,0 C8.26285737,0 7.75754919,0.160324764 7.30975443,0.481188344 C6.8617955,0.802051924 6.5649803,1.22202147 6.41919938,1.74147156 C6.33574747,2.00646763 6.30450088,2.22025182 6.32545963,2.38325223 L7.82518628,14.2850649 C7.85648759,14.5298866 7.96828579,14.7357509 8.16096395,14.9042096 C8.3536421,15.0719727 8.57499488,15.156202 8.82502229,15.156202 L16.1993259,15.156202 L19.9338674,22.4440221 C20.1110044,22.8001507 20.4076007,22.9787234 20.8246961,22.9787234 C20.9913263,22.9787234 21.142087,22.9431908 21.2776895,22.8718046 L25.2765957,20.9159602 L24.3706637,19.1740605 Z" id="Path"></path>
                </g>
            </g>
        </g>
    </g>
</svg>